<svg xmlns="http://www.w3.org/2000/svg" width="380.987" height="729.76" viewBox="0 0 380.987 729.76">
  <g id="Groupe_232" data-name="Groupe 232" transform="translate(-572.572 -922.605) rotate(19)">
    <g id="Groupe_231" data-name="Groupe 231" transform="translate(1026 608)">
      <path id="Tracé_1413" data-name="Tracé 1413" d="M84.361,606.4c-2.251,22.418,16.484,42.037,30.964,55.477,26.051,24.184,46.091,46.073,60.018,80.677,11.348,28.195,27.517,71.007,14.377,101.372-9,20.785-26.108,32.624-32.579,55.719-17,60.659-7.8,118.557,7.36,178.272-21.671-1.277-34.66-54.349-39.121-72.3-4.9-19.711-6.213-43.006,1.772-61.883,7.446-17.6,12.073-37.009,22.135-53.276,5.079-8.214,8.349-17.08,11.2-26.407,14.715-48.055,7.565-91.54-14.653-135.66a120.02,120.02,0,0,0-15.2-23.184c-4.973-5.926-14.416-11.1-18.288-17.409,15.009,24.443,19.281,55.164,28.271,82.064,9.459,28.3,13.421,64.746-.884,91.808-10.442,19.748-34.85,25.763-36.276,50.865-1.859,32.792,2.246,65.835.827,98.711-1.461,33.868-15.316,21.419-22.519-3.785-9.388-32.853-10.609-73.013,1.66-105.241,9.443-24.8,32.054-38.526,42.326-61.781,10.576-23.945-.811-55.8-6.791-79.638C106.254,710.148,64.512,658,73.024,603.868c5.36-34.074,30.524-46.9,49.523-71.005,18.2-23.09,33.4-61.67,39.15-90.786,3.611-18.271,4.679-36.858,6.65-55.082,23.018,45.682,6.615,113.716-20.1,154.1C130.543,567.852,88.249,567.666,84.361,606.4Z" transform="translate(-29.819 -386.994)"/>
      <path id="Tracé_1414" data-name="Tracé 1414" d="M81.153,747.2c-24.134,22.25-28.846,56.792-28.966,88.6-.071,19.017,2.472,38.251,1.965,57.146-6.659-10.986-9.008-31.233-11.7-43.8-5.506-25.665-3.518-46.76,4.671-70.986,6.1-18.031,16.655-33.707,25.985-49.948,3.714-6.463,8.566-12.856,11.755-19.468,4.274-8.862,4.364-19.92,7.564-29.253C108.368,692.6,104.8,730.174,101.3,747.8c-3.16,15.9-14.818,28.069-19.577,43.6-4.911,16.027-6.887,33.048-7.946,49.8-1.047,16.579.269,33.186.432,49.746-11-20.322-11-45-10.993-67.74.008-20.147,7.35-39.949,13.168-58.85C78.026,759.024,81.1,752.807,81.153,747.2Z" transform="translate(-39.347 -279.913)"/>
      <g id="Groupe_227" data-name="Groupe 227" transform="translate(89.256 90.051)">
        <path id="Tracé_1415" data-name="Tracé 1415" d="M207.908,1075.939s-.8-2.294-2.324-6.66c-1.542-4.352-3.974-10.7-7.254-18.8l-12.186-29.487c-4.71-11.556-10.019-24.808-14.884-40.085-2.419-7.642-4.711-15.8-6.553-24.557a166.671,166.671,0,0,1-3.594-28.1,128.322,128.322,0,0,1,.336-15.373,107.342,107.342,0,0,1,2.646-15.971,99.416,99.416,0,0,1,5.379-15.994c2.074-4.7,4.212-9.422,6.392-14.119,4.354-9.419,8.84-18.883,13.053-28.529,2.138-4.821,4.128-9.691,6.083-14.6,1.851-4.917,3.725-9.873,5.228-14.87.84-2.5,1.443-5,2.173-7.512.569-2.5,1.271-5.023,1.692-7.526.211-1.246.558-2.525.667-3.747q.227-1.844.455-3.7l.239-1.851.121-.926.038-.943q.076-1.885.153-3.777a109.247,109.247,0,0,0-3.69-30.951c-5.448-20.81-15.847-40.159-28.285-56.547-3.118-4.1-6.383-8.023-9.77-11.728l-1.254-1.409-1.357-1.448-2.759-2.926-5.546-5.929a309.061,309.061,0,0,1-20.92-24.781,150.71,150.71,0,0,1-16.819-27.6,81.058,81.058,0,0,1-5.434-15.688,55.971,55.971,0,0,1-1.372-17.2,43.88,43.88,0,0,1,4.752-16.582,47.18,47.18,0,0,1,9.536-12.31c6.615-6.276,13.613-10.91,19.561-15.217s10.916-8.542,14.822-13.573q.733-.941,1.456-1.869l1.332-1.948c.919-1.262,1.668-2.642,2.473-3.952,1.546-2.721,2.967-5.554,4.374-8.207a150.035,150.035,0,0,0,10.949-29.217c.646-2.078.95-4.1,1.387-5.979.367-1.891.862-3.649,1.045-5.315q.365-2.5.674-4.611a38.036,38.036,0,0,0,.463-3.846l.548-7.065s.2,2.443.577,7.093a37.5,37.5,0,0,1,.127,3.925q.008,2.176.017,4.755c.062,1.732-.175,3.563-.273,5.55-.167,1.973-.191,4.115-.549,6.322a147.081,147.081,0,0,1-7.383,31.917c-1.136,3-2.231,6.083-3.581,9.309-.732,1.611-1.408,3.284-2.3,4.9q-.64,1.225-1.291,2.467-.723,1.207-1.458,2.429c-3.925,6.554-9.54,12.571-15.406,17.863s-11.714,10.2-16.721,16.023a22.894,22.894,0,0,0-1.674,2.093,17.12,17.12,0,0,0-1.476,2.075q-.642,1.068-1.289,2.149-.5,1.131-1.021,2.24a25.392,25.392,0,0,0-1.8,9.627c.026,6.795,2.574,14.481,6.77,22.031a136.5,136.5,0,0,0,15.905,22.411c6.231,7.355,13.194,14.552,20.6,21.819l5.65,5.505,2.9,2.816,1.471,1.444,1.519,1.56q6.149,6.195,11.78,13.119a187.585,187.585,0,0,1,20.2,30.381,165.171,165.171,0,0,1,14.094,35.793,131.592,131.592,0,0,1,4.308,39.487q-.153,2.494-.305,4.979l-.083,1.24-.175,1.238-.355,2.467q-.365,2.461-.73,4.917c-.216,1.654-.644,3.163-.959,4.745-.633,3.161-1.527,6.143-2.323,9.172-.93,2.934-1.771,5.925-2.812,8.743a274.245,274.245,0,0,1-13.651,31.846c-4.9,9.937-9.983,19.3-14.83,28.319-2.437,4.513-4.781,8.929-7.063,13.285a79.482,79.482,0,0,0-4.963,11.953,89.049,89.049,0,0,0-3.064,12.55,113,113,0,0,0-1.307,12.829c-.767,17.173,1.806,33.864,4.87,48.935,3.12,15.112,6.818,28.778,10.064,40.813,3.273,12.034,6.128,22.452,8.256,31.032s3.607,15.293,4.467,19.873c.463,2.278.724,4.042.94,5.213C207.8,1075.337,207.908,1075.939,207.908,1075.939Z" transform="translate(-108.388 -452.913)"/>
      </g>
      <g id="Groupe_228" data-name="Groupe 228" transform="translate(180.151 208.901)">
        <path id="Tracé_1416" data-name="Tracé 1416" d="M192.374,993.455l-.773-.952c-.5-.641-1.31-1.545-2.215-2.862a55.165,55.165,0,0,1-6.83-12.4,56.484,56.484,0,0,1-3.82-22.76,72.4,72.4,0,0,1,2.018-14.494,91.84,91.84,0,0,1,5.306-15.418,115.782,115.782,0,0,1,8.495-15.586,148.7,148.7,0,0,1,11.335-15.187c4.079-4.919,8.291-9.748,12.054-14.856a77.545,77.545,0,0,0,5.192-7.858,46.9,46.9,0,0,0,3.854-8.3c.291-.7.447-1.426.668-2.139l.318-1.072.275-1.224c.34-1.65.811-3.247,1.063-4.958q.941-5.041,1.467-10.371c.718-7.1.94-14.535.968-22.244.023-7.746-.5-13.162-3.335-19.984-.624-1.656-1.426-3.541-2.191-5.385-.776-1.917-1.608-3.885-2.374-5.921l-1.138-3.112c-.186-.522-.385-1.034-.56-1.564l-.481-1.627q-.946-3.26-1.9-6.541c-.6-2.193-.95-4.421-1.423-6.62l-.658-3.3c-.185-1.1-.295-2.2-.443-3.3-.273-2.2-.564-4.389-.8-6.569q-.2-3.256-.4-6.49c-.171-2.164-.18-4.29-.191-6.406s-.066-4.238-.014-6.32c.149-4.149.221-8.3.534-12.306,1.029-16.147,3.016-31.177,4.049-45.3,1.067-14.114,1.3-27.375-.345-39.481a168.853,168.853,0,0,0-8.6-33.35c-3.589-10.119-7.3-19.251-10.354-27.4-3.079-8.138-5.476-15.3-7.193-21.215-.807-2.981-1.572-5.6-2.057-7.931-.521-2.317-1-4.258-1.241-5.867l-.842-4.863s.538,1.6,1.563,4.649c.471,1.533,1.222,3.372,2.05,5.553.792,2.194,1.9,4.652,3.074,7.433,2.452,5.526,5.669,12.153,9.642,19.758,3.944,7.623,8.638,16.233,13.36,26.208A162.876,162.876,0,0,1,231.8,638.226c2.892,13.272,3.608,27.747,3.326,42.552-.256,14.839-1.573,30.068-2.075,45.429-.569,15.364-.058,30.909,3.576,45.657,1.069,3.617,1.992,7.233,3.382,10.8.663,1.81,1.4,3.608,2.131,5.473.771,1.923,1.535,3.779,2.309,5.918.8,1.993,1.461,4.333,2.14,6.552.291,1.157.531,2.351.789,3.523l.371,1.764.224,1.779q.2,1.777.4,3.549c.107,1.173.079,2.307.118,3.46q.025,1.715.05,3.421l-.1,3.029a219.231,219.231,0,0,1-1.96,24.069c-.577,3.971-1.316,7.914-2.248,11.791-.4,1.941-1.042,3.854-1.553,5.758l-.41,1.425-.53,1.516c-.367,1-.685,2.027-1.125,2.97a60.23,60.23,0,0,1-5.717,10.593,87,87,0,0,1-6.714,8.81c-4.615,5.4-9.339,10-13.665,14.423a147.908,147.908,0,0,0-11.692,13.06,111.666,111.666,0,0,0-9.074,13.351,75.707,75.707,0,0,0-9.527,26.114,54.367,54.367,0,0,0,.906,21.3,57.646,57.646,0,0,0,4.875,12.892c.693,1.436,1.348,2.454,1.743,3.171S192.374,993.455,192.374,993.455Z" transform="translate(-178.697 -539.913)"/>
      </g>
      <g id="Groupe_229" data-name="Groupe 229" transform="translate(152.186 28.577)">
        <path id="Tracé_1417" data-name="Tracé 1417" d="M201.293,689.328l-1.572-2.673c-1-1.761-2.56-4.313-4.571-7.571-2.027-3.254-4.547-7.191-7.51-11.754s-6.352-9.77-9.964-15.7A194.335,194.335,0,0,1,166.743,631.3a114.869,114.869,0,0,1-8.556-26.211q-.328-1.894-.661-3.807-.186-2.037-.376-4.1l-.085-1.038,0-1.106.035-2.236a29.568,29.568,0,0,1,.485-4.693l.189-1.2c.092-.406.219-.817.331-1.227l.73-2.458a18.739,18.739,0,0,1,.99-2.378c.372-.768.711-1.6,1.143-2.31a35.545,35.545,0,0,1,2.745-4.039l1.467-1.809c.487-.546.973-1.046,1.465-1.572,3.943-4.093,7.581-7.1,10.92-10.418.865-.807,1.66-1.646,2.468-2.482s1.633-1.66,2.388-2.545l1.164-1.3.586-.65.293-.327c.085-.1.127-.179.194-.27q.367-.523.751-1.03a5.388,5.388,0,0,0,.721-1.053,24.168,24.168,0,0,0,3.134-10.522,56.32,56.32,0,0,0-.59-12.889,135.67,135.67,0,0,0-2.78-13.4q-.415-1.67-.869-3.354-.429-1.617-.852-3.216c-.146-.518-.251-1.026-.428-1.549l-.54-1.57-1.065-3.119c-2.91-8.511-5.775-16.892-8.1-24.874a165.107,165.107,0,0,1-5.138-22.86,109.19,109.19,0,0,1,.176-33.83c.339-1.94.639-3.663.9-5.157.336-1.474.622-2.721.852-3.729.472-2,.721-3.053.721-3.053s.008,1.085.023,3.149c0,1.026,0,2.294.006,3.794.063,1.493.137,3.217.22,5.156.181,3.861.648,8.552,1.421,13.889a136.239,136.239,0,0,0,4.174,17.67,196.89,196.89,0,0,0,7.8,20.5c3.174,7.309,6.8,15.005,10.578,23.471l1.453,3.29.729,1.664c.24.561.437,1.186.657,1.779q.617,1.758,1.241,3.533.6,1.709,1.18,3.493a128.033,128.033,0,0,1,4.067,15.14,69,69,0,0,1,1.366,17.469,41.539,41.539,0,0,1-5.681,19.135,16.919,16.919,0,0,1-1.463,2.169l-1.572,2.076-.394.5-.352.389-.706.775-1.409,1.542c-.926,1.045-1.9,2.01-2.876,2.967s-1.939,1.93-2.928,2.81c-3.9,3.638-7.949,6.8-10.888,9.589l-1.081,1.03-.879.977a6,6,0,0,0-.791.947c-.22.309-.447.609-.683.908a10.307,10.307,0,0,0-.518.913,4.875,4.875,0,0,0-.486.921c-.114.333-.237.661-.371.989-.063.167-.144.321-.2.5l-.115.576a13.264,13.264,0,0,0-.433,2.41l-.129,1.321-.07.664.01.728c.006.975.01,1.945.017,2.91q.134,1.539.266,3.061a120.658,120.658,0,0,0,5.061,23.86c2.314,7.462,5.01,14.386,7.58,20.726,2.628,6.377,5.007,12.149,7.1,17.222,2.083,5.113,3.79,9.58,5.1,13.259s2.249,6.565,2.822,8.545S201.293,689.328,201.293,689.328Z" transform="translate(-157.065 -407.913)"/>
      </g>
      <g id="Groupe_230" data-name="Groupe 230" transform="translate(166.177 488.95)">
        <path id="Tracé_1418" data-name="Tracé 1418" d="M181.318,885.62l-.875-1.321c-.283-.443-.632-.99-1.045-1.638l-1.28-2.332a77.58,77.58,0,0,1-6.028-16.047,129.84,129.84,0,0,1-3.9-25.151q-.233-3.58-.279-7.329c-.021-1.234-.028-2.51,0-3.884.016-.68.01-1.34.047-2.048q.122-1.143.247-2.3.142-1.154.283-2.318.231-1.139.462-2.288c.171-.768.306-1.531.524-2.306q.363-1.168.73-2.34a38.879,38.879,0,0,1,1.882-4.662c.371-.765.813-1.5,1.229-2.249a19.5,19.5,0,0,1,1.359-2.167,41.2,41.2,0,0,1,6.231-7.153c2.138-1.985,4.145-3.552,6.045-5.05,1.853-1.46,3.619-2.809,5.2-4.145.808-.664,1.6-1.324,2.323-2l1.12-1,.979-.949.99-.936.734-.907.759-.891.685-1.029.7-1.026q.293-.545.58-1.082c.19-.365.416-.71.584-1.085l.49-1.135a43.462,43.462,0,0,0,2.646-9.7c.571-3.309,1.01-6.539,1.554-9.384a46.336,46.336,0,0,1,1.934-7.262,24.293,24.293,0,0,1,2-4.24c.544-.887.831-1.357.831-1.357s-.041.555-.119,1.606a30.5,30.5,0,0,0-.017,4.458,61.283,61.283,0,0,0,.9,6.87c.478,2.688,1.131,5.757,1.65,9.411a45.243,45.243,0,0,1,.154,12.854q-.143.918-.292,1.85c-.11.621-.293,1.238-.447,1.866s-.336,1.265-.505,1.9l-.685,1.872c-.239.63-.476,1.265-.739,1.9q-.481.949-.966,1.91c-.334.635-.671,1.3-1.026,1.921l-1.14,1.654q-.586.832-1.179,1.671l-1.2,1.525c-.8,1.042-1.65,2.025-2.522,2.989-1.74,1.965-3.563,3.757-5.36,5.5-1.752,1.691-3.51,3.321-4.975,4.843a32.461,32.461,0,0,0-3.739,4.493,7.9,7.9,0,0,0-.724,1.136c-.215.389-.468.753-.672,1.149a26.829,26.829,0,0,0-1.107,2.477l-.5,1.3c-.16.443-.268.936-.411,1.4l-.42,1.4-.3,1.406-.327,1.4c-.084.525-.144,1.1-.219,1.647q-.219,1.719-.433,3.4-.419,3.475-.818,6.8c-1.043,8.867-1.789,16.894-2.149,23.7a139.824,139.824,0,0,0-.027,16.277c.071.978.136,1.85.191,2.605q.132,1.133.222,1.91C181.257,885.067,181.318,885.62,181.318,885.62Z" transform="translate(-167.887 -744.913)"/>
      </g>
    </g>
  </g>
</svg>
