<svg xmlns="http://www.w3.org/2000/svg" width="114.226" height="187.874" viewBox="0 0 114.226 187.874">
  <g id="Groupe_216" data-name="Groupe 216" transform="translate(-717.975 216.433)">
    <g id="Groupe_1" data-name="Groupe 1" transform="translate(717.975 -118.215)">
      <path id="Tracé_1" data-name="Tracé 1" d="M443.848,10.023l.46-.567a7.7,7.7,0,0,1,8.278-2.478,6.228,6.228,0,0,1,3.4,2.485,11.359,11.359,0,0,1,1.878,4.629,22.967,22.967,0,0,1-.391,10.386c-.079.291-.194.571-.295.858-2.043,5.75-8.816,6.1-12.261,3.124a10.123,10.123,0,0,1-1.293-1.4,14.7,14.7,0,0,0-.366,2.4c-.054.381-.169.514-.557.506q-2.4-.027-4.794,0c-.374,0-.582-.072-.524-.5a3.8,3.8,0,0,0,0-.5V.959c0-.98,0-.98,1.02-.98,1.569,0,3.142,0,4.712,0,.575,0,.585.014.585.589q.005,4.3,0,8.594v.808A1.1,1.1,0,0,0,443.848,10.023Zm-.262,8.587c.043.711.075,1.674.172,2.632a6.908,6.908,0,0,0,.639,2.46,3.229,3.229,0,0,0,2.065,1.767,3.688,3.688,0,0,0,4.873-3.006,24.461,24.461,0,0,0,.241-6.335,9.328,9.328,0,0,0-.445-2.593,3.487,3.487,0,0,0-3.484-2.413,3.35,3.35,0,0,0-3.419,2.345,7.205,7.205,0,0,0-.33,1.189A24.878,24.878,0,0,0,443.585,18.61Z" transform="translate(-387.428 0.022)" fill="#010101"/>
      <path id="Tracé_2" data-name="Tracé 2" d="M570.912,28.032c0-1,.007-1.968,0-2.93a2.333,2.333,0,0,0-1.588-2.284,4.814,4.814,0,0,0-1.523-.345,13.769,13.769,0,0,0-6.92,1.182c-.1.047-.2.079-.359.136-.18-1.081-.338-2.133-.528-3.178-.072-.384.172-.47.431-.571a21.777,21.777,0,0,1,5.516-1.347,17.3,17.3,0,0,1,5.182.119c3.8.743,5.538,3.221,5.886,6.669.054.546.058,1.1.058,1.652q.005,6.938,0,13.88a3.194,3.194,0,0,0,0,.413c.05.384-.151.449-.485.445-1.569-.011-3.142-.022-4.712,0-.409.007-.51-.158-.549-.517-.079-.74-.194-1.472-.294-2.205a.164.164,0,0,0-.216.047,6.8,6.8,0,0,1-4.367,2.744,9.811,9.811,0,0,1-5.064-.2,5.991,5.991,0,0,1-4.328-5.028,10.386,10.386,0,0,1,.011-4.511,7.371,7.371,0,0,1,5.549-5.541,10.318,10.318,0,0,1,4.909-.2,6.709,6.709,0,0,1,2.966,1.368C570.6,27.914,570.672,28.043,570.912,28.032ZM563.248,33.9c.018.33.014.661.05.988a3.277,3.277,0,0,0,3.275,3.185,6.466,6.466,0,0,0,1.318-.025,3.083,3.083,0,0,0,2.833-2.482,7.252,7.252,0,0,0-.043-3.595,3.129,3.129,0,0,0-2.672-2.482,5.262,5.262,0,0,0-2.13.075,3.1,3.1,0,0,0-2.252,1.99A6.177,6.177,0,0,0,563.248,33.9Z" transform="translate(-463.974 -11.885)" fill="#010101"/>
      <path id="Tracé_3" data-name="Tracé 3" d="M406.977,127.831c-2.668,3.114-5.958,3.609-9.6,2.643a5.634,5.634,0,0,1-4.094-4.055,10.506,10.506,0,0,1-.244-5.466,7.121,7.121,0,0,1,4.615-5.229,10.258,10.258,0,0,1,6.486-.352,6.878,6.878,0,0,1,2.586,1.4c.266-.115.151-.341.154-.506q.022-1.158,0-2.313a2.41,2.41,0,0,0-1.875-2.5,8.274,8.274,0,0,0-2.862-.3,14.176,14.176,0,0,0-5.276,1.225,1.752,1.752,0,0,1-.359.072c-.277-1.031-.338-2.076-.542-3.1-.075-.363.165-.47.438-.578a21.009,21.009,0,0,1,5.024-1.289,18.288,18.288,0,0,1,5.107-.032c2.711.42,4.837,1.627,5.875,4.313A8.815,8.815,0,0,1,413,114.5c.032.6.029,1.21.032,1.817q.005,6.61,0,13.223v.33c-.011.729-.011.736-.711.74-1.156.007-2.316.018-3.473-.007-.481-.011-1.081.223-1.419-.136-.3-.316-.2-.891-.248-1.354C407.135,128.711,407.056,128.313,406.977,127.831Zm-.1-5.2c0-.194.011-.384,0-.578-.165-2.421-1.289-4.072-4.245-3.871a3.312,3.312,0,0,0-3.175,2.535,7.549,7.549,0,0,0-.137,3.193,3.124,3.124,0,0,0,2.615,2.819,5.807,5.807,0,0,0,2.295,0,3.045,3.045,0,0,0,2.46-2.381A5,5,0,0,0,406.877,122.631Z" transform="translate(-358.854 -68.75)" fill="#ffc933"/>
      <path id="Tracé_4" data-name="Tracé 4" d="M381.551,36.669c.276.966.51,1.9.815,2.808.151.449,0,.636-.374.826a18,18,0,0,1-8.7,1.882,13.854,13.854,0,0,1-3.351-.438,9.155,9.155,0,0,1-6.637-6.109,15.786,15.786,0,0,1,.147-11,9.437,9.437,0,0,1,8.676-6.331,14.113,14.113,0,0,1,4.274.241c3.789.855,5.969,3.3,6.863,7a23.575,23.575,0,0,1,.388,5.505c0,.309-.1.463-.427.438-.19-.014-.384,0-.578,0h-12.9c-.194,0-.388.007-.578,0-.251-.011-.334.108-.33.345a7.4,7.4,0,0,0,1.1,4.169,5.071,5.071,0,0,0,4.169,2.151,14.916,14.916,0,0,0,6.6-1.225A1.967,1.967,0,0,1,381.551,36.669ZM373.305,28.2h3.968c.244,0,.535.047.492-.352a10.121,10.121,0,0,0-1.049-4.04,3.4,3.4,0,0,0-2.263-1.792,3.923,3.923,0,0,0-4.776,2.27,10.129,10.129,0,0,0-.776,3.358c-.05.535-.025.553.524.557C370.716,28.2,372.009,28.2,373.305,28.2Z" transform="translate(-339.371 -11.684)" fill="#010101"/>
      <path id="Tracé_5" data-name="Tracé 5" d="M540.1,120.21h-6.364c-.194,0-.384.007-.578,0-.352-.014-.517.144-.481.5a10,10,0,0,0,.7,3.293,4.8,4.8,0,0,0,3.656,2.787,12,12,0,0,0,5.624-.442,15.707,15.707,0,0,0,2.252-.8c.366-.165.542-.09.643.312.2.8.409,1.6.682,2.377.158.452,0,.639-.374.826a17.069,17.069,0,0,1-4.834,1.612,17.468,17.468,0,0,1-6.407.018,9.33,9.33,0,0,1-7.671-7,15.857,15.857,0,0,1,.406-10.372,9.463,9.463,0,0,1,8.4-6.234,13.713,13.713,0,0,1,5.075.374,8.319,8.319,0,0,1,5.9,5.509,18.71,18.71,0,0,1,.794,6.845c0,.273-.122.406-.4.4-.194,0-.384,0-.578,0C544.391,120.21,542.243,120.21,540.1,120.21Zm-2.945-3.3c1.293,0,2.586.007,3.878,0,.553,0,.575-.025.546-.56a9,9,0,0,0-.88-3.573,3.613,3.613,0,0,0-3.437-2.148,3.732,3.732,0,0,0-3.527,2.025,8.6,8.6,0,0,0-.941,3.555c-.05.689-.029.7.646.7C534.673,116.92,535.912,116.913,537.151,116.913Z" transform="translate(-444.395 -68.563)" fill="#ffc933"/>
      <path id="Tracé_6" data-name="Tracé 6" d="M313.093,23.942H302.326c-.675,0-.682-.007-.686-.672-.007-.937-.007-1.871,0-2.808,0-.564.014-.575.607-.575q5.785-.005,11.575,0c1.846,0,3.692,0,5.538,0,.578,0,.589.011.592.585.007,1.268-.018,2.535.011,3.8a1.608,1.608,0,0,1-.46,1.174q-5.43,6.173-10.838,12.365c-.19.219-.374.445-.618.736a2.407,2.407,0,0,0,.966.09q5.209.005,10.415,0c.165,0,.33,0,.5,0,.611.014.618.014.621.646,0,.962-.025,1.929.011,2.891.018.46-.162.589-.571.542-.108-.011-.219,0-.33,0h-17.36c-.9,0-.8.111-.8-.779,0-1.185.022-2.37-.011-3.552a1.828,1.828,0,0,1,.492-1.332q5.258-6.157,10.487-12.343C312.629,24.509,312.795,24.3,313.093,23.942Z" transform="translate(-300.336 -12.736)" fill="#010101"/>
      <path id="Tracé_7" data-name="Tracé 7" d="M456.915,108.748a1.051,1.051,0,0,1,.643-.079q2.645-.005,5.294,0c.779,0,.783,0,1.052.711q2.489,6.647,4.981,13.3c.1.255.2.51.323.819a3.41,3.41,0,0,0,.567-1.113q2.688-6.486,5.358-12.975c.305-.74.309-.74,1.135-.74h4.065a1.314,1.314,0,0,1-.223.88q-4.584,10.661-9.172,21.318a.888.888,0,0,1-.981.643c-1.074-.04-2.151-.011-3.225-.011-.722,0-.729,0-1.005-.682q-2.914-7.192-5.829-14.387-1.379-3.4-2.755-6.813C457.03,109.333,456.832,109.074,456.915,108.748Z" transform="translate(-399.939 -69.627)" fill="#ffc933"/>
      <path id="Tracé_8" data-name="Tracé 8" d="M307.647,90.44v5.082c0,.248,0,.5,0,.743.007.715.011.722.729.725,1.156,0,2.316.014,3.473-.007.427-.007.582.133.571.564-.025.962-.025,1.929,0,2.891.011.442-.169.571-.582.564-1.156-.018-2.316-.011-3.473,0-.7,0-.711.014-.715.682q-.005,5.538.007,11.075a7.329,7.329,0,0,0,.147,1.311A2.191,2.191,0,0,0,309.957,116a6.35,6.35,0,0,0,2.3-.126c.4-.119.6-.018.7.417.151.668.384,1.322.567,1.982.18.643.14.7-.514.973a10.473,10.473,0,0,1-2.8.664,13.172,13.172,0,0,1-3.466.007,5.928,5.928,0,0,1-4.9-4.159,9.5,9.5,0,0,1-.535-3.326q.011-5.209,0-10.415c0-.194-.007-.384,0-.578.011-.316-.154-.442-.456-.442-.661,0-1.322-.011-1.986,0-.355.007-.575-.068-.564-.5.018-1.02.014-2.04,0-3.056-.007-.373.169-.467.506-.46.689.014,1.379,0,2.069.007.32,0,.442-.129.435-.442-.011-.661,0-1.322,0-1.982a.683.683,0,0,1,.33-.689c1.921-1.135,3.832-2.28,5.75-3.422C307.425,90.433,307.486,90.447,307.647,90.44Z" transform="translate(-298.299 -57.952)" fill="#ffc933"/>
      <path id="Tracé_9" data-name="Tracé 9" d="M355.708,111.954a2,2,0,0,0,.452-.822,6.4,6.4,0,0,1,4.482-3.807,3.814,3.814,0,0,1,.406-.065c1.573-.136,1.612-.1,1.612,1.472,0,1.322-.011,2.643.007,3.965,0,.381-.118.524-.506.567a9.541,9.541,0,0,0-1.383.215,6.285,6.285,0,0,0-4.758,5.236,13.56,13.56,0,0,0-.154,2.054c.011,2.92,0,5.836,0,8.755,0,.194-.007.384,0,.578.014.294-.079.442-.413.467-.391.025-.923-.219-1.142.165-.162.284,0,.747.018,1.131.057,1.788.118,3.573.165,5.362a2.946,2.946,0,0,0,.262,1.031,5.114,5.114,0,0,1,.305,2.273.863.863,0,0,1-.779.912.806.806,0,0,1-.955-.593,4.081,4.081,0,0,1-.3-1.609c0-2.532-.007-5.067-.011-7.6,0-.194-.018-.388,0-.578.032-.359-.14-.5-.478-.5-.715,0-1.433,0-2.148,0-.826,0-.833,0-.833-.783V108.471c0-.722.007-.729.718-.729,1.6,0,3.2-.007,4.794,0,.618,0,.625.014.628.646C355.712,109.545,355.708,110.7,355.708,111.954Z" transform="translate(-331.151 -68.7)" fill="#ffc933"/>
      <path id="Tracé_10" data-name="Tracé 10" d="M516.722,20.141a7.481,7.481,0,0,1,1.95-3,5.231,5.231,0,0,1,4.051-1.519c.772.05.783.065.783.812,0,1.541-.011,3.085.007,4.626,0,.417-.115.6-.553.6a5.506,5.506,0,0,0-2.173.442,6.283,6.283,0,0,0-4,5.333,14.509,14.509,0,0,0-.093,1.9c-.011,2.974,0,5.947-.007,8.924,0,.664-.007.672-.675.675-1.261,0-2.521,0-3.782,0a1.569,1.569,0,0,0,.194.848,9.031,9.031,0,0,1,.5,2.166,1.127,1.127,0,0,1-1.009,1.357c-.546.1-.97-.212-1.189-.9a3.338,3.338,0,0,1-.19-.97c-.014-1.178-.162-2.352-.169-3.527-.032-6.443-.014-12.889-.014-19.332a22.653,22.653,0,0,0-.2-4.037c-.032-.176-.226-.456.126-.542s.571.065.632.442c.05.3.136.589.2.883.176.783.176.783,1.006.783,1.185,0,2.37-.007,3.555,0,.88.007.858-.162.858.822v3.214A1.1,1.1,0,0,1,516.722,20.141Z" transform="translate(-434.018 -8.939)" fill="#010101"/>
      <path id="Tracé_11" data-name="Tracé 11" d="M605.061,103.792v13.884c0,.219-.011.442,0,.661.018.32-.126.435-.438.435q-2.726-.011-5.455,0c-.32,0-.449-.129-.434-.442.011-.194,0-.384,0-.578V89.822c0-1.124-.119-1.013,1.016-1.016q2.273-.005,4.547,0c.754,0,.761.007.761.776Q605.069,96.686,605.061,103.792Z" transform="translate(-490.837 -56.903)" fill="#ffc933"/>
      <path id="Tracé_12" data-name="Tracé 12" d="M455.4,211.528c-1.25.456-1.645-.3-1.9-1.174-.258-.068-.327.115-.427.226a3.353,3.353,0,0,1-3.875,1.063,3.675,3.675,0,0,1-2.456-3.322,4.764,4.764,0,0,1,1.878-4.432c.147-.122.3-.244.452-.363.521-.409.521-.409.255-1.049a4.753,4.753,0,0,1-.5-2.474,2.668,2.668,0,0,1,2.984-2.431,1.278,1.278,0,0,1,.165.014c1.322.309,1.279.119,1.128,1.53-.287-.1-.564-.226-.851-.309a1.625,1.625,0,0,0-2.227,1.724,3.318,3.318,0,0,0,.377,1.426c.923,1.814,1.871,3.616,2.808,5.419.036.072.083.144.255.1a12.127,12.127,0,0,0,.37-3.57c.083-.05.129-.1.176-.1,1.293-.032,1.038-.136,1.005,1.016a10.67,10.67,0,0,1-.718,3.624,1.159,1.159,0,0,0,.079,1.081C454.722,210.178,455.045,210.839,455.4,211.528Zm-5.293-7.463a3.877,3.877,0,0,0-2.011,4.453,2.427,2.427,0,0,0,2.769,2.119,2.868,2.868,0,0,0,1.709-1.07.552.552,0,0,0,.079-.729C451.8,207.269,450.965,205.689,450.1,204.066Z" transform="translate(-393.404 -126.605)" fill="#010101"/>
      <path id="Tracé_13" data-name="Tracé 13" d="M532.461,218.252c-.32.122-.413.338-.567.481a2.525,2.525,0,0,1-3.634-.018,4.679,4.679,0,0,1-1.35-2.686,6.592,6.592,0,0,1,.388-3.807,4.663,4.663,0,0,1,1.318-1.774,2.648,2.648,0,0,1,3.48.036c.1.086.2.18.3.262.266-.068.24-.3.312-.467.176-.4.517-.241.794-.233.341.007.248.305.248.5,0,3.225.007,6.446-.007,9.671a5.032,5.032,0,0,1-.169,1.225A3.486,3.486,0,0,1,529,223.916a2.833,2.833,0,0,1-.46-.18c-1.171-.636-1.207-.366-1.031-1.925.2-.04.269.154.4.237.3.19.582.42.9.585a2.292,2.292,0,0,0,3.559-1.595,2.575,2.575,0,0,0,.1-.567C532.468,219.761,532.461,219.05,532.461,218.252Zm.007-4.116h.011c0-.549,0-1.1,0-1.652a.767.767,0,0,0-.111-.549,2.076,2.076,0,0,0-3.117-.366,3.07,3.07,0,0,0-.826,1.314,6,6,0,0,0-.021,3.731,3.451,3.451,0,0,0,.485.952,1.763,1.763,0,0,0,2.988,0,3.166,3.166,0,0,0,.593-1.774C532.482,215.239,532.468,214.686,532.468,214.137Z" transform="translate(-444.737 -134.456)" fill="#010101"/>
      <path id="Tracé_14" data-name="Tracé 14" d="M390.77,211.075c1.246-1.609,3.243-1.832,4.338.144.151-.2.284-.4.435-.585a2.268,2.268,0,0,1,2.467-.736,2.038,2.038,0,0,1,1.508,1.785,5.65,5.65,0,0,1,.09.984c.007,2.04.011,4.076,0,6.116,0,.223.158.564-.162.646a3.091,3.091,0,0,1-.98.011c-.1-.007-.122-.162-.118-.277,0-.165,0-.33,0-.5v-5.62c0-.165,0-.33,0-.5-.014-.837-.312-1.361-.869-1.53a1.568,1.568,0,0,0-1.774.747,2.855,2.855,0,0,0-.517,1.706q.011,2.645,0,5.29c0,.226.147.575-.14.661a2.889,2.889,0,0,1-.98.014c-.122-.007-.147-.14-.147-.255,0-.194,0-.384,0-.578v-6.2c0-.582-.1-1.117-.722-1.358a1.613,1.613,0,0,0-1.724.5,3.107,3.107,0,0,0-.7,2.148c0,1.709,0,3.415-.007,5.125,0,.208.115.531-.111.6a3.062,3.062,0,0,1-.977.014c-.039,0-.093-.129-.1-.2a3.186,3.186,0,0,1-.011-.413c0-2.726,0-5.455,0-8.181,0-.2-.119-.51.133-.589a2.165,2.165,0,0,1,.819,0c.119.011.151.147.169.255C390.706,210.522,390.727,210.737,390.77,211.075Z" transform="translate(-356.768 -134.447)" fill="#010101"/>
      <path id="Tracé_15" data-name="Tracé 15" d="M510.652,218.54c.039,1.041-.341,1.336-1.318,1.128-.664-.14-.812-.668-1-1.279-.2.2-.363.359-.521.517a2.427,2.427,0,0,1-2.722.639,2.564,2.564,0,0,1-1.709-2.237,2.7,2.7,0,0,1,1.911-3.078,11.225,11.225,0,0,1,2.661-.539c.316-.032.427-.144.417-.456a2.743,2.743,0,0,0-.233-1.365,1.914,1.914,0,0,0-2.309-.769,5.567,5.567,0,0,0-.9.4c-.262.136-.51.305-.715.431-.133.011-.151-.025-.154-.1-.039-1.275-.039-1.278,1.124-1.717a4.615,4.615,0,0,1,.869-.248,2.846,2.846,0,0,1,3.584,3.009c.043,1.4.011,2.8.011,4.209,0,.194,0,.384,0,.578C509.654,218.522,509.711,218.576,510.652,218.54Zm-2.288-3.875a8.2,8.2,0,0,0-2.744.585,1.78,1.78,0,0,0-.794,2.4,1.666,1.666,0,0,0,2.259.736,2.228,2.228,0,0,0,1.113-1.372A8.049,8.049,0,0,0,508.364,214.665Z" transform="translate(-429.711 -134.457)" fill="#010101"/>
      <path id="Tracé_16" data-name="Tracé 16" d="M556.993,217.16c.072.108.093.126.1.147.061,1.279,0,1.386-1.149,1.961a3.512,3.512,0,0,1-5.11-1.867,6.608,6.608,0,0,1,.057-5.3,3.459,3.459,0,0,1,3.423-2.255,3.148,3.148,0,0,1,2.934,2.676,12.83,12.83,0,0,1,.144,1.393c.039.366-.122.474-.474.47-1.433-.014-2.866-.007-4.3-.007-1.009,0-1.009,0-.955,1.038a4.1,4.1,0,0,0,.51,1.893,2.361,2.361,0,0,0,3.185,1.034A6.316,6.316,0,0,0,556.993,217.16Zm-1.013-3.853c-.029-1.469-.754-2.327-1.885-2.313a2.352,2.352,0,0,0-2.191,2.313Z" transform="translate(-459.802 -134.474)" fill="#010101"/>
      <path id="Tracé_17" data-name="Tracé 17" d="M429.875,214.778a7.029,7.029,0,0,1-.654,2.945,3.361,3.361,0,0,1-3.739,1.928,3,3,0,0,1-1.954-1.268,5.622,5.622,0,0,1-1.009-3.01,6.387,6.387,0,0,1,.794-3.814,3.252,3.252,0,0,1,5.7-.1A6.159,6.159,0,0,1,429.875,214.778Zm-1.311-.061a4.83,4.83,0,0,0-.83-2.959,1.973,1.973,0,0,0-3.132.032,3.2,3.2,0,0,0-.485.948,6.835,6.835,0,0,0-.122,3.742,3.451,3.451,0,0,0,.628,1.332,1.917,1.917,0,0,0,2.841.248,2.825,2.825,0,0,0,.794-1.235A6.247,6.247,0,0,0,428.564,214.717Z" transform="translate(-377.895 -134.462)" fill="#010101"/>
      <path id="Tracé_18" data-name="Tracé 18" d="M325.882,210.381a1.425,1.425,0,0,1,.079.747q.005,3.927,0,7.85c0,.916.129.812-.848.819-.108,0-.212-.014-.392-.029v-1.12c-.309.287-.5.467-.686.639a2.615,2.615,0,0,1-2.686.607,2.364,2.364,0,0,1-1.609-2.022,4.861,4.861,0,0,1-.1-.815c-.007-2.04-.011-4.076,0-6.116,0-.194-.129-.492.169-.564a1.618,1.618,0,0,1,.977.025c.194.079.108.348.108.532q.006,2.769,0,5.538c0,.276,0,.549.011.826a1.458,1.458,0,0,0,.8,1.429,1.823,1.823,0,0,0,1.882-.208,2.558,2.558,0,0,0,.966-1.5,4.992,4.992,0,0,0,.158-1.307c-.011-1.544-.007-3.085,0-4.629,0-.837-.083-.729.758-.736C325.62,210.353,325.756,210.371,325.882,210.381Z" transform="translate(-311.958 -134.777)" fill="#010101"/>
      <path id="Tracé_19" data-name="Tracé 19" d="M575.982,211.27c.295-.312.456-.5.628-.668a2.657,2.657,0,0,1,2.744-.682A2.372,2.372,0,0,1,581,211.913a3.4,3.4,0,0,1,.072.736q.011,3.141,0,6.278c0,.542-.015.542-.625.539s-.628,0-.632-.549c-.007-1.871,0-3.746,0-5.617a7.048,7.048,0,0,0-.029-.826,1.587,1.587,0,0,0-2.622-1.156,2.71,2.71,0,0,0-1.074,1.7A7.043,7.043,0,0,0,576,214.5c0,1.487.007,2.974,0,4.46,0,.51-.018.492-.668.51-.391.011-.578-.05-.575-.524.025-2.808.014-5.617.011-8.425,0-.294-.007-.521.417-.517.661.007.7,0,.754.449C575.953,210.666,575.96,210.882,575.982,211.27Z" transform="translate(-475.469 -134.444)" fill="#010101"/>
      <path id="Tracé_20" data-name="Tracé 20" d="M602.745,211.86c-.3-.022-.47-.262-.7-.4a3.244,3.244,0,0,0-2.141-.435,1.784,1.784,0,0,0-1.189.679,1.146,1.146,0,0,0,.28,1.781,4.625,4.625,0,0,0,1.286.546,7.537,7.537,0,0,1,1.684.661,2.421,2.421,0,0,1,.442,4.076,3.874,3.874,0,0,1-3.789.79,3.807,3.807,0,0,1-.47-.158c-1.117-.438-1.146-.5-.963-1.832.291.18.56.356.837.51a3.337,3.337,0,0,0,2.46.424,2.073,2.073,0,0,0,1.181-.7,1.309,1.309,0,0,0-.345-2.051,6.087,6.087,0,0,0-1.375-.549,10.828,10.828,0,0,1-1.605-.639,2.313,2.313,0,0,1-.575-3.7,3.546,3.546,0,0,1,3.509-.891,1.93,1.93,0,0,1,.4.119C602.964,210.65,602.871,210.387,602.745,211.86Z" transform="translate(-489.781 -134.478)" fill="#010101"/>
      <path id="Tracé_21" data-name="Tracé 21" d="M367.7,217.523a5.4,5.4,0,0,0,2.241,1.027,2.634,2.634,0,0,0,1.957-.449,1.364,1.364,0,0,0-.215-2.453c-.4-.172-.815-.327-1.232-.463a10.664,10.664,0,0,1-1.6-.654,2.3,2.3,0,0,1-.567-3.649,3.537,3.537,0,0,1,3.494-.941,2.671,2.671,0,0,1,.316.1c1.293.417,1.293.417,1.235,1.781-.3.1-.431-.18-.618-.294a3.333,3.333,0,0,0-2.2-.517,1.9,1.9,0,0,0-.977.406,1.21,1.21,0,0,0,.158,2.151,6.926,6.926,0,0,0,1.537.585,5.627,5.627,0,0,1,1.5.668,2.355,2.355,0,0,1,.506,3.645,3.81,3.81,0,0,1-3.99,1.117,2.154,2.154,0,0,1-.391-.126C367.37,218.816,367.622,218.978,367.7,217.523Z" transform="translate(-342.73 -134.471)" fill="#010101"/>
      <path id="Tracé_22" data-name="Tracé 22" d="M479.21,210.5c-.409,1.318-.822,2.65-1.236,3.983-.51,1.652-1.031,3.3-1.515,4.963-.133.452-.431.413-.761.409s-.607.047-.747-.42c-.891-2.941-1.824-5.872-2.744-8.806a.582.582,0,0,1,0-.158.613.613,0,0,1,.162-.054c1.131-.072,1.131-.072,1.436,1.013q.835,2.974,1.674,5.947a1.7,1.7,0,0,0,.241.614,1.174,1.174,0,0,0,.273-.661q.846-3.1,1.7-6.195c.2-.736.2-.74.995-.725A.783.783,0,0,1,479.21,210.5Z" transform="translate(-409.747 -134.823)" fill="#010101"/>
      <path id="Tracé_23" data-name="Tracé 23" d="M307.9,213.723c.133,1.3.187,1.235-1.11,1.347-1.146.1-1.828-.589-1.846-1.814-.029-1.731-.007-3.466-.007-5.2,0-.165.007-.33,0-.5-.021-.327.126-.7-.072-.962s-.564-.09-.855-.1c-.435-.014-.363-.309-.377-.578-.014-.3,0-.514.413-.532.883-.036.883-.061.934-.919q.049-.9.1-1.81a1.129,1.129,0,0,1,.248-.068c1.038-.011.858-.054.873.88.007.467.029.937-.007,1.4s.165.575.571.531a5.071,5.071,0,0,1,.661,0c.546.014.549.018.542.549s-.011.517-.564.546c-.377.018-.848-.165-1.106.1s-.09.733-.09,1.11c-.011,1.677-.007,3.354,0,5.031,0,1.153.359,1.393,1.494,1.031C307.742,213.752,307.792,213.748,307.9,213.723Z" transform="translate(-301.716 -129.826)" fill="#010101"/>
      <path id="Tracé_24" data-name="Tracé 24" d="M345.046,211.277c.255-.309.417-.521.6-.718a2.045,2.045,0,0,1,1.763-.715c.711.061.786.133.786.833,0,.137-.011.269-.014.316-.05.158-.09.172-.151.158-1.645-.373-2.83.549-2.981,2.356-.05.6-.021,1.21-.021,1.814,0,1.235-.011,2.474.007,3.71,0,.363-.122.463-.47.47-.769.011-.776.029-.776-.743q-.005-4.04,0-8.084c0-.571.417-.83.959-.621a.261.261,0,0,1,.169.248C344.952,210.577,344.988,210.846,345.046,211.277Z" transform="translate(-327.448 -134.47)" fill="#010101"/>
      <path id="Tracé_25" data-name="Tracé 25" d="M360.668,215.119c0,1.4-.025,2.8.014,4.2.014.517-.241.51-.6.5-.657-.007-.679,0-.679-.5q-.011-4.2,0-8.407c0-.2-.1-.5.223-.524a1.559,1.559,0,0,1,.959.061c.151.09.076.305.076.463C360.671,212.314,360.668,213.715,360.668,215.119Z" transform="translate(-337.45 -134.796)" fill="#010101"/>
      <path id="Tracé_26" data-name="Tracé 26" d="M495.093,215.072c0-1.375-.007-2.747.007-4.123,0-.19-.133-.492.183-.549a2.044,2.044,0,0,1,.977.029c.05.014.079.137.09.215a3.887,3.887,0,0,1,.011.413c0,2.693,0,5.383-.007,8.077,0,.223.154.564-.158.646a2.355,2.355,0,0,1-.977.007c-.183-.032-.118-.277-.122-.434,0-1.153,0-2.309,0-3.462Z" transform="translate(-424.406 -134.803)" fill="#010101"/>
      <path id="Tracé_27" data-name="Tracé 27" d="M496.283,200a3.742,3.742,0,0,1-.115.646.624.624,0,0,1-.636.431.614.614,0,0,1-.625-.435,1.938,1.938,0,0,1-.05-1.21c.136-.47.334-.639.733-.618s.589.233.661.7C496.269,199.646,496.269,199.786,496.283,200Z" transform="translate(-424.22 -127.407)" fill="#010101"/>
    </g>
    <g id="Groupe_2" data-name="Groupe 2" transform="translate(729.882 -216.433)">
      <path id="Tracé_28" data-name="Tracé 28" d="M199.588,89.432l-.194-.269c.011-.169.169-.37.011-.5-.2-.165-.327.007-.374.194-.1.391-.223.578-.639.244-.233-.187-.535-.241-.233.244.115.183-.09.255-.241.366a14.042,14.042,0,0,0-2.564,2.069,69.2,69.2,0,0,0-12.2,21.853,57.639,57.639,0,0,1-5.527,11.736c-1.587,2.6-3.221,5.171-4.737,7.818a6.331,6.331,0,0,0-.7,4.152c.23,1.681,1.3,3.027,1.709,4.665a1.528,1.528,0,0,0,.945-1.562,15.855,15.855,0,0,1,.09-1.932,11.863,11.863,0,0,1,2.018-6.382,38.187,38.187,0,0,0,3.211-5.66c.725-1.44,1.573-2.816,2.37-4.216A11.522,11.522,0,0,0,183.952,118a11.132,11.132,0,0,1,1.329-4.062,17.468,17.468,0,0,0,1.045-2.356,74.378,74.378,0,0,1,4.96-11.072c2.334-4.044,5.2-7.563,9.607-9.585-.564-.858.23-1.638.09-2.546A12.671,12.671,0,0,1,199.588,89.432Zm-1.727-5.362c.061-.126.032-.237-.025-.223a.429.429,0,0,0-.23.18c-.05.072-.075.212.065.2C197.75,84.228,197.825,84.106,197.861,84.07Z" transform="translate(-110.299 -55.085)" fill="#010101"/>
      <path id="Tracé_29" data-name="Tracé 29" d="M101.183,54.932a18.328,18.328,0,0,1-2.108-6.726c-.492-3.157-.614-6.353-.887-9.535a2.1,2.1,0,0,1,.323-1.314,35.36,35.36,0,0,0,3.853-9.3,1.41,1.41,0,0,1,.61-1.067c.291-.162.212-.585.28-.894.1-.445-.251-.557-.542-.664-.341-.126-.359-.488-.646-.786a1.566,1.566,0,0,1-.431,1.325,4.08,4.08,0,0,0-.614,1.128,28.178,28.178,0,0,0-2.245,7.6,2.381,2.381,0,0,1-1.164,2.166,5.373,5.373,0,0,1-.255-1.681A27.934,27.934,0,0,1,98.08,29.1c.233-1.2.478-2.392.686-3.591a2.073,2.073,0,0,0-.427-2.094c-.327-.309.1-.363.291-.47a.562.562,0,0,0,.607.532.919.919,0,0,0-.223-.855c-.136.119-.262.23-.388.338-.09-.19-.176-.381-.316-.679a20.2,20.2,0,0,0-1.627,5.4,40.162,40.162,0,0,0-.119,9.761A80.7,80.7,0,0,0,98.719,48.73a12.272,12.272,0,0,1,.359,3.387c-.639-.3-.718-.887-.858-1.4a13.669,13.669,0,0,1-.3-2.453c-.043-.5-.2-.919-.851-.693a1.239,1.239,0,0,0-.266-1.063c-.557-1.192-1.1-2.392-1.67-3.577a15.776,15.776,0,0,1-1.419-8.583c.266-2.711.51-5.423.815-8.127.2-1.778.5-3.548.743-5.322.043-.316.068-.636.108-1.016-.582.172-.722,1.016-1.451.819-.061-.018-.223.251-.3.406-.2.381-.363.779-.557,1.16-.233.46-.359,1.056-1.142.668-.248-.122-.51.2-.7.42-.373.431-.725.88-1.164,1.411a16.494,16.494,0,0,0-.887-2.464c-.241-.56-.136-.672.449-.747.769-.1.8-.133.815-.923a5.553,5.553,0,0,0-.022-.646,1.572,1.572,0,0,1,.977-1.8,5.378,5.378,0,0,0,2.464-2.6,1.4,1.4,0,0,0,.4-.837c.068-.474-.248-.061-.377-.111.187-1.2.56-2.359.69-3.577.212-2,.32-4,.409-6.008a1.1,1.1,0,0,1,.6-1.11c.312-.162.618-.208.743-.022.194.287.158.883-.122.952-1.063.251-.754,1.041-.8,1.706-.108,1.5-.219,3-.316,4.5a7.551,7.551,0,0,0,.435,3.591,1.253,1.253,0,0,1-.057,1.135.561.561,0,0,0,.316.865,9.183,9.183,0,0,0,.862.431c.628.215.783.1.9-.582a43.174,43.174,0,0,1,2.891-8.745c.072.277.108.406.162.614a1.108,1.108,0,0,0,.388-1.041c0-.391.108-.919-.1-1.138-.18-.194-.628-.23-.955-.438-.506-.327-.374.478-.725.524-.241-.18-.054-.409-.065-.618a.564.564,0,0,0-.855-.51,2.3,2.3,0,0,1-.869.381c-.025,0-.057-.029-.086-.043a2.153,2.153,0,0,1,.7-1.756c.28.133.2.74.693.6a2.818,2.818,0,0,1,1.067.072,2.426,2.426,0,0,0,1.016-.251c.28.266-.014.664.323.959.23-.751,1.11.093,1.411-.8.079.582-.115.962.011,1.343.169.04.233-.093.32-.19.542-.6.524-.567,1.278-.19.248.126.5.5.923.165.262-.2.5.162.722.327.255.187.427.528.772.535.316.007.381-.4.65-.514a.721.721,0,0,1,.219,0c.04.352-.28.553-.366.844-.323.291-.2.984-.862.977-.23.144-.284.51-.628.51-.18-.237.09-.564-.2-.826-.356.244-.42.758-.84.916.007-.427-.1-.725-.614-.5a2.782,2.782,0,0,0-1.235,1.293,16.2,16.2,0,0,1-.905,1.8c-.083-.122-.158-.23-.287-.42-.514,1.907-1.243,3.681-1.6,5.563-.126.668-.2,1.343-.3,2.015-.029.208-.108.492.1.6a8.353,8.353,0,0,0,1.659.97c.406.108.585-.093.69-.456a12.355,12.355,0,0,1,1.709-3.563c.668-.973,1.375-1.921,2.094-2.859.259-.338.4-.844.98-.826a.206.206,0,0,0,.136-.327c-.442-.427-.014-.6.215-.837a4.1,4.1,0,0,0,1.149-1.383c-.614.09-.463-.632-.862-.758-.208.025-.23.2-.341.277s-.136.463-.327.151c-.115-.19-.567-.108-.4-.485.086-.194.208-.37.312-.553.259.043.492-.144.373-.316-.312-.463.176-.585.28-.862.223-.108.445-.223.675-.316.377-.151.4.122.438.377-.165.37-.646.582-.589,1.2a2.456,2.456,0,0,0,.779-.945c.255-.108.424.259.7.115.172-.09.273.011.2.194-.169.4.047.424.348.37a1.1,1.1,0,0,1,.988.3c.305.28.56.664,1.067.284.2-.147.291.108.388.241a2.347,2.347,0,0,1,.5,1.354c.488-.144.837-.528,1.35-.488.233.162-.029.294-.047.435-.043.323.054.492.406.424.19-.036.438-.2.391.208a2.889,2.889,0,0,0-.327.406c-.057.1.054.23.14.172.208-.136.5-.3.147-.593a7.083,7.083,0,0,1,1.875.287c.129.043.183.083.158.194-.054.248-.065.42.291.341.277-.065.585-.14.611.33.011.208.219.158.323.1.456-.269.5.266.751.388.194.1.158.165-.2.747.255.187.338-.183.51-.165.334.032-.007.37.187.478.154.086.356.259.47.215.366-.136.7.036,1.049.047.19.007-.029.488.474.593.452.093.855.532,1.469.672.133.37-.23.618-.3.955a3.15,3.15,0,0,0,1.39-.262c.226.23-.05.46-.007.668.068.154.19.122.284.093.391-.126,1.081-.119,1.085.072.018.758.923.546,1.045,1.113.029.14.194.172.345.072s.341-.352.531-.079c.108.154-.011.338-.093.5a4,4,0,0,0-.215.492.292.292,0,0,0,.115.373c.2.126.2-.115.309-.165s.3-.284.294-.083c-.025.707.5.169.743.381a2.6,2.6,0,0,0-.312,1.426c.657.007.751-.765,1.3-.855.248.373-.093.783.122,1.189.384-.1.28-.754.769-.725.158.248-.1.384-.147.578-.054.226-.007.352.259.223.054-.025.162-.032.187,0,.226.269.876.74,1.045.664.758-.334,1.092.481,1.7.611.776.165.654.98.679,1.6.359.043.51-.478.887-.266-.474.8-.679.948-1.871,1.372-.144-.255.194-.46.043-.776a4.2,4.2,0,0,0-1.465.4c-.086.029-.226.172-.215.194.517.93-.341.743-.743.9a.443.443,0,0,0-.316.37,2.345,2.345,0,0,1-.927,1.271,22.639,22.639,0,0,0-4.482,5.61,77,77,0,0,0-3.559,6.992,53.089,53.089,0,0,1-5.523,9.452,29.054,29.054,0,0,0-3.358,5.62,11.933,11.933,0,0,1-1.8,2.672c-.517.643-1.049,1.275-1.544,1.932a7.056,7.056,0,0,0-1.516,4.173q-.005.215-.022.431c0,.022-.05.036-.19.133-.819-1.361-1.957-2.517-2.46-4.069a5.587,5.587,0,0,1,.6-4.866,36.393,36.393,0,0,0,3.8-8.86c.043-.136.09-.273.129-.409a3.448,3.448,0,0,1,1.889-2.288,14.061,14.061,0,0,0,4.737-4.31,23.068,23.068,0,0,0,2.284-3.638,12.4,12.4,0,0,1,2.288-3.1c1.72-1.788,3.609-3.39,5.477-5.017a4.688,4.688,0,0,0,1.063-1.372c.287-.539.725-1.027.991-1.62.327-.725.478-1.6,1.429-1.871.219-.061.129-.219-.036-.37s.072-.4.043-.607a.8.8,0,0,0,.133-.158c.065-.111.194-.251.075-.363-.14-.129-.215.083-.323.129a.755.755,0,0,0-.165.122c-.294-.061-.46-.449-.887-.2-.614.345-1.444.2-1.857.909-.431-.373.237-.65-.118-.97-.251.4-.492.794-.751,1.178s-.481.783-1.056.79c-.345,0-.521.352-.725.6a92.626,92.626,0,0,0-9.88,14.2c-.381.69-.794,1.365-1.235,2.015a5.206,5.206,0,0,1-1.7,1.62c-.215.126-.47.456-.743.115-.2-.255-.6-.409-.435-.891.176-.506.259-1.041.406-1.559a29.882,29.882,0,0,1,4.9-9.625c1.652-2.219,3.509-4.266,5.333-6.342.876-1,1.727-2.015,2.6-3.02a2.456,2.456,0,0,0,.614-1.674.63.63,0,0,0-.255-.481c-.467-.452-.675-.075-.927.212-.2-.359.162-.56.144-.937-.294.158-.532.277-.761.406-.3.162-.564.32-.765-.158-.162-.388-.481-.273-.686-.036-.305.345-.557.74-.876,1.174-.093-.327.226-.639-.086-.865-.312.029-.341.33-.485.517-.363.488-.675,1.02-1.077,1.476a36.168,36.168,0,0,0-6.482,11.147,42.252,42.252,0,0,1-2.284,5.215,12.025,12.025,0,0,0-1.1,4.356,26.555,26.555,0,0,1-2.158,7.509,29.225,29.225,0,0,0-2.094,5.861,8.489,8.489,0,0,0-.176,3.728.138.138,0,0,0-.2.065,12.922,12.922,0,0,1-1.573-8.188,49.937,49.937,0,0,1,2.787-11.456c.575-1.735,1.167-3.458,1.727-5.2a9.093,9.093,0,0,1,1.009-2.011c1.023-1.638,2.209-3.193,2.528-5.175.022-.133.036-.305.237-.277.359.05.413-.2.463-.449.09-.424-.309-.126-.359-.23a.287.287,0,0,1,.284-.435c.855.219,1.271-.391,1.681-.894,1.207-1.469,2.359-2.981,3.534-4.475.086-1.311,1.3-1.975,1.767-3.074A2.487,2.487,0,0,0,118,14.4c-.373.043-.363.546-.779.546-.04-.3.316-.675-.115-.923-.345.043-.176.528-.575.607a1.865,1.865,0,0,0-.309-1.293c-3.383,1.386-7.312,7.1-7.427,10.871.284.147.578-.291.919.029a.923.923,0,0,0-.312,1.124c.1.352.054.643-.445.614a2.831,2.831,0,0,0-2.6,1.609,9.489,9.489,0,0,0-1.02,2.126,101.2,101.2,0,0,0-3.785,12.76,33.17,33.17,0,0,0-.772,9.506A9.6,9.6,0,0,0,101.4,54.8.241.241,0,0,0,101.183,54.932ZM109.292,11.6c-.377.23-.295,1.052-1.049.808-.025-.007-.122.158-.169.251-.783,1.577-1.828,3-2.679,4.536a13.139,13.139,0,0,0-1.336,3.5c-.1.449-.122.844.4,1.074.255.115.452.356.7.485.607.312.858.237,1.2-.377a22.515,22.515,0,0,1,3.2-4.31c1.293-1.393,2.614-2.762,3.925-4.141.409-.435.409-.435.33-1.189a.659.659,0,0,0-.887-.564,6.776,6.776,0,0,0-.808.528c-.338.226-.65.521-1.167.4a8.577,8.577,0,0,0,.618-.815c.1-.176.2-.449-.011-.589s-.356-.452-.725-.237a5.474,5.474,0,0,1-1.006.359C109.511,11.129,109.4,11.356,109.292,11.6Z" transform="translate(-57.079 -3.76)" fill="#010101"/>
      <path id="Tracé_30" data-name="Tracé 30" d="M156.5,92.633c-3.545,4.169-5.189,9.158-6.217,14.595-1.279-1.878-2.765-3.433-3.229-5.577a5.663,5.663,0,0,1,1.76-5.947,22.342,22.342,0,0,0,4.485-5.746c1.609-2.758,3.318-5.452,5-8.159a49.952,49.952,0,0,0,4.6-8.982,19.655,19.655,0,0,1,3.893-6.148c.833-.941,1.684-1.864,2.532-2.79a1.106,1.106,0,0,0,.427-.923c-.054-.5.316-.851.6-1.221a7.124,7.124,0,0,0,1.386-2.155c.147-.467.632-.668,1.045-.865s.4.409.819.456c.435.05.632.291.966.194a1,1,0,0,1,.093.628c-.014.312.09.431.431.431a.625.625,0,0,1,.668.682.678.678,0,0,1-.729.743,1.729,1.729,0,0,0-1.408.848,4.685,4.685,0,0,1-1.979,1.767c-.187.068-.255.244-.352.391-1.02,1.559-2.047,3.117-3.056,4.683a18.264,18.264,0,0,0-2.306,5.186,73.868,73.868,0,0,1-3.221,8.77,53.231,53.231,0,0,0-2.557,7.635,22.325,22.325,0,0,1-2.446,5.714c-.93,1.656-1.893,3.3-2.794,4.967a16.63,16.63,0,0,0-1.9,5.229,10.2,10.2,0,0,0,.007,3.433c.348-.057.28-.312.32-.481a28.1,28.1,0,0,1,2.92-7.258c1.3-2.313,2.65-4.6,3.986-6.888a38.57,38.57,0,0,0,3.3-7.1,29.459,29.459,0,0,1,2.428-5.5,19.769,19.769,0,0,0,2.611-7.678c.043-.356.158-.7.226-1.049a3,3,0,0,1,1.954-2.385,7.09,7.09,0,0,0,3.537-3.164,30.219,30.219,0,0,0,1.63-2.654,13.029,13.029,0,0,0,1.074-2.683c-.542.381-.718.995-1.375,1.325.126-.628.654-.952.765-1.555-.549.255-.84.758-1.573.9a6.757,6.757,0,0,0,1.034-2.087,2.788,2.788,0,0,1,1.4-1.562c.151-.072.327-.187.488-.014.115.119.068.269.04.406a3.556,3.556,0,0,1-.144.517c-.129.338-.072.456.316.356.359-.093.144.743.668.442.345.521.919.417,1.4.463.054.248-.187.33-.219.575a6.058,6.058,0,0,1,1.372-.014c.406.086.905.054.783.711.815.74.233,1.275-.259,1.842a3.76,3.76,0,0,1-1.365,1.268c-.18-.327.19-.4.158-.618-.05-.057-.108-.047-.18.007a34.742,34.742,0,0,0-5.771,5.62,16.753,16.753,0,0,0-2.108,3.365c-1.059,2.277-2.209,4.507-3.476,6.673a74.584,74.584,0,0,0-4.173,8.838A200.69,200.69,0,0,1,153.964,113.3a1.7,1.7,0,0,0-.065,1.9,2.546,2.546,0,0,1,.355,1.34c-.007.542-.269.754-.833.718-.693-.043-1.006-.327-.952-.862a.584.584,0,0,1,.039-.212c.686-1.253.158-2.417-.248-3.6-.133-.391-.341-.808.018-1.217.169-.194.018-.413-.025-.614a15.252,15.252,0,0,1,.8-8.558c.639-1.753,1.437-3.437,2.148-5.157A13.878,13.878,0,0,0,156.5,92.633ZM170.57,62.082a3.689,3.689,0,0,0,1.67-1.871A4.518,4.518,0,0,0,170.57,62.082Zm7.843.223c-.528.122-.549.442-.984.661C178.058,62.955,178.195,62.721,178.414,62.3Z" transform="translate(-94.116 -38.954)" fill="#010101"/>
      <path id="Tracé_31" data-name="Tracé 31" d="M3.045,134.825c-.718.215-.772.208-.711-.32a2.45,2.45,0,0,0-.323-1.437,9.177,9.177,0,0,1-.453-.973c-.312-.858-.183-.995.826-.9.032,0,.036.093.119.011a4.68,4.68,0,0,0,.356-3.9,4.287,4.287,0,0,1,.029,1.771,3.16,3.16,0,0,1-.646,1.228c-.4.417-.88.988-1.433.751-.524-.226-.305-.937-.269-1.458a8.537,8.537,0,0,1,.384-1.67,3.473,3.473,0,0,0,.46-1.232,1.986,1.986,0,0,0-.693.93c-.215.266-.277.65-.69.833a14.5,14.5,0,0,1,1.128-4.687,23.26,23.26,0,0,1,2.061-3.756c.88-1.347,1.8-2.668,2.579-4.08.158-.287.277-.578.718-.381.323.144.406-.208.549-.388.862-1.1,1.713-2.2,2.564-3.293.083,0,.169,0,.251.007a16.721,16.721,0,0,0-2.342,3.559c.352-.05.312-.492.654-.442.129.4-.273.729-.126,1.178.463-.718.905-1.4,1.34-2.1.014-.025-.065-.108-.1-.162l.061-.011c.542-.075.632-.682,1.056-.9.057.093.111.19.169.284a7.721,7.721,0,0,0-2.438,4.058c-.119.463-.725.945-.09,1.465-.6.521-.093,1.289-.424,1.867a.557.557,0,0,1-.269.3c-.808.338-.876.5-.672,1.5.147-.136.28-.244.4-.37a16.422,16.422,0,0,0,1.483-2.1c1.257-1.871,2.252-2.273,4.374-1.62a21.83,21.83,0,0,1,7.8,4.381,4.245,4.245,0,0,1,1.311,1.8c.129.4.025.848.255,1.228.014.786,0,1.573.057,2.356a2.048,2.048,0,0,0,.977,1.709,26.2,26.2,0,0,1-.83-4.13c-.061-.384-.119-.769-.18-1.149a13.889,13.889,0,0,0-1.961-5.3,3.811,3.811,0,0,0-2.467-1.756c-.384-.086-.772-.144-1.16-.226a9.93,9.93,0,0,1-3.225-.74,2.8,2.8,0,0,0-2.482-.133,5.588,5.588,0,0,0-2.252,1.605,1.735,1.735,0,0,1-.83.672,23.654,23.654,0,0,0,1.343-3,1.6,1.6,0,0,1,1.182-.97,13.39,13.39,0,0,1,6.5.011,6.608,6.608,0,0,1,4.55,3.3c.474.883.988,1.745,1.451,2.632a23.671,23.671,0,0,0,2.036,3.408c.334.352.043.8.19,1.182.047.463.1.927.136,1.39a3.435,3.435,0,0,1-.136,2.008c-.287.514-.219.819.488,1.067-1.1.4-2.029.772-2.977,1.07-.751.237-.848.165-1.3-.542a19.779,19.779,0,0,1-1.472-3.1,16.487,16.487,0,0,0-1.792-3.541,2.555,2.555,0,0,0-1.519-1.092,13.1,13.1,0,0,1-2.74-1.232A12.042,12.042,0,0,0,11.3,120.28a2.646,2.646,0,0,0-2.324.528,8.228,8.228,0,0,0-1.9,2.237c.887.33.646,1.164.883,1.9a1.175,1.175,0,0,1,1.562.783c.1.3.37.284.632.262a3.426,3.426,0,0,0,1.318-.438c.6-.327,1.189-.668,1.792-.977a3.6,3.6,0,0,1,4.04.391,7.3,7.3,0,0,1,1.81,2.112,40.356,40.356,0,0,1,2.079,4.245c.1.2.2.445-.068.549-.578.223-1.013.686-1.573.923-.618.266-.779.2-1.067-.435-.373-.815-.718-1.641-1.1-2.453a7.8,7.8,0,0,0-1.261-1.993,3.282,3.282,0,0,0-3.135-1.149,12.011,12.011,0,0,1-1.4.057,1.891,1.891,0,0,0-1.462.575c.37.28.725.147,1.067.136a2.494,2.494,0,0,1,1.462.172c.4.233.894-.043,1.343-.075a1.616,1.616,0,0,1,1.483.643,8.808,8.808,0,0,1,1.921,3.444c.373,1.44.147,1.972-1.131,2.726-.208.122-.348.226-.255.492.068.194.036.417.391.291.237-.083.244.14.19.341a3.465,3.465,0,0,1-1.742,2.219,13.3,13.3,0,0,1-2.115.772c-.413.144-1.052-.043-1.156.661,0,.036-.136.093-.18.075-.449-.183-.84-.19-1.113.287-.8-.291-1.458.194-2.158.435-.291.1-.521.2-.747-.122a7.452,7.452,0,0,0-1.9-1.559c-.248-.176-.891-.309-.259-.808.075-.057.065-.154-.014-.169-.93-.187-.223-.869-.356-1.357-.539.23-.445.729-.618,1.077-.111.223-.269.575-.5.427s-.664-.356-.438-.826c.215-.452.384-.93.625-1.365.312-.564-.083-.718-.431-1.024-.176.531.083.97-.115,1.375-.072.144-.212.241-.327.129-.068-.068-.022-.259-.025-.391C3.2,135.212,3.394,135.022,3.045,134.825Zm5.832-8.949a.334.334,0,0,0-.334-.327c-.248-.025-.614-.215-.636.28-.007.158-.061.409.219.366C8.389,126.155,8.72,126.216,8.878,125.875Zm.9,1.458c-.312-.079-.542-.14-.772-.2-.1-.029-.212-.05-.266.072a.288.288,0,0,0,.119.366C9.151,127.753,9.445,127.768,9.779,127.333Z" transform="translate(0 -73.051)" fill="#010101"/>
      <path id="Tracé_32" data-name="Tracé 32" d="M28.95,67.089c.481-.718,1.149-1.275,1.691-1.943a1.114,1.114,0,0,1,.751-.373,27.664,27.664,0,0,1,7.71-.481c2.945.377,2.693.147,3.943,2.866A41.7,41.7,0,0,1,45,73.744a18.339,18.339,0,0,0,1.573,4.216A2.27,2.27,0,0,0,47.4,79c.3-.244.079-.4-.036-.56-.226-.323-.47-.632-.686-.959-.162-.241-.259-.431.215-.424.391.007.244-.37.248-.582a17.28,17.28,0,0,0-.506-4.047A57.128,57.128,0,0,0,44.5,65.9a29.208,29.208,0,0,1-1.738-6.418,11.969,11.969,0,0,1,.029-3.322c.122-.786.2-1.523,1.059-1.954a1.939,1.939,0,0,0,.779-1.368,7.421,7.421,0,0,1,1.735-3.29,2.8,2.8,0,0,0,.639-2.9c-.226-.715-.456-1.433-.707-2.14a10.218,10.218,0,0,1-.517-1.86,2.877,2.877,0,0,1,.639-2.417,1.817,1.817,0,0,1,.7,1.731,17.631,17.631,0,0,0,.549,5.114,6.563,6.563,0,0,1-1.846,6.507,19.163,19.163,0,0,0-1.5,1.691,3.706,3.706,0,0,0-.733,3.627c.549,1.821,1.253,3.584,1.975,5.337a91.009,91.009,0,0,1,3.408,8.817c.133.445.255.894.381,1.343.133.478.212.962.722,1.25.28.158.37.517.506.808.151.32.23.686.672.887a2.219,2.219,0,0,0-.129-2.061,12.532,12.532,0,0,1-1.332-4.511,27.117,27.117,0,0,0-2.675-8.242,15.185,15.185,0,0,1-1.58-4.213,3.311,3.311,0,0,1,.478-2.683c.431.273.521.758.7,1.164A58.456,58.456,0,0,1,49.1,63.925c.37,1.235.751,2.467,1.117,3.7a12.419,12.419,0,0,0,2.3,4.338A7.108,7.108,0,0,1,54.11,74.62a1.245,1.245,0,0,0,1.214.9,7.647,7.647,0,0,0,1.717-.1c.356-.05.711-.1,1.067-.115.237-.011.549-.09.679.172.165.33-.029.625-.251.869a2.674,2.674,0,0,1-1.239.614c-.323.1-.442-.162-.557-.381-.266-.5-.607-.571-1.031-.194-.262.233-.639.334-.848.725.287.241.758.122.988.456-1.077.962-1.817,1.027-2.64.233.111-.352.542-.255.8-.6-.718-.043-1.171-.733-2.14-.528.628.251.449.941,1.031,1.088a.167.167,0,0,1,.014.32c-.679.33-.4.589.043.865a1.14,1.14,0,0,1,.237.32,1.828,1.828,0,0,1-.873.467.859.859,0,0,1-1.131-.327,2.291,2.291,0,0,0-.506-.546c-.341-.259-.535-.176-.535.3,0,.413-.2.478-.514.506a2.151,2.151,0,0,1-1.584-.542c-.136-.108-.294-.259-.456-.061s.036.312.136.445.4.19.348.373c-.266.98.47.9,1.034,1.024a.457.457,0,0,1,.359.2,7.244,7.244,0,0,1-3.936,1.516c-.758-.039-.826-.108-.962-.851-.147-.812-.312-1.62-.47-2.424a5.073,5.073,0,0,0-.3-1.239c-.8-3.555-1.846-7.057-2.385-10.67a.741.741,0,0,0-.98-.675,19.9,19.9,0,0,1-5.347-.022c-2.022-.154-4.08-.442-5.979.636A3.267,3.267,0,0,0,28.95,67.089Z" transform="translate(-18.553 -27.133)" fill="#010101"/>
      <path id="Tracé_33" data-name="Tracé 33" d="M98.325,82.222a3.332,3.332,0,0,1,.553,1.587,1.6,1.6,0,0,1-.639,1.49c-.614.478-.865.478-1.494-.025a11.733,11.733,0,0,0-2.065-1.106l.032.029c.165-.061.215-.18.126-.323-.2-.334-.42-.668-.639-.991A17.333,17.333,0,0,1,91.035,71.84a40.568,40.568,0,0,1,1.731-10.35,10.381,10.381,0,0,1,1.893-3.66,7.792,7.792,0,0,1-.057,2.112c-.3,2.388-.98,4.694-1.5,7.032a23.653,23.653,0,0,0-.611,4.141A10.828,10.828,0,0,0,93.5,76.336q1.207,2.516,2.521,4.981a4.779,4.779,0,0,0,1.857,2.108c.014-1.318-1.25-2.173-1.189-3.584.593.4.776.995,1.142,1.429Z" transform="translate(-58.322 -38.412)" fill="#010101"/>
      <path id="Tracé_34" data-name="Tracé 34" d="M88.494,10.294c.122-.42.294-.761.833-.535.144.237.144.6.557.664a1.359,1.359,0,0,0-.316-.995c.043-.4.3-.812-.187-1.135a.376.376,0,0,1-.068-.492c.061-.111.158-.262.323-.108s.029.984.628.312a.944.944,0,0,1,.126.277,26.458,26.458,0,0,1,.187,5.642,4.283,4.283,0,0,1-.427,1.415c-.086.065-.169.136-.255.2.054-.46-.388-.517-.636-.761.079-.083.144-.162.219-.23.582-.524.582-.521-.169-.786a4.318,4.318,0,0,1-.4-.187,2.449,2.449,0,0,1-.061.341c-.108.327.359.589.129.909s-.6.119-.909.158c-.154.018-.316.083-.33.223-.057.6-.359.2-.585.169-.3-.04-.6-.725-.919-.018-.083.18-.165.029-.23-.029a1.169,1.169,0,0,1-.129-.169c-.546-.686-.546-.686-1.268-.219a6.051,6.051,0,0,1-.74-3.412c.018-.208-.029-.542.2-.557.772-.05.815-.84,1.379-1.282a5.06,5.06,0,0,0,.923,1.408c.119.133.241.287.136.478s-.162.341.111.373c.208.025.542-.014.5-.255-.147-.848.316-1.857-.69-2.492-.453-.287-.427-.413-.33-1.332.348-.1.334.467.736.356.23-.384-.054-.883.2-1.379a1.909,1.909,0,0,0,1.5.18c-.287.445-.047,1.085-.772.747-.119-.054-.266.047-.244.108.187.542-.316,1.171.269,1.681a2.9,2.9,0,0,1,.478.934c.115.248.172.567.56.506a.216.216,0,0,0,.147-.136C89.04,10.492,88.627,10.51,88.494,10.294Zm-.086,1.62c-.391-.054-.743-.025-.589.506a1.976,1.976,0,0,0,.449,1,1.658,1.658,0,0,0,.9-.758c.417-.65.413-.643-.309-1.077C88.429,11.328,88.415,11.608,88.407,11.914Z" transform="translate(-53.734 -5.74)" fill="#010101"/>
      <path id="Tracé_35" data-name="Tracé 35" d="M49.763,78.626a2.022,2.022,0,0,0-1.171,1.189.847.847,0,0,1-.98.718,5.086,5.086,0,0,0-1.645.212c-.312-.28-.007-.614-.2-.858-.054.007-.136-.011-.165.022a1.119,1.119,0,0,1-1.454.3c-.5-.269-.5.111-.7.514-.158-.88-.442-1.566.381-2.2.46-.356.312-1.07.4-1.612a1.266,1.266,0,0,1,1-1.1,5.01,5.01,0,0,1,2.862.111c.715.169,1.426.532,1.76-.532.521.478.377,1.138.826,1.5a.2.2,0,0,1,0,.284,2.586,2.586,0,0,0-.223,1.871c.072,1.207-.2,1.465-1.526,1.447.032-.747.833-.945,1.081-1.519.122-.169.226-.373.032-.528C49.9,78.324,49.827,78.514,49.763,78.626Z" transform="translate(-27.727 -49.666)" fill="#010101"/>
      <path id="Tracé_36" data-name="Tracé 36" d="M58.57,45.236c-.086-.23-.219-.233-.4-.093a5.182,5.182,0,0,0-1.551,1.878c-.417.909-.7,1.867-1.052,2.8a5.813,5.813,0,0,1-1.045,1.972,3.07,3.07,0,0,1,.108-1.307,15.31,15.31,0,0,1,1.221-3.527c.1-.2.348-.381.18-.664l-.018.011c.119.054.183,0,.241-.1a32.761,32.761,0,0,1,4.949-6.17c.054-.057.18-.108.086-.316a5.88,5.88,0,0,0-.643,1.271c.176.294.316-.047.521.1a3.452,3.452,0,0,0,.327,3.372,3.406,3.406,0,0,1-.215,3.832,11.841,11.841,0,0,0-1.415,3.458,3.1,3.1,0,0,1-1.444,2.061,4.091,4.091,0,0,1,.029-3.085,12.918,12.918,0,0,1,1.278-2.6,5.681,5.681,0,0,0,.815-4.712,10.39,10.39,0,0,1-.2-1.541,2.362,2.362,0,0,0-.693,1.031,15.882,15.882,0,0,1-1.117,1.832c-.122.165-.305.345.014.5Z" transform="translate(-34.921 -26.806)" fill="#010101"/>
      <path id="Tracé_37" data-name="Tracé 37" d="M42.345,44.881c-.251-.273-.363-.036-.456.144-.438.858-.866,1.724-1.293,2.589-.4.8-.783,1.6-1.182,2.413a4.472,4.472,0,0,1,.718-2.755c.42-.848.887-1.674,1.271-2.55a1.84,1.84,0,0,0-.715.822A50.687,50.687,0,0,0,38.1,50.595c-.172.359-.057,1.146-.891.966-.029-.007-.108.165-.144.262-.984,2.525-2.13,4.978-3.247,7.445l.032.043c-.341.057-.352.4-.514.607-.068-.072-.136-.144-.2-.219C34.1,57.864,34.8,55.91,35.6,54a14.576,14.576,0,0,1,1.724-3.559C38.47,49,39.088,47.287,40.122,45.8s2.187-2.923,3.286-4.378c.23-.305.557-.56.625-.973-1.383-.4-1.383-.4-2.036-1.088a4.424,4.424,0,0,0,1.336-1.512c.158-.338.4-.356.7-.334a7.822,7.822,0,0,1,3,.761,3.976,3.976,0,0,1-.955.887,18.975,18.975,0,0,0-3.868,5.24c-.1.18-.244.391.111.481C42.327,44.892,42.345,44.881,42.345,44.881Z" transform="translate(-21.232 -25.391)" fill="#010101"/>
      <path id="Tracé_38" data-name="Tracé 38" d="M84.462,74.492a6.543,6.543,0,0,1-1.411-2.751,15,15,0,0,1-.388-5.538c.154-1.817.435-3.62.668-5.43a.591.591,0,0,1,.287-.514C84.735,64.907,84.549,69.583,84.462,74.492Z" transform="translate(-52.92 -39.969)" fill="#010101"/>
      <path id="Tracé_39" data-name="Tracé 39" d="M37.6,94.727a6.907,6.907,0,0,1,2.737-.474,8.725,8.725,0,0,0,4.011-.535c.28-.136.409.018.481.23a2.064,2.064,0,0,1-.287,1.939.868.868,0,0,1-.758.309,5.8,5.8,0,0,1-1.911-.269,4.658,4.658,0,0,0-3.049.233,2.957,2.957,0,0,1-2.058.4c-.348-.108-.564.251-.819.431s-.521.381-.772.582c-.129.1-.309.136-.384.032-.119-.162.011-.33.133-.467q.619-.975,1.246-1.954c.075-.154.359-.259.119-.492l.047.014c.37.086.435-.28.643-.427.435.535-.345.74-.312,1.21C36.994,95.226,37.3,94.975,37.6,94.727Z" transform="translate(-22.27 -61.379)" fill="#010101"/>
      <path id="Tracé_40" data-name="Tracé 40" d="M148.116,43.861c-.219-.05-.478-.093-.327-.467.079-.2.119-.413.194-.611a16.341,16.341,0,0,1,4.593-6.493c.431-.377.661-.2.955.126a.37.37,0,0,1,.025.557c-.2.251-.391.51-.585.765-.3.388-.707.715-.646,1.3.014.115-.108.259-.19.37q-1.541,1.993-3.092,3.976A.953.953,0,0,1,148.116,43.861Z" transform="translate(-94.686 -24.471)" fill="#010101"/>
      <path id="Tracé_41" data-name="Tracé 41" d="M169.826,46.819c-1.677,1.914-3.322,3.764-4.934,5.638-.56.654-1.077.176-1.595.111-.129-.28.043-.417.14-.539a45.1,45.1,0,0,1,3.146-4.274c.251-.251.424-.578.855-.571.277.007.438-.212.625-.377C168.778,46.184,168.828,46.187,169.826,46.819Z" transform="translate(-104.623 -31.05)" fill="#010101"/>
      <path id="Tracé_42" data-name="Tracé 42" d="M109.217,12.094c.786-.083,1.462-.083,1.943.621.111.162.435.176.693.273a67.037,67.037,0,0,0-2.374,6.73,4.112,4.112,0,0,1-.625-2.744C108.937,15.37,109.088,13.772,109.217,12.094Z" transform="translate(-69.753 -9.078)" fill="#010101"/>
      <path id="Tracé_43" data-name="Tracé 43" d="M74.832,4.13a1.359,1.359,0,0,0,.761,1.124c.37.23.241.6-.014.625-.47.047-.445.356-.5.625A20.208,20.208,0,0,1,73.755,9.88c-.126.327-.391.37-.528.04-.2-.488-.438-.28-.725-.133-.373.194-.251.442-.122.711.1.2.4.381.136.643a2.242,2.242,0,0,1-.445.284c-.194-.431-.909-.212-.98-.786-.05-.4-.427-.887.316-1.081.119-.029.23-.284.248-.445a.654.654,0,0,1,.571-.65c.557-.133.733-.654.916-1.11.266-.661.463-1.347.711-2.018A1.847,1.847,0,0,1,74.832,4.13Z" transform="translate(-45.47 -3.997)" fill="#010101"/>
      <path id="Tracé_44" data-name="Tracé 44" d="M214.72,76.15a1.481,1.481,0,0,0,1.623.747,29.765,29.765,0,0,1-2.884,4.3c-.56.607-.693.575-1.289.029-.891-.815-.891-.815-.2-1.842.42-.625.876-1.228,1.239-1.882A2.891,2.891,0,0,1,214.72,76.15Z" transform="translate(-135.529 -50.153)" fill="#010101"/>
      <path id="Tracé_45" data-name="Tracé 45" d="M75.75,24.88c.707-.136.966-1.124,1.788-1.48a7.835,7.835,0,0,0,.664,2.421c.187.4.417.8.891.837.948.065.373.84.6,1.243.259.452-.269.341-.47.46-.751.449-.887,1.106-.463,2.255.061.162.215.312.018.463a.518.518,0,0,1-.3.047c-.241-.007-.273-.183-.273-.37a2.506,2.506,0,0,0-.65-1.871c-.14-.144-.108-.28-.05-.474a2.213,2.213,0,0,0-.765-2.3A12.168,12.168,0,0,1,75.75,24.88Z" transform="translate(-48.546 -16.347)" fill="#010101"/>
      <path id="Tracé_46" data-name="Tracé 46" d="M70.054,28.158a1.013,1.013,0,0,1-1.566.406,4.318,4.318,0,0,0-2.654-.244,10.911,10.911,0,0,0-.065-3.175c.241-.338.618-.014.9-.19,0-.237-.273-.4-.172-.675.122-.341.284-.377.611-.14.352.259-.043.14-.075.208-.151.323-.413.557,0,1.013a4.118,4.118,0,0,0,1.347,1.052A3.386,3.386,0,0,1,70.054,28.158Z" transform="translate(-42.15 -16.723)" fill="#010101"/>
      <path id="Tracé_47" data-name="Tracé 47" d="M229.165,86.76a1.564,1.564,0,0,1-.327,2.072,5.711,5.711,0,0,0-.506.693,5.961,5.961,0,0,1-3.15,2.618c-.277.083-.409.654-.769.3-.388-.377.083-.643.255-.9a19.854,19.854,0,0,1,2.04-2.485A28.873,28.873,0,0,1,229.165,86.76Z" transform="translate(-143.725 -56.952)" fill="#010101"/>
      <path id="Tracé_48" data-name="Tracé 48" d="M23.17,141.825a2.1,2.1,0,0,1,.553-.973c.309-.427.582-.851.086-1.325a.177.177,0,0,1-.014-.273.186.186,0,0,1,.28-.04c.578.729,1.49.593,2.234.887.431.172.858.356,1.293.524.611.241,1.228.492,1.735-.194.255.352.19.524-.122.643a31.687,31.687,0,0,1-3.993,1.235c-.251.061-.417.068-.492-.32-.162-.8-.463-.88-1.192-.452C23.454,141.588,23.382,141.66,23.17,141.825Z" transform="translate(-14.849 -90.538)" fill="#010101"/>
      <path id="Tracé_49" data-name="Tracé 49" d="M187.074,57.559a9.69,9.69,0,0,1-1.379,2.5,18.16,18.16,0,0,1-1.63,1.875.991.991,0,0,1-1.476.19,4.28,4.28,0,0,0-.488-.244c.858-1.056,1.681-2.072,2.507-3.088C185.612,58.784,185.964,57.451,187.074,57.559Z" transform="translate(-116.703 -38.234)" fill="#010101"/>
      <path id="Tracé_50" data-name="Tracé 50" d="M61.247,53.358c.675-.036.621-.883,1.16-.988-1.045,3.861-2.187,6.716-3.717,7.351a10.807,10.807,0,0,1,.941-3.168,16.445,16.445,0,0,1,1.516-2.711c.093-.14.377-.269.115-.5C61.261,53.343,61.247,53.358,61.247,53.358Z" transform="translate(-37.613 -34.913)" fill="#010101"/>
      <path id="Tracé_51" data-name="Tracé 51" d="M197.47,70.57c1.013-1.566,2.55-2.521,3.692-3.94A2.666,2.666,0,0,1,200.178,69c-.51.5-.97,1.045-1.451,1.569C198.2,71.137,198.2,71.133,197.47,70.57Z" transform="translate(-126.553 -44.052)" fill="#010101"/>
      <path id="Tracé_52" data-name="Tracé 52" d="M54.066,101.26a5.437,5.437,0,0,1,.427,1.641,18.094,18.094,0,0,0-6.723-.672,2.372,2.372,0,0,1,2.543-.187,7.131,7.131,0,0,0,2.744.036C53.441,102.068,53.631,101.576,54.066,101.26Z" transform="translate(-30.615 -66.245)" fill="#010101"/>
      <path id="Tracé_53" data-name="Tracé 53" d="M90.03,63.27a6.622,6.622,0,0,1,.075,5.538C89.865,67.03,90.421,65.249,90.03,63.27Z" transform="translate(-57.698 -41.898)" fill="#010101"/>
      <path id="Tracé_54" data-name="Tracé 54" d="M85.326,52.132c-.916-1.239-2.543-2.194-1.555-4.392A36.359,36.359,0,0,0,85.326,52.132Z" transform="translate(-53.489 -31.946)" fill="#010101"/>
      <path id="Tracé_55" data-name="Tracé 55" d="M89.985,34.257c.136-.646-.223-1.052-.356-1.519-.039-.136-.057-.305.079-.388.305-.18.2.158.277.255a.315.315,0,0,0,.363.14c.19-.057.093-.215.068-.345-.05-.255,0-.424.312-.363.223.043.571-.029.478.37C91.037,33.119,90.943,33.891,89.985,34.257Z" transform="translate(-57.423 -21.874)" fill="#010101"/>
      <path id="Tracé_56" data-name="Tracé 56" d="M87.271,40.595c.323-.352.237-.833.765-.9.05.528-.2,1.081.115,1.616-.542-.32-1.246-.341-1.458-1.049-.04-.133-.111-.305.061-.373.259-.1.255.126.309.287A3.46,3.46,0,0,0,87.271,40.595Z" transform="translate(-55.528 -26.787)" fill="#010101"/>
      <path id="Tracé_57" data-name="Tracé 57" d="M94.07,37.545c.312-.553.819-.973.948-1.612a.29.29,0,0,1,.241-.154c.086.014.165.126.23.208.165.215.054.391-.079.578A2.7,2.7,0,0,1,94.07,37.545Z" transform="translate(-60.287 -24.279)" fill="#010101"/>
      <path id="Tracé_58" data-name="Tracé 58" d="M99.862,130.792c.176.553.844.855.794,1.516a5.42,5.42,0,0,1-1.566-1.627c.334-.33.51.273.8.14A.262.262,0,0,1,99.862,130.792Z" transform="translate(-63.504 -85.036)" fill="#010101"/>
      <path id="Tracé_59" data-name="Tracé 59" d="M26.916,109.626l.014,0c.223-.093.352-.348.693-.363-.682,1.07-1.7,1.788-2.421,2.758a.239.239,0,0,0-.133-.144c.341-.539.887-.937,1.088-1.573l.011-.011C26.546,110.208,26.7,109.881,26.916,109.626Z" transform="translate(-16.067 -71.372)" fill="#010101"/>
      <path id="Tracé_60" data-name="Tracé 60" d="M87.6,46.98c.269.068.409.093.542.136.456.151.212.532.255.815.025.165-.1.259-.266.237-.334-.043-.323-.33-.381-.567C87.708,47.433,87.668,47.264,87.6,46.98Z" transform="translate(-56.141 -31.459)" fill="#010101"/>
      <path id="Tracé_61" data-name="Tracé 61" d="M88.26,6.908c.151-.187.294-.381.46-.557a.307.307,0,0,1,.366-.111c.172.093.183.284.2.456.022.262-.172.251-.348.251a.6.6,0,0,0-.47.18A.26.26,0,0,0,88.26,6.908Z" transform="translate(-56.563 -5.331)" fill="#010101"/>
      <path id="Tracé_62" data-name="Tracé 62" d="M100.043,30.695c.086-.068.169-.14.255-.2.061.46-.255.733-.618,1.25C99.741,31.2,99.755,30.91,100.043,30.695Z" transform="translate(-63.882 -20.891)" fill="#010101"/>
      <path id="Tracé_63" data-name="Tracé 63" d="M122.81,146.065a.162.162,0,0,1,.212-.093,3.4,3.4,0,0,1,.391,1.038C123.094,146.636,122.853,146.421,122.81,146.065Z" transform="translate(-78.706 -94.893)" fill="#010101"/>
      <path id="Tracé_64" data-name="Tracé 64" d="M78.761,79.433c-.56-.33-.406-.564.007-.783A.945.945,0,0,1,78.761,79.433Z" transform="translate(-50.242 -51.755)" fill="#010101"/>
      <path id="Tracé_65" data-name="Tracé 65" d="M88.08,8.15a.273.273,0,0,1,.208.215c.061.165-.065.334-.154.287C87.915,8.545,87.958,8.333,88.08,8.15Z" transform="translate(-56.383 -6.573)" fill="#010101"/>
      <path id="Tracé_66" data-name="Tracé 66" d="M24.484,116.684c.05.086.05.226.2.208l-.061.011c-.348-.162-.356.4-.679.312a.815.815,0,0,1,.4-.675A.22.22,0,0,1,24.484,116.684Z" transform="translate(-15.348 -76.038)" fill="#010101"/>
      <path id="Tracé_67" data-name="Tracé 67" d="M102.027,34.05c-.036.23-.072.463-.108.693C101.546,34.449,101.891,34.265,102.027,34.05Z" transform="translate(-65.21 -23.172)" fill="#010101"/>
      <path id="Tracé_68" data-name="Tracé 68" d="M8.474,175.77c.348.194.151.384,0,.575C8.47,176.151,8.474,175.96,8.474,175.77Z" transform="translate(-5.428 -113.997)" fill="#010101"/>
      <path id="Tracé_69" data-name="Tracé 69" d="M129.35,153.88a.145.145,0,0,1,.2-.065c.079.09.079.226.007.262C129.39,154.157,129.372,154,129.35,153.88Z" transform="translate(-82.897 -99.914)" fill="#010101"/>
      <path id="Tracé_70" data-name="Tracé 70" d="M199.61,97.516a14.374,14.374,0,0,0,1.408-1.056c.14.909-.654,1.688-.09,2.546-4.407,2.025-7.272,5.541-9.607,9.585a74.373,74.373,0,0,0-4.96,11.072,17.669,17.669,0,0,1-1.045,2.356,11.178,11.178,0,0,0-1.329,4.062,11.524,11.524,0,0,1-1.422,4.252c-.8,1.4-1.645,2.78-2.37,4.216a38.844,38.844,0,0,1-3.211,5.66,11.833,11.833,0,0,0-2.018,6.382,15.864,15.864,0,0,0-.09,1.932,1.533,1.533,0,0,1-.944,1.562c-.409-1.638-1.48-2.984-1.709-4.665a6.287,6.287,0,0,1,.7-4.152c1.512-2.647,3.15-5.218,4.737-7.818a57.637,57.637,0,0,0,5.527-11.736,69.092,69.092,0,0,1,12.2-21.853,13.922,13.922,0,0,1,2.564-2.069c.147-.115.355-.183.241-.366-.3-.481,0-.431.233-.244.417.334.539.147.639-.244.047-.187.176-.356.373-.194.158.129,0,.33-.011.5-.176.18-.406.338-.284.661A1.021,1.021,0,0,0,199.61,97.516Z" transform="translate(-110.321 -63.169)" fill="#010101"/>
      <path id="Tracé_71" data-name="Tracé 71" d="M121.955,28.145c.374-.754.69-1.469,1.07-2.151a34.935,34.935,0,0,1,2.844-4.026,4.564,4.564,0,0,0,.729-1.282.546.546,0,0,0-.09-.636,1.23,1.23,0,0,0-2.122.2c-.2.42-.384.848-.585,1.264s-.672.636-.812,1.117a40.681,40.681,0,0,0-1.25,4.543C121.693,27.466,121.52,27.8,121.955,28.145Z" transform="translate(-77.973 -13.87)" fill="#010101"/>
      <path id="Tracé_72" data-name="Tracé 72" d="M31.44,103.906c-.029.022-.057.043-.083.065-.022-.029-.061-.061-.057-.086s.05-.043.079-.065C31.4,103.849,31.418,103.877,31.44,103.906Z" transform="translate(-20.059 -67.886)" fill="#010101"/>
      <path id="Tracé_73" data-name="Tracé 73" d="M30.37,105.013c.075-.086.14-.269.28-.108.122.136-.05.223-.122.316C30.474,105.153,30.42,105.085,30.37,105.013Z" transform="translate(-19.463 -68.54)" fill="#010101"/>
      <path id="Tracé_74" data-name="Tracé 74" d="M29.8,105.553a.277.277,0,0,1,.2-.233c.054.068.1.136.158.208-.057.057-.119.115-.176.172C29.926,105.654,29.861,105.6,29.8,105.553Z" transform="translate(-19.098 -68.847)" fill="#010101"/>
      <path id="Tracé_75" data-name="Tracé 75" d="M247.719,98.919a1,1,0,0,1-.478.391c-.119-.323.108-.481.284-.661Z" transform="translate(-158.429 -64.572)" fill="#010101"/>
      <path id="Tracé_76" data-name="Tracé 76" d="M145.67,25.174c.147-.14.291-.284.438-.424a.486.486,0,0,1-.187.65C145.634,25.63,145.731,25.285,145.67,25.174Z" transform="translate(-93.356 -17.212)" fill="#010101"/>
      <path id="Tracé_77" data-name="Tracé 77" d="M121.95,28.15c-.438-.341-.266-.679-.215-.966a40.681,40.681,0,0,1,1.25-4.543c.14-.478.611-.7.812-1.117s.384-.848.585-1.264a1.233,1.233,0,0,1,2.122-.2.549.549,0,0,1,.09.636,4.564,4.564,0,0,1-.729,1.282A34.93,34.93,0,0,0,123.02,26C122.643,26.681,122.324,27.4,121.95,28.15Z" transform="translate(-77.968 -13.874)" fill="#010101"/>
      <path id="Tracé_78" data-name="Tracé 78" d="M52.6,117.507c.808,0,1.616.036,2.421-.011.524-.029.614.259.6.646a2.95,2.95,0,0,1-.51,1.379A13.646,13.646,0,0,0,52.6,117.507Z" transform="translate(-33.71 -76.649)" fill="#010101"/>
      <path id="Tracé_79" data-name="Tracé 79" d="M96.423,20.84c.2.212.409.42.611.632C96.552,21.53,96.329,21.339,96.423,20.84Z" transform="translate(-61.781 -14.706)" fill="#010101"/>
    </g>
  </g>
</svg>
