<svg xmlns="http://www.w3.org/2000/svg" width="352" height="89.158" viewBox="0 0 352 89.158">
  <g id="Groupe_215" data-name="Groupe 215" transform="translate(-46.97 -78.851)">
    <g id="Groupe_211" data-name="Groupe 211" transform="translate(158.055 99.675)">
      <path id="Tracé_197" data-name="Tracé 197" d="M350.412,127.5l.471-.58a7.889,7.889,0,0,1,8.492-2.542,6.386,6.386,0,0,1,3.49,2.551,11.652,11.652,0,0,1,1.926,4.748,23.56,23.56,0,0,1-.4,10.656c-.082.3-.2.587-.3.879-2.1,5.9-9.047,6.256-12.58,3.207a10.547,10.547,0,0,1-1.327-1.439,14.87,14.87,0,0,0-.375,2.462c-.055.392-.173.525-.57.521q-2.46-.027-4.92,0c-.384,0-.6-.074-.536-.508a3.765,3.765,0,0,0,0-.508v-28.74c0-1.005,0-1.005,1.047-1.005,1.612,0,3.224,0,4.835,0,.59,0,.6.013.6.606q.007,4.409,0,8.817v.83Zm-.268,8.81c.045.729.077,1.718.175,2.7a7.054,7.054,0,0,0,.658,2.525,3.3,3.3,0,0,0,2.119,1.812,3.782,3.782,0,0,0,5-3.083,25,25,0,0,0,.245-6.5,9.524,9.524,0,0,0-.457-2.662,3.577,3.577,0,0,0-3.573-2.475,3.442,3.442,0,0,0-3.509,2.408,7.394,7.394,0,0,0-.34,1.219A25.509,25.509,0,0,0,350.144,136.311Z" transform="translate(-293.695 -117.202)" fill="#010101"/>
      <path id="Tracé_198" data-name="Tracé 198" d="M439.29,139.517c0-1.03.009-2.018,0-3.006a2.389,2.389,0,0,0-1.627-2.343,4.987,4.987,0,0,0-1.562-.355,14.144,14.144,0,0,0-7.1,1.212c-.1.047-.207.08-.368.141-.182-1.109-.346-2.188-.544-3.261-.073-.4.175-.484.441-.586a22.267,22.267,0,0,1,5.658-1.381,17.792,17.792,0,0,1,5.319.123c3.9.761,5.681,3.3,6.041,6.842a16.927,16.927,0,0,1,.06,1.694q.007,7.119,0,14.239a3.344,3.344,0,0,0,0,.424c.05.4-.156.461-.5.458-1.611-.012-3.223-.021-4.834.005-.421.006-.525-.161-.564-.53-.08-.757-.2-1.511-.3-2.263a.165.165,0,0,0-.22.047,6.967,6.967,0,0,1-4.479,2.813,10.058,10.058,0,0,1-5.194-.207,6.155,6.155,0,0,1-4.442-5.159,10.685,10.685,0,0,1,.011-4.627,7.565,7.565,0,0,1,5.693-5.687,10.594,10.594,0,0,1,5.037-.2,6.871,6.871,0,0,1,3.044,1.406A.53.53,0,0,0,439.29,139.517Zm-7.861,6.017c.017.338.016.678.053,1.015a3.364,3.364,0,0,0,3.359,3.269,6.793,6.793,0,0,0,1.354-.026,3.164,3.164,0,0,0,2.907-2.547,7.434,7.434,0,0,0-.042-3.69,3.215,3.215,0,0,0-2.74-2.548,5.394,5.394,0,0,0-2.187.075,3.184,3.184,0,0,0-2.312,2.04A6.287,6.287,0,0,0,431.429,145.534Z" transform="translate(-330.741 -122.959)" fill="#010101"/>
      <path id="Tracé_199" data-name="Tracé 199" d="M312.543,148.489c.283.99.524,1.947.836,2.88.154.46,0,.652-.384.847a18.454,18.454,0,0,1-8.929,1.932,14.256,14.256,0,0,1-3.437-.449,9.393,9.393,0,0,1-6.809-6.267,16.2,16.2,0,0,1,.15-11.288,9.679,9.679,0,0,1,8.9-6.5,14.542,14.542,0,0,1,4.386.247c3.888.877,6.123,3.384,7.04,7.179a24.237,24.237,0,0,1,.4,5.648c0,.317-.1.477-.44.451-.2-.015-.4,0-.594,0H300.43c-.2,0-.4.009-.593,0-.257-.012-.342.111-.338.355a7.6,7.6,0,0,0,1.127,4.278,5.215,5.215,0,0,0,4.278,2.209,15.294,15.294,0,0,0,6.77-1.257A1.932,1.932,0,0,1,312.543,148.489Zm-8.458-8.693h.339q1.866,0,3.732,0c.25,0,.547.049.5-.362a10.362,10.362,0,0,0-1.077-4.147,3.487,3.487,0,0,0-2.322-1.839,4.028,4.028,0,0,0-4.9,2.328,10.407,10.407,0,0,0-.8,3.446c-.051.551-.028.567.537.571C301.427,139.8,302.756,139.8,304.085,139.8Z" transform="translate(-270.438 -122.862)" fill="#010101"/>
      <path id="Tracé_200" data-name="Tracé 200" d="M263.468,134.854h-2.481q-4.283,0-8.567,0c-.693,0-.7-.008-.7-.689-.006-.961-.008-1.922,0-2.882,0-.578.016-.588.621-.589q5.938,0,11.875,0c1.894,0,3.788,0,5.683,0,.595,0,.6.011.608.6.007,1.3-.017,2.6.012,3.9a1.649,1.649,0,0,1-.472,1.205q-5.573,6.333-11.121,12.687c-.2.225-.384.458-.633.754a2.509,2.509,0,0,0,.99.093q5.344.007,10.687,0c.17,0,.339,0,.509,0,.628.015.634.016.637.665,0,.989-.024,1.979.013,2.966.017.471-.164.6-.586.557a2.95,2.95,0,0,0-.339,0q-8.906,0-17.812,0c-.928,0-.822.113-.825-.8,0-1.215.024-2.431-.012-3.645a1.88,1.88,0,0,1,.5-1.368q5.393-6.319,10.759-12.662C262.992,135.436,263.164,135.222,263.468,134.854Z" transform="translate(-251.551 -123.366)" fill="#010101"/>
      <path id="Tracé_201" data-name="Tracé 201" d="M399.934,133.009a7.657,7.657,0,0,1,2-3.079,5.365,5.365,0,0,1,4.157-1.559c.793.053.8.067.8.831,0,1.582-.011,3.165.009,4.747.005.427-.117.615-.567.612a5.681,5.681,0,0,0-2.229.452,6.441,6.441,0,0,0-4.1,5.473,15.278,15.278,0,0,0-.1,1.945c-.01,3.052,0,6.1-.005,9.155,0,.683-.009.689-.691.691-1.293,0-2.587,0-3.879,0a1.619,1.619,0,0,0,.2.869,9.355,9.355,0,0,1,.514,2.221,1.153,1.153,0,0,1-1.035,1.391c-.559.1-.994-.216-1.22-.926a3.477,3.477,0,0,1-.2-.993c-.014-1.209-.167-2.415-.173-3.618-.031-6.612-.015-13.224-.016-19.836a23.39,23.39,0,0,0-.206-4.142c-.033-.18-.232-.466.128-.557s.585.067.649.452c.052.305.14.6.208.907.18.8.179.8,1.03.8,1.216,0,2.431-.006,3.647,0,.9.006.881-.167.881.843v3.3Z" transform="translate(-316.25 -121.525)" fill="#010101"/>
    </g>
    <g id="Groupe_212" data-name="Groupe 212" transform="translate(281.77 99.593)">
      <path id="Tracé_202" data-name="Tracé 202" d="M558.075,150.677c-2.739,3.194-6.112,3.7-9.85,2.712a5.776,5.776,0,0,1-4.2-4.161,10.751,10.751,0,0,1-.249-5.608,7.307,7.307,0,0,1,4.734-5.364,10.505,10.505,0,0,1,6.654-.36,7.074,7.074,0,0,1,2.655,1.44c.274-.119.155-.349.158-.52q.02-1.187,0-2.374a2.469,2.469,0,0,0-1.922-2.567,8.476,8.476,0,0,0-2.936-.308,14.5,14.5,0,0,0-5.412,1.257,1.664,1.664,0,0,1-.368.073c-.285-1.057-.345-2.131-.557-3.176-.077-.374.168-.481.451-.591a21.527,21.527,0,0,1,5.156-1.324,18.777,18.777,0,0,1,5.24-.035c2.782.431,4.964,1.67,6.029,4.425a9.05,9.05,0,0,1,.6,2.806c.032.62.031,1.243.032,1.865q0,6.784,0,13.568c0,.113,0,.226,0,.339-.01.749-.01.756-.729.76-1.188.005-2.376.017-3.564-.006-.5-.01-1.108.229-1.457-.142-.3-.324-.2-.914-.256-1.391C558.236,151.581,558.155,151.172,558.075,150.677Zm-.1-5.334c0-.2.011-.4,0-.592-.171-2.483-1.321-4.179-4.355-3.971a3.394,3.394,0,0,0-3.256,2.6,7.738,7.738,0,0,0-.14,3.276,3.2,3.2,0,0,0,2.683,2.891,5.939,5.939,0,0,0,2.355,0,3.12,3.12,0,0,0,2.523-2.445A5.139,5.139,0,0,0,557.971,145.343Z" transform="translate(-508.698 -122.786)" fill="#ffc933"/>
      <path id="Tracé_203" data-name="Tracé 203" d="M648.277,142.953h-6.53c-.2,0-.4.008-.594,0-.36-.015-.53.149-.494.509a10.263,10.263,0,0,0,.716,3.377,4.922,4.922,0,0,0,3.749,2.859,12.309,12.309,0,0,0,5.771-.454,16.216,16.216,0,0,0,2.31-.825c.377-.171.557-.092.66.322.206.82.421,1.643.7,2.44.161.463,0,.654-.384.847a17.506,17.506,0,0,1-4.961,1.656,17.917,17.917,0,0,1-6.575.017,9.569,9.569,0,0,1-7.869-7.183,16.26,16.26,0,0,1,.417-10.641,9.7,9.7,0,0,1,8.623-6.4,14.117,14.117,0,0,1,5.2.381,8.545,8.545,0,0,1,6.058,5.654,19.189,19.189,0,0,1,.813,7.024c0,.281-.124.416-.406.412-.2,0-.4,0-.594,0Zm-3.022-3.381c1.326,0,2.653.008,3.98,0,.567,0,.59-.024.56-.575a9.269,9.269,0,0,0-.9-3.667,3.708,3.708,0,0,0-3.525-2.2,3.831,3.831,0,0,0-3.618,2.077,8.858,8.858,0,0,0-.967,3.648c-.052.706-.03.719.662.724C642.715,139.579,643.986,139.573,645.256,139.572Z" transform="translate(-550.088 -122.691)" fill="#ffc933"/>
      <path id="Tracé_204" data-name="Tracé 204" d="M587.036,130.623a1.087,1.087,0,0,1,.659-.083q2.715-.008,5.43,0c.8,0,.8,0,1.077.731q2.557,6.822,5.11,13.646c.1.262.207.522.333.84a3.492,3.492,0,0,0,.581-1.144q2.756-6.653,5.5-13.313c.314-.76.318-.76,1.163-.761h4.17a1.332,1.332,0,0,1-.229.9q-4.7,10.935-9.411,21.87a.914.914,0,0,1-1.005.661c-1.1-.04-2.206-.01-3.309-.013-.742,0-.748,0-1.031-.7q-2.992-7.381-5.98-14.763c-.944-2.33-1.892-4.658-2.825-6.992C587.155,131.224,586.951,130.957,587.036,130.623Z" transform="translate(-528.578 -123.21)" fill="#ffc933"/>
      <path id="Tracé_205" data-name="Tracé 205" d="M488.984,118.165v5.214c0,.255,0,.509,0,.763.009.734.01.74.747.743,1.188,0,2.376.016,3.564-.006.437-.008.6.135.585.58q-.039,1.482,0,2.967c.012.454-.172.585-.6.578-1.187-.017-2.376-.011-3.563,0-.715,0-.731.015-.732.7q-.007,5.681.008,11.363a7.6,7.6,0,0,0,.151,1.345,2.253,2.253,0,0,0,2.206,1.98,6.562,6.562,0,0,0,2.359-.129c.412-.123.614-.02.715.429.155.687.4,1.355.583,2.035.182.66.144.724-.528,1a10.7,10.7,0,0,1-2.877.68,13.566,13.566,0,0,1-3.554.009,6.084,6.084,0,0,1-5.025-4.266,9.754,9.754,0,0,1-.549-3.411c.009-3.561,0-7.123,0-10.685,0-.2-.007-.4,0-.593.01-.325-.16-.454-.468-.454-.679,0-1.358-.011-2.037,0-.364.007-.589-.07-.58-.509.02-1.045.016-2.092,0-3.137-.005-.384.174-.48.518-.473.707.014,1.414,0,2.121.006.327,0,.452-.132.447-.453-.011-.678,0-1.357,0-2.035a.7.7,0,0,1,.339-.707c1.971-1.164,3.933-2.342,5.9-3.512C488.757,118.158,488.821,118.174,488.984,118.165Z" transform="translate(-479.394 -117.56)" fill="#ffc933"/>
      <path id="Tracé_206" data-name="Tracé 206" d="M520.491,134.415a2.015,2.015,0,0,0,.464-.843,6.573,6.573,0,0,1,4.6-3.907,3.522,3.522,0,0,1,.418-.065c1.612-.138,1.655-.1,1.655,1.511,0,1.356-.012,2.712.006,4.068,0,.391-.12.538-.519.582a10.268,10.268,0,0,0-1.42.222,6.453,6.453,0,0,0-4.883,5.373,13.756,13.756,0,0,0-.157,2.108c.01,2.995,0,5.989,0,8.983,0,.2-.009.4,0,.593.016.3-.082.455-.424.478-.4.028-.947-.226-1.171.171-.164.291,0,.767.017,1.16.06,1.834.123,3.668.169,5.5a3,3,0,0,0,.269,1.059,5.212,5.212,0,0,1,.312,2.331.885.885,0,0,1-.8.935.831.831,0,0,1-.982-.61,4.16,4.16,0,0,1-.308-1.649c0-2.6-.005-5.2-.01-7.8,0-.2-.017-.4,0-.593.034-.368-.144-.514-.488-.514q-1.1,0-2.205,0c-.847,0-.853,0-.853-.805q0-10.932,0-21.865c0-.739.008-.746.737-.748q2.459-.007,4.918,0c.633,0,.642.014.646.665C520.5,131.942,520.491,133.128,520.491,134.415Z" transform="translate(-495.294 -122.763)" fill="#ffc933"/>
      <path id="Tracé_207" data-name="Tracé 207" d="M689.766,132.432v14.243c0,.226-.011.453,0,.678.017.326-.13.447-.451.446q-2.8-.011-5.6,0c-.327,0-.462-.132-.444-.452.011-.2,0-.4,0-.593q0-14.328,0-28.656c0-1.154-.123-1.039,1.043-1.043q2.333-.008,4.666,0c.774,0,.781.008.781.8Q689.768,125.141,689.766,132.432Z" transform="translate(-572.568 -117.05)" fill="#ffc933"/>
    </g>
    <g id="Groupe_213" data-name="Groupe 213" transform="translate(158.85 136.66)">
      <path id="Tracé_208" data-name="Tracé 208" d="M359.022,199.645c-1.284.469-1.688-.306-1.954-1.205-.266-.071-.336.117-.439.233a3.439,3.439,0,0,1-3.977,1.09,3.774,3.774,0,0,1-2.522-3.409,4.893,4.893,0,0,1,1.928-4.548q.229-.189.463-.371c.535-.42.535-.419.26-1.077a4.875,4.875,0,0,1-.513-2.539,2.738,2.738,0,0,1,3.063-2.493,1.156,1.156,0,0,1,.168.015c1.356.318,1.312.121,1.157,1.568-.294-.108-.578-.232-.873-.317a1.667,1.667,0,0,0-2.284,1.769,3.4,3.4,0,0,0,.386,1.462c.949,1.86,1.919,3.709,2.883,5.561.037.072.086.148.262.1a12.409,12.409,0,0,0,.381-3.661c.086-.05.134-.1.182-.1,1.328-.032,1.063-.141,1.031,1.044a10.859,10.859,0,0,1-.738,3.719,1.185,1.185,0,0,0,.081,1.111C358.327,198.258,358.661,198.94,359.022,199.645Zm-5.433-7.656a3.979,3.979,0,0,0-2.063,4.571,2.491,2.491,0,0,0,2.841,2.174,2.938,2.938,0,0,0,1.753-1.1.568.568,0,0,0,.079-.749C355.331,195.274,354.475,193.654,353.589,191.988Z" transform="translate(-297.382 -185.315)" fill="#010101"/>
      <path id="Tracé_209" data-name="Tracé 209" d="M410.265,202.286c-.328.127-.424.345-.583.494a2.586,2.586,0,0,1-3.728-.02,4.8,4.8,0,0,1-1.387-2.755,6.758,6.758,0,0,1,.4-3.907,4.772,4.772,0,0,1,1.353-1.819,2.718,2.718,0,0,1,3.572.039c.108.089.21.185.3.268.271-.071.245-.311.32-.478.182-.4.532-.247.814-.241.352.007.253.314.253.517,0,3.308.008,6.616-.007,9.923a5.131,5.131,0,0,1-.174,1.257,3.579,3.579,0,0,1-4.7,2.537,2.862,2.862,0,0,1-.472-.185c-1.2-.651-1.238-.375-1.058-1.976.206-.039.276.157.409.242.309.2.6.431.921.6a2.351,2.351,0,0,0,3.651-1.635,2.585,2.585,0,0,0,.1-.582C410.272,203.835,410.265,203.106,410.265,202.286Zm0-4.222h.01c0-.565,0-1.13,0-1.695a.811.811,0,0,0-.113-.566,2.131,2.131,0,0,0-3.2-.377,3.152,3.152,0,0,0-.848,1.349,6.152,6.152,0,0,0-.022,3.83,3.55,3.55,0,0,0,.5.975,1.806,1.806,0,0,0,3.065,0,3.23,3.23,0,0,0,.606-1.821C410.287,199.2,410.27,198.629,410.27,198.065Z" transform="translate(-322.224 -189.115)" fill="#010101"/>
      <path id="Tracé_210" data-name="Tracé 210" d="M312.571,194.93c1.28-1.651,3.327-1.879,4.45.147.153-.208.289-.412.445-.6a2.328,2.328,0,0,1,2.531-.756,2.089,2.089,0,0,1,1.548,1.83,5.736,5.736,0,0,1,.094,1.01q.013,3.137,0,6.275c0,.227.161.579-.167.665a3.114,3.114,0,0,1-1.007.011c-.107-.009-.124-.167-.122-.284,0-.169,0-.339,0-.509v-5.766c0-.169,0-.339,0-.509-.016-.857-.322-1.394-.892-1.571a1.608,1.608,0,0,0-1.819.767,2.918,2.918,0,0,0-.529,1.752q.012,2.713,0,5.427c0,.233.15.588-.143.679a2.979,2.979,0,0,1-1.006.015c-.127-.007-.152-.144-.153-.26,0-.2,0-.4,0-.593q0-3.18,0-6.359c0-.6-.107-1.145-.741-1.391a1.657,1.657,0,0,0-1.77.513,3.189,3.189,0,0,0-.719,2.2c0,1.752,0,3.5-.007,5.257,0,.213.12.546-.116.616a3.083,3.083,0,0,1-1,.014c-.04,0-.094-.131-.1-.206a3.238,3.238,0,0,1-.01-.424q0-4.2,0-8.395c0-.21-.121-.522.136-.6a2.2,2.2,0,0,1,.838,0c.121.011.156.149.173.262C312.505,194.363,312.528,194.583,312.571,194.93Z" transform="translate(-279.652 -189.111)" fill="#010101"/>
      <path id="Tracé_211" data-name="Tracé 211" d="M396.034,202.585c.041,1.069-.35,1.37-1.353,1.158-.681-.144-.835-.685-1.026-1.312-.206.205-.371.368-.534.532a2.489,2.489,0,0,1-2.793.656,2.633,2.633,0,0,1-1.755-2.295,2.763,2.763,0,0,1,1.961-3.156,11.507,11.507,0,0,1,2.729-.553c.325-.035.438-.147.428-.466a2.8,2.8,0,0,0-.239-1.4,1.964,1.964,0,0,0-2.371-.79,5.831,5.831,0,0,0-.923.413c-.27.14-.524.313-.734.441-.136.01-.155-.025-.157-.1-.039-1.307-.041-1.312,1.152-1.761a4.648,4.648,0,0,1,.891-.256,2.922,2.922,0,0,1,3.679,3.089c.043,1.438.01,2.878.011,4.317,0,.2,0,.4,0,.592C395.011,202.568,395.069,202.621,396.034,202.585Zm-2.347-3.974a8.378,8.378,0,0,0-2.815.6,1.83,1.83,0,0,0-.816,2.464,1.707,1.707,0,0,0,2.319.754,2.29,2.29,0,0,0,1.141-1.408A8.255,8.255,0,0,0,393.687,198.611Z" transform="translate(-314.954 -189.117)" fill="#010101"/>
      <path id="Tracé_212" data-name="Tracé 212" d="M427.266,201.159c.073.11.1.13.1.15.064,1.311,0,1.423-1.177,2.013a3.6,3.6,0,0,1-5.244-1.918,6.771,6.771,0,0,1,.06-5.438,3.545,3.545,0,0,1,3.513-2.314,3.231,3.231,0,0,1,3.012,2.745,13.544,13.544,0,0,1,.147,1.431c.042.374-.123.486-.485.483-1.47-.015-2.94-.007-4.41-.006-1.036,0-1.034,0-.981,1.066a4.208,4.208,0,0,0,.524,1.943,2.422,2.422,0,0,0,3.268,1.059A6.59,6.59,0,0,0,427.266,201.159Zm-1.039-3.955c-.028-1.506-.775-2.388-1.934-2.374a2.415,2.415,0,0,0-2.249,2.374Z" transform="translate(-329.514 -189.124)" fill="#010101"/>
      <path id="Tracé_213" data-name="Tracé 213" d="M341.25,198.719a7.234,7.234,0,0,1-.671,3.023,3.447,3.447,0,0,1-3.835,1.978,3.087,3.087,0,0,1-2.005-1.3,5.751,5.751,0,0,1-1.034-3.087,6.559,6.559,0,0,1,.816-3.914,3.338,3.338,0,0,1,5.849-.1A6.4,6.4,0,0,1,341.25,198.719Zm-1.346-.061a4.958,4.958,0,0,0-.851-3.034,2.023,2.023,0,0,0-3.212.033,3.356,3.356,0,0,0-.5.973,7,7,0,0,0-.126,3.838,3.58,3.58,0,0,0,.645,1.367,1.965,1.965,0,0,0,2.914.255,2.874,2.874,0,0,0,.813-1.266A6.424,6.424,0,0,0,339.9,198.658Z" transform="translate(-289.881 -189.118)" fill="#010101"/>
      <path id="Tracé_214" data-name="Tracé 214" d="M270.3,194.044a1.481,1.481,0,0,1,.083.768q.007,4.028,0,8.056c0,.938.131.834-.869.842-.109,0-.218-.015-.4-.028v-1.15c-.316.3-.508.478-.7.658a2.675,2.675,0,0,1-2.756.623,2.418,2.418,0,0,1-1.65-2.074,4.876,4.876,0,0,1-.1-.838q-.014-3.137,0-6.275c0-.2-.134-.506.174-.577a1.685,1.685,0,0,1,1,.024c.2.081.111.356.111.546q.007,2.841,0,5.682c0,.282,0,.565.01.848a1.5,1.5,0,0,0,.824,1.466,1.877,1.877,0,0,0,1.93-.213,2.62,2.62,0,0,0,.991-1.534,5.149,5.149,0,0,0,.164-1.342c-.011-1.583-.007-3.166,0-4.748,0-.86-.085-.747.779-.756C270.027,194.015,270.167,194.035,270.3,194.044Z" transform="translate(-257.977 -189.276)" fill="#010101"/>
      <path id="Tracé_215" data-name="Tracé 215" d="M438.26,195.133c.3-.321.468-.508.645-.686a2.718,2.718,0,0,1,2.815-.7,2.429,2.429,0,0,1,1.687,2.045,3.607,3.607,0,0,1,.074.757q.01,3.22,0,6.441c0,.556-.014.556-.642.554s-.645,0-.647-.564c-.007-1.921,0-3.842,0-5.763a7.426,7.426,0,0,0-.03-.845,1.629,1.629,0,0,0-2.692-1.185,2.768,2.768,0,0,0-1.1,1.748,7.146,7.146,0,0,0-.1,1.519c0,1.526.006,3.051,0,4.577,0,.522-.018.5-.687.521-.4.011-.595-.053-.59-.54.025-2.881.014-5.763.01-8.644,0-.3-.006-.534.428-.53.677.007.723,0,.773.459C438.228,194.515,438.234,194.734,438.26,195.133Z" transform="translate(-337.096 -189.111)" fill="#010101"/>
      <path id="Tracé_216" data-name="Tracé 216" d="M457.965,195.716c-.306-.02-.484-.27-.721-.407a3.338,3.338,0,0,0-2.2-.445,1.822,1.822,0,0,0-1.219.7,1.173,1.173,0,0,0,.289,1.826,4.824,4.824,0,0,0,1.319.561,7.871,7.871,0,0,1,1.73.677,2.485,2.485,0,0,1,.454,4.183,3.971,3.971,0,0,1-3.886.809,4.105,4.105,0,0,1-.482-.161c-1.145-.45-1.176-.508-.988-1.88.3.184.573.365.86.524a3.415,3.415,0,0,0,2.524.434,2.149,2.149,0,0,0,1.214-.721,1.343,1.343,0,0,0-.355-2.1,6.061,6.061,0,0,0-1.412-.562,11.206,11.206,0,0,1-1.647-.656,2.374,2.374,0,0,1-.59-3.8,3.635,3.635,0,0,1,3.6-.912,2.125,2.125,0,0,1,.406.12C458.191,194.475,458.094,194.206,457.965,195.716Z" transform="translate(-344.029 -189.124)" fill="#010101"/>
      <path id="Tracé_217" data-name="Tracé 217" d="M296.514,201.536a5.539,5.539,0,0,0,2.3,1.053,2.7,2.7,0,0,0,2.009-.459,1.4,1.4,0,0,0-.22-2.516c-.413-.178-.836-.336-1.263-.477a11.5,11.5,0,0,1-1.641-.669,2.357,2.357,0,0,1-.581-3.742,3.63,3.63,0,0,1,3.584-.967,2.777,2.777,0,0,1,.323.1c1.328.426,1.328.426,1.27,1.826-.3.1-.441-.184-.635-.3a3.413,3.413,0,0,0-2.26-.529,1.941,1.941,0,0,0-1,.416,1.242,1.242,0,0,0,.163,2.208,7.16,7.16,0,0,0,1.577.6,5.741,5.741,0,0,1,1.539.685,2.414,2.414,0,0,1,.518,3.738,3.908,3.908,0,0,1-4.094,1.145,2.219,2.219,0,0,1-.4-.129C296.18,202.861,296.435,203.026,296.514,201.536Z" transform="translate(-272.864 -189.125)" fill="#010101"/>
      <path id="Tracé_218" data-name="Tracé 218" d="M374.6,194.128c-.419,1.353-.844,2.719-1.267,4.087-.523,1.7-1.058,3.388-1.554,5.091-.136.465-.443.424-.781.419s-.622.049-.767-.431c-.914-3.019-1.872-6.025-2.814-9.036a.557.557,0,0,1,0-.162.688.688,0,0,1,.166-.056c1.161-.074,1.16-.073,1.473,1.041q.858,3.05,1.717,6.1a1.814,1.814,0,0,0,.247.629,1.225,1.225,0,0,0,.28-.677q.869-3.179,1.741-6.357c.208-.757.212-.757,1.019-.746A.849.849,0,0,1,374.6,194.128Z" transform="translate(-305.294 -189.29)" fill="#010101"/>
      <path id="Tracé_219" data-name="Tracé 219" d="M257.4,200.154c.136,1.335.191,1.269-1.14,1.382-1.177.1-1.875-.606-1.9-1.861-.028-1.777-.008-3.554-.009-5.331,0-.169.009-.339,0-.508-.022-.334.131-.723-.072-.988s-.579-.094-.877-.1c-.447-.014-.374-.318-.386-.594-.014-.306,0-.528.423-.546.908-.037.908-.063.957-.944.035-.616.066-1.233.1-1.856a1.1,1.1,0,0,1,.254-.069c1.066-.009.881-.056.894.9.007.479.031.962-.007,1.438s.168.59.586.545a5.215,5.215,0,0,1,.677,0c.56.015.562.018.556.565s-.011.532-.579.561c-.387.02-.871-.168-1.134.1s-.092.751-.094,1.139c-.011,1.721-.009,3.441,0,5.162,0,1.184.367,1.43,1.533,1.056C257.232,200.182,257.286,200.176,257.4,200.154Z" transform="translate(-253.016 -186.876)" fill="#010101"/>
      <path id="Tracé_220" data-name="Tracé 220" d="M281.557,195.127c.262-.318.427-.535.61-.736a2.1,2.1,0,0,1,1.81-.734c.73.062.808.135.808.855,0,.138-.011.277-.013.323-.052.161-.091.178-.154.163-1.689-.383-2.9.566-3.058,2.419-.051.616-.022,1.24-.023,1.86,0,1.269-.012,2.539.006,3.808.005.371-.124.477-.484.481-.79.01-.795.028-.8-.763q0-4.147,0-8.293c0-.585.428-.851.983-.637a.267.267,0,0,1,.173.253C281.461,194.406,281.5,194.685,281.557,195.127Z" transform="translate(-265.468 -189.124)" fill="#010101"/>
      <path id="Tracé_221" data-name="Tracé 221" d="M292.168,198.889c0,1.438-.027,2.876.015,4.312.015.529-.245.522-.615.518-.676-.008-.695,0-.7-.517q-.01-4.313,0-8.626c0-.2-.1-.51.23-.539a1.6,1.6,0,0,1,.984.064c.156.092.077.313.078.476C292.17,196.013,292.168,197.451,292.168,198.889Z" transform="translate(-270.31 -189.28)" fill="#010101"/>
      <path id="Tracé_222" data-name="Tracé 222" d="M382.944,198.84c0-1.409-.006-2.819.007-4.228,0-.2-.138-.506.187-.562a2.13,2.13,0,0,1,1,.031c.049.016.082.141.091.22a3.645,3.645,0,0,1,.011.422c0,2.763,0,5.525-.007,8.288,0,.227.157.578-.164.665a2.425,2.425,0,0,1-1,.008c-.189-.031-.123-.285-.124-.445,0-1.184,0-2.368,0-3.552Z" transform="translate(-312.385 -189.286)" fill="#010101"/>
      <path id="Tracé_223" data-name="Tracé 223" d="M384.267,187.381a3.812,3.812,0,0,1-.117.664.64.64,0,0,1-.654.441.631.631,0,0,1-.642-.447,2.016,2.016,0,0,1-.053-1.242c.14-.483.342-.656.752-.635.394.019.6.238.68.718C384.253,187.018,384.252,187.16,384.267,187.381Z" transform="translate(-312.295 -185.701)" fill="#010101"/>
    </g>
    <g id="Groupe_214" data-name="Groupe 214" transform="translate(46.97 78.851)">
      <path id="Tracé_224" data-name="Tracé 224" d="M191.962,138.882l-.2-.275c.01-.173.172-.378.011-.511-.2-.169-.334.007-.384.2-.1.4-.23.592-.656.251-.241-.193-.548-.247-.238.249.118.188-.093.26-.246.377a14.431,14.431,0,0,0-2.63,2.121A70.946,70.946,0,0,0,175.1,163.715a59.26,59.26,0,0,1-5.671,12.041c-1.628,2.669-3.306,5.307-4.859,8.023a6.471,6.471,0,0,0-.717,4.26c.237,1.724,1.335,3.108,1.754,4.786a1.568,1.568,0,0,0,.97-1.6,16.324,16.324,0,0,1,.093-1.984,12.153,12.153,0,0,1,2.071-6.547,39.379,39.379,0,0,0,3.3-5.807c.744-1.476,1.615-2.888,2.433-4.327a11.841,11.841,0,0,0,1.46-4.364,11.5,11.5,0,0,1,1.362-4.169,17.679,17.679,0,0,0,1.072-2.416,76.6,76.6,0,0,1,5.088-11.361c2.395-4.148,5.337-7.759,9.857-9.836-.577-.882.235-1.679.093-2.613A14.753,14.753,0,0,1,191.962,138.882Zm-1.771-5.5c.064-.13.035-.242-.027-.229a.452.452,0,0,0-.237.185c-.052.074-.077.217.067.209C190.077,133.541,190.153,133.416,190.191,133.381Z" transform="translate(-100.35 -103.667)" fill="#010101"/>
      <path id="Tracé_225" data-name="Tracé 225" d="M119.843,131.331a18.791,18.791,0,0,1-2.164-6.9c-.507-3.241-.632-6.519-.908-9.782a2.157,2.157,0,0,1,.332-1.349,36.274,36.274,0,0,0,3.954-9.546,1.447,1.447,0,0,1,.628-1.1c.3-.167.216-.6.286-.918.1-.457-.257-.57-.558-.681-.35-.129-.368-.5-.662-.809a1.606,1.606,0,0,1-.443,1.362,4.076,4.076,0,0,0-.629,1.158,28.891,28.891,0,0,0-2.3,7.8,2.451,2.451,0,0,1-1.192,2.222,5.578,5.578,0,0,1-.263-1.722,28.689,28.689,0,0,1,.739-6.234c.241-1.227.491-2.452.7-3.684A2.126,2.126,0,0,0,116.924,99c-.334-.316.106-.373.3-.482a.573.573,0,0,0,.623.544.939.939,0,0,0-.229-.877l-.4.348-.324-.7a20.673,20.673,0,0,0-1.669,5.546A41.2,41.2,0,0,0,115.1,113.4c.292,3.951,1.369,7.738,2.211,11.576a12.54,12.54,0,0,1,.369,3.475c-.655-.311-.738-.908-.882-1.432a14.048,14.048,0,0,1-.3-2.516c-.045-.51-.2-.943-.874-.712a1.259,1.259,0,0,0-.273-1.089c-.57-1.224-1.125-2.455-1.713-3.67a16.156,16.156,0,0,1-1.454-8.806c.274-2.781.525-5.564.838-8.34.206-1.826.509-3.64.764-5.46.046-.326.071-.654.112-1.041-.6.175-.74,1.043-1.488.839-.062-.017-.229.257-.311.416-.2.391-.373.8-.572,1.191-.238.471-.368,1.082-1.172.687-.255-.125-.525.209-.715.43-.382.444-.746.9-1.193,1.449a16.684,16.684,0,0,0-.911-2.527c-.247-.573-.141-.69.46-.766.788-.1.821-.134.838-.946a5.494,5.494,0,0,0-.021-.662,1.611,1.611,0,0,1,1-1.845,5.529,5.529,0,0,0,2.529-2.664,1.454,1.454,0,0,0,.407-.857c.07-.488-.254-.062-.385-.113.192-1.23.576-2.42.708-3.668.216-2.051.329-4.106.42-6.163a1.124,1.124,0,0,1,.615-1.138c.32-.167.635-.212.762-.023.2.3.164.906-.124.975-1.092.259-.774,1.07-.822,1.751-.11,1.54-.225,3.081-.325,4.622a7.767,7.767,0,0,0,.445,3.686,1.287,1.287,0,0,1-.058,1.165.578.578,0,0,0,.326.89c.3.137.574.338.883.444.647.22.8.107.926-.6a44.5,44.5,0,0,1,2.965-8.972l.166.63a1.143,1.143,0,0,0,.4-1.07c0-.4.109-.943-.1-1.17-.186-.2-.646-.235-.978-.449-.521-.334-.385.49-.744.538-.246-.186-.057-.421-.068-.636a.58.58,0,0,0-.878-.524,2.371,2.371,0,0,1-.892.392c-.028,0-.058-.028-.087-.044a2.2,2.2,0,0,1,.714-1.8c.286.135.2.76.712.611a2.868,2.868,0,0,1,1.092.073,2.476,2.476,0,0,0,1.044-.256c.287.274-.014.683.333.983.235-.768,1.14.1,1.449-.824.08.6-.117.989.009,1.379.173.041.239-.1.329-.2.557-.619.539-.583,1.31-.2.255.128.511.508.946.17.268-.207.513.167.739.334.26.192.439.541.792.548.324.007.39-.414.666-.525a.7.7,0,0,1,.223,0c.042.36-.287.566-.375.866-.333.3-.2,1.009-.886,1-.238.146-.291.522-.643.522-.185-.243.093-.577-.2-.849-.364.251-.43.779-.864.939.007-.437-.1-.745-.631-.512a2.858,2.858,0,0,0-1.269,1.327,16.59,16.59,0,0,1-.929,1.847l-.3-.43c-.526,1.956-1.275,3.776-1.644,5.709-.13.684-.212,1.377-.308,2.067-.03.216-.11.5.1.616a8.392,8.392,0,0,0,1.7.993c.418.112.6-.1.708-.469a12.771,12.771,0,0,1,1.753-3.657c.686-1,1.411-1.969,2.147-2.932.264-.346.4-.864,1.007-.847a.211.211,0,0,0,.138-.336c-.452-.438-.015-.619.222-.857a4.2,4.2,0,0,0,1.178-1.418c-.629.092-.476-.649-.884-.777-.214.025-.237.206-.35.285s-.138.477-.334.155c-.119-.2-.582-.109-.408-.5a6.333,6.333,0,0,1,.321-.569c.266.044.5-.146.384-.323-.319-.475.182-.6.288-.884.23-.109.456-.23.691-.324.386-.155.414.125.45.388-.168.378-.662.6-.6,1.236a2.475,2.475,0,0,0,.8-.971c.262-.11.436.266.719.118.176-.091.281.01.2.2-.173.413.049.435.356.379a1.133,1.133,0,0,1,1.014.308c.314.288.576.681,1.094.293.2-.151.3.11.4.246a2.388,2.388,0,0,1,.507,1.39c.5-.148.857-.544,1.385-.5.241.166-.028.3-.047.447-.043.331.054.5.415.435.193-.037.451-.209.4.212a3.4,3.4,0,0,0-.337.416c-.058.1.056.237.146.177.213-.141.508-.307.152-.608a7.2,7.2,0,0,1,1.923.3c.131.043.187.085.163.2-.054.254-.068.433.3.349.282-.065.6-.144.626.338.012.214.225.162.331.1.467-.276.512.271.769.4.2.1.164.171-.21.766.263.192.347-.187.523-.171.342.032-.008.379.19.489.159.088.365.264.483.22.376-.14.723.036,1.076.047.194.006-.03.5.485.607.464.094.877.546,1.505.691.136.38-.237.633-.305.979a3.255,3.255,0,0,0,1.425-.269c.231.236-.051.47-.009.686.07.159.195.127.289.1.4-.129,1.109-.123,1.114.074.018.776.947.56,1.071,1.144.03.145.2.178.353.074s.35-.361.547-.079c.11.157-.013.348-.1.513a4.843,4.843,0,0,0-.223.5.3.3,0,0,0,.118.383c.2.13.21-.117.317-.169s.311-.29.3-.084c-.027.725.515.174.762.391a2.686,2.686,0,0,0-.32,1.464c.674.007.772-.785,1.328-.877.254.385-.1.8.124,1.219.4-.106.288-.774.791-.745.161.252-.105.4-.153.595-.055.231-.008.36.267.23.055-.026.166-.035.192,0,.233.276.9.758,1.072.682.778-.342,1.12.494,1.746.628.795.169.672,1.005.7,1.643.368.045.521-.491.912-.273-.487.822-.7.974-1.92,1.407-.147-.263.2-.471.043-.8a4.245,4.245,0,0,0-1.5.407c-.091.029-.233.177-.222.2.529.953-.349.765-.761.928a.455.455,0,0,0-.324.381,2.417,2.417,0,0,1-.949,1.3,23.275,23.275,0,0,0-4.6,5.755,78.195,78.195,0,0,0-3.65,7.173,54.42,54.42,0,0,1-5.668,9.7,29.782,29.782,0,0,0-3.446,5.766,12.378,12.378,0,0,1-1.841,2.742c-.532.658-1.077,1.308-1.585,1.984a7.226,7.226,0,0,0-1.556,4.283c0,.147-.009.294-.023.441,0,.021-.052.038-.194.135-.839-1.4-2.008-2.583-2.524-4.173a5.739,5.739,0,0,1,.616-4.993,37.485,37.485,0,0,0,3.9-9.089c.044-.141.092-.28.132-.421a3.527,3.527,0,0,1,1.937-2.346,14.426,14.426,0,0,0,4.86-4.423,23.616,23.616,0,0,0,2.345-3.734,12.739,12.739,0,0,1,2.348-3.179c1.764-1.835,3.7-3.477,5.619-5.146a4.777,4.777,0,0,0,1.089-1.409c.295-.552.746-1.055,1.019-1.662.336-.746.489-1.639,1.468-1.921.224-.064.134-.223-.035-.381s.074-.406.044-.622a1,1,0,0,0,.137-.161c.065-.116.2-.257.077-.371-.142-.133-.22.085-.333.133a.924.924,0,0,0-.171.124c-.3-.061-.47-.459-.912-.21-.628.355-1.482.211-1.906.933-.441-.383.243-.666-.119-.994-.26.408-.5.816-.771,1.208s-.494.8-1.084.811c-.354,0-.534.362-.743.615a95.01,95.01,0,0,0-10.138,14.566c-.39.708-.815,1.4-1.267,2.068a5.371,5.371,0,0,1-1.747,1.662c-.223.13-.483.466-.763.119-.21-.26-.62-.42-.447-.913.181-.518.264-1.07.415-1.6a30.665,30.665,0,0,1,5.029-9.874c1.694-2.278,3.6-4.377,5.471-6.508.9-1.024,1.773-2.068,2.664-3.1a2.526,2.526,0,0,0,.632-1.717.643.643,0,0,0-.262-.495c-.479-.466-.691-.075-.95.218-.2-.368.165-.573.148-.963-.3.161-.544.286-.781.415-.307.168-.579.328-.784-.162-.167-.4-.492-.279-.7-.038-.312.355-.571.757-.9,1.2-.1-.337.234-.655-.09-.888-.32.03-.352.338-.5.532-.374.5-.694,1.047-1.106,1.514a37.114,37.114,0,0,0-6.65,11.439,43.358,43.358,0,0,1-2.342,5.348,12.335,12.335,0,0,0-1.127,4.47,27.241,27.241,0,0,1-2.215,7.706,29.938,29.938,0,0,0-2.148,6.012,8.742,8.742,0,0,0-.181,3.825.146.146,0,0,0-.211.065,13.259,13.259,0,0,1-1.613-8.4,51.344,51.344,0,0,1,2.859-11.755c.59-1.779,1.2-3.551,1.772-5.334a9.261,9.261,0,0,1,1.034-2.062c1.051-1.679,2.267-3.276,2.594-5.309.022-.137.036-.315.242-.286.369.053.423-.205.477-.46.092-.433-.318-.128-.368-.235a.293.293,0,0,1,.292-.445c.879.226,1.3-.4,1.726-.917,1.237-1.507,2.421-3.056,3.626-4.59.089-1.346,1.338-2.026,1.812-3.154a2.584,2.584,0,0,0,.377-1.463c-.383.045-.372.56-.8.559-.04-.31.323-.692-.118-.947-.355.043-.18.542-.59.622a1.906,1.906,0,0,0-.317-1.325c-3.471,1.421-7.5,7.285-7.619,11.155.292.152.595-.3.945.031a.947.947,0,0,0-.32,1.153c.1.361.055.661-.456.63a2.91,2.91,0,0,0-2.666,1.652A9.733,9.733,0,0,0,124.1,105.5a103.781,103.781,0,0,0-3.883,13.091,34.005,34.005,0,0,0-.793,9.753,9.918,9.918,0,0,0,.636,2.893A.164.164,0,0,0,119.843,131.331Zm8.323-44.462c-.386.235-.3,1.081-1.075.83-.027-.009-.125.163-.173.259-.8,1.618-1.878,3.075-2.75,4.652A13.536,13.536,0,0,0,122.8,96.2c-.1.46-.124.864.414,1.1.262.117.464.366.722.5.622.321.882.242,1.233-.386A22.928,22.928,0,0,1,128.449,93c1.328-1.43,2.683-2.833,4.026-4.249.422-.444.421-.445.338-1.219a.677.677,0,0,0-.909-.58,6.9,6.9,0,0,0-.827.54c-.345.232-.666.534-1.2.407a9.034,9.034,0,0,0,.633-.836c.108-.18.2-.462-.012-.6s-.365-.465-.745-.244a5.732,5.732,0,0,1-1.031.369C128.39,86.387,128.272,86.617,128.166,86.869Z" transform="translate(-74.593 -78.851)" fill="#010101"/>
      <path id="Tracé_226" data-name="Tracé 226" d="M156.518,150.91c-3.637,4.277-5.325,9.4-6.38,14.976-1.311-1.928-2.837-3.521-3.313-5.723a5.806,5.806,0,0,1,1.8-6.1,22.9,22.9,0,0,0,4.6-5.9c1.651-2.83,3.406-5.592,5.134-8.373a51.113,51.113,0,0,0,4.715-9.214,20.191,20.191,0,0,1,3.994-6.31c.854-.965,1.729-1.911,2.6-2.862a1.127,1.127,0,0,0,.438-.949c-.056-.509.325-.874.616-1.252a7.363,7.363,0,0,0,1.424-2.21c.151-.479.648-.684,1.073-.887.408-.195.413.418.839.466.447.05.648.3.992.2a1.033,1.033,0,0,1,.1.643c-.013.319.093.441.44.443a.64.64,0,0,1,.684.7.692.692,0,0,1-.747.762,1.78,1.78,0,0,0-1.446.87,4.793,4.793,0,0,1-2.03,1.812c-.193.069-.261.251-.359.4-1.048,1.6-2.1,3.2-3.136,4.806a18.72,18.72,0,0,0-2.365,5.32,76.108,76.108,0,0,1-3.3,9,54.558,54.558,0,0,0-2.622,7.834,23.029,23.029,0,0,1-2.508,5.864c-.956,1.7-1.942,3.382-2.866,5.1a17.049,17.049,0,0,0-1.953,5.365,10.443,10.443,0,0,0,.008,3.521c.358-.058.288-.32.33-.495a28.778,28.778,0,0,1,3-7.446c1.33-2.374,2.719-4.715,4.09-7.067a39.513,39.513,0,0,0,3.389-7.288,30.21,30.21,0,0,1,2.492-5.641,20.273,20.273,0,0,0,2.68-7.879c.044-.363.163-.716.233-1.077a3.067,3.067,0,0,1,2-2.445,7.281,7.281,0,0,0,3.63-3.246,30.92,30.92,0,0,0,1.674-2.725,13.4,13.4,0,0,0,1.1-2.751c-.557.39-.736,1.019-1.41,1.36.13-.644.67-.978.785-1.6-.562.262-.863.779-1.615.924a6.959,6.959,0,0,0,1.06-2.14,2.875,2.875,0,0,1,1.436-1.6c.155-.074.334-.191.5-.017.118.123.07.277.04.416a3.566,3.566,0,0,1-.148.532c-.134.346-.072.47.324.365.369-.1.146.761.684.455.356.535.943.428,1.442.477.055.255-.19.337-.225.589a6.1,6.1,0,0,1,1.406-.014c.418.088.927.055.8.731.838.761.241,1.31-.264,1.892a3.845,3.845,0,0,1-1.4,1.3c-.184-.337.194-.411.164-.634-.053-.059-.109-.049-.184.009a35.771,35.771,0,0,0-5.921,5.765,17.212,17.212,0,0,0-2.164,3.451c-1.088,2.335-2.266,4.625-3.566,6.848a76.573,76.573,0,0,0-4.283,9.068,205.914,205.914,0,0,1-11.108,22.791,1.746,1.746,0,0,0-.065,1.951,2.635,2.635,0,0,1,.366,1.373c-.007.555-.275.775-.855.738-.711-.046-1.031-.335-.975-.885a.592.592,0,0,1,.04-.216c.7-1.287.161-2.48-.254-3.691-.138-.4-.35-.83.017-1.248.174-.2.017-.425-.026-.628a15.646,15.646,0,0,1,.822-8.78c.656-1.8,1.474-3.527,2.2-5.292A14.767,14.767,0,0,0,156.518,150.91Zm14.435-31.346a3.78,3.78,0,0,0,1.711-1.918A4.633,4.633,0,0,0,170.954,119.564Zm8.048.229c-.542.126-.562.453-1.01.677C178.638,120.462,178.778,120.219,179,119.793Z" transform="translate(-92.512 -95.861)" fill="#010101"/>
      <path id="Tracé_227" data-name="Tracé 227" d="M50.094,175.711c-.738.221-.791.215-.729-.33a2.5,2.5,0,0,0-.333-1.475,8.991,8.991,0,0,1-.464-1c-.32-.882-.189-1.022.847-.921.031,0,.036.1.121.012.616-.6.881-2.942.364-4a4.393,4.393,0,0,1,.029,1.817,3.208,3.208,0,0,1-.662,1.259c-.406.428-.9,1.012-1.47.769-.539-.231-.312-.963-.275-1.5a8.812,8.812,0,0,1,.394-1.715,3.571,3.571,0,0,0,.472-1.264,2.05,2.05,0,0,0-.71.953c-.222.271-.282.668-.708.856a14.808,14.808,0,0,1,1.158-4.808,23.645,23.645,0,0,1,2.117-3.854c.9-1.383,1.852-2.736,2.645-4.188.162-.3.283-.592.738-.392.331.146.416-.214.562-.4.883-1.123,1.757-2.253,2.632-3.38l.259.006a17.208,17.208,0,0,0-2.4,3.65c.361-.053.32-.506.671-.454.134.408-.278.747-.129,1.21.474-.738.929-1.441,1.373-2.151.015-.024-.065-.109-.1-.165l.063-.011c.557-.077.648-.7,1.083-.921l.173.291a7.953,7.953,0,0,0-2.5,4.163c-.123.473-.744.969-.091,1.5-.614.534-.094,1.323-.433,1.916a.563.563,0,0,1-.276.308c-.83.345-.9.516-.689,1.545.152-.141.289-.252.408-.381a16.882,16.882,0,0,0,1.523-2.157c1.291-1.919,2.309-2.334,4.488-1.66a22.368,22.368,0,0,1,8.006,4.5,4.36,4.36,0,0,1,1.344,1.848c.133.409.027.87.261,1.26.015.805-.005,1.614.058,2.416a2.1,2.1,0,0,0,1,1.753,26.976,26.976,0,0,1-.852-4.237l-.184-1.18a14.294,14.294,0,0,0-2.01-5.439,3.916,3.916,0,0,0-2.53-1.8c-.394-.089-.794-.147-1.189-.23a10.291,10.291,0,0,1-3.31-.757,2.878,2.878,0,0,0-2.546-.138,5.734,5.734,0,0,0-2.309,1.646,1.778,1.778,0,0,1-.85.69,24.51,24.51,0,0,0,1.379-3.081,1.63,1.63,0,0,1,1.213-.993,13.709,13.709,0,0,1,6.664.013,6.793,6.793,0,0,1,4.669,3.389c.488.905,1.013,1.791,1.491,2.7a24.282,24.282,0,0,0,2.088,3.5c.342.359.045.822.2,1.212.047.475.105.949.14,1.425a3.549,3.549,0,0,1-.139,2.061c-.294.527-.225.84.5,1.1-1.132.412-2.081.792-3.053,1.1-.769.243-.87.169-1.331-.555a19.99,19.99,0,0,1-1.509-3.184,16.957,16.957,0,0,0-1.837-3.632,2.616,2.616,0,0,0-1.559-1.119,13.646,13.646,0,0,1-2.81-1.262,12.313,12.313,0,0,0-2.653-1.062,2.716,2.716,0,0,0-2.383.54,8.407,8.407,0,0,0-1.951,2.3c.911.338.665,1.193.907,1.946a1.2,1.2,0,0,1,1.6.8c.106.31.38.292.647.268a3.458,3.458,0,0,0,1.351-.449c.614-.334,1.219-.684,1.84-1a3.688,3.688,0,0,1,4.144.4,7.489,7.489,0,0,1,1.856,2.168,41.47,41.47,0,0,1,2.133,4.355c.1.21.209.457-.069.564-.594.23-1.038.7-1.613.948-.635.272-.8.2-1.1-.444-.382-.835-.736-1.684-1.123-2.517a7.938,7.938,0,0,0-1.294-2.044,3.378,3.378,0,0,0-3.218-1.181,12.694,12.694,0,0,1-1.433.06,1.933,1.933,0,0,0-1.5.591c.381.286.744.151,1.094.14a2.536,2.536,0,0,1,1.5.177c.413.239.917-.042,1.376-.079a1.648,1.648,0,0,1,1.521.661,9.054,9.054,0,0,1,1.972,3.535c.383,1.479.151,2.024-1.16,2.8-.214.127-.356.231-.263.5.068.2.037.428.4.3.242-.086.25.144.195.349a3.556,3.556,0,0,1-1.787,2.277,13.574,13.574,0,0,1-2.17.791c-.422.147-1.078-.045-1.188.679-.005.036-.138.1-.184.077-.46-.189-.863-.2-1.142.3-.827-.3-1.5.2-2.213.445-.3.1-.534.2-.768-.125a7.617,7.617,0,0,0-1.953-1.6c-.254-.182-.914-.319-.267-.828.075-.059.065-.159-.015-.174-.953-.192-.229-.892-.364-1.391-.553.235-.458.748-.634,1.1-.113.23-.275.588-.511.438s-.681-.364-.449-.849c.222-.464.393-.953.64-1.4.321-.579-.084-.736-.443-1.051-.18.547.086.995-.117,1.411-.073.149-.217.245-.334.132-.072-.069-.021-.264-.026-.4C50.248,176.106,50.453,175.911,50.094,175.711Zm5.983-9.185a.344.344,0,0,0-.341-.337c-.255-.024-.628-.22-.653.288-.008.163-.064.419.224.377C55.579,166.814,55.916,166.875,56.077,166.526Zm.925,1.5-.792-.2c-.107-.028-.219-.053-.275.074a.3.3,0,0,0,.121.376C56.36,168.452,56.662,168.47,57,168.022Z" transform="translate(-46.97 -112.354)" fill="#010101"/>
      <path id="Tracé_228" data-name="Tracé 228" d="M66.618,131.1c.493-.738,1.179-1.309,1.735-1.993a1.146,1.146,0,0,1,.769-.384,28.362,28.362,0,0,1,7.911-.494c3.022.386,2.765.151,4.047,2.942a42.941,42.941,0,0,1,2.01,6.756,18.812,18.812,0,0,0,1.613,4.327,2.326,2.326,0,0,0,.848,1.069c.311-.252.081-.409-.035-.575-.233-.33-.482-.649-.705-.985-.166-.248-.264-.443.22-.435.4.007.25-.38.252-.6a17.694,17.694,0,0,0-.52-4.152,58.213,58.213,0,0,0-2.2-6.7,30.068,30.068,0,0,1-1.785-6.584,12.41,12.41,0,0,1,.028-3.41c.124-.807.2-1.563,1.087-2.005a1.989,1.989,0,0,0,.8-1.4,7.594,7.594,0,0,1,1.782-3.375,2.875,2.875,0,0,0,.655-2.974c-.233-.735-.47-1.469-.726-2.2a10.493,10.493,0,0,1-.529-1.91,2.956,2.956,0,0,1,.655-2.48,1.862,1.862,0,0,1,.721,1.777,18.2,18.2,0,0,0,.562,5.247,6.735,6.735,0,0,1-1.894,6.678,19.543,19.543,0,0,0-1.535,1.736,3.8,3.8,0,0,0-.753,3.72c.564,1.869,1.285,3.676,2.028,5.477a93.6,93.6,0,0,1,3.5,9.046c.135.458.262.918.389,1.379.136.49.218.988.742,1.281.287.161.38.53.521.83.154.326.234.705.688.912a2.27,2.27,0,0,0-.134-2.113A12.854,12.854,0,0,1,88,134.883a27.739,27.739,0,0,0-2.745-8.458,15.646,15.646,0,0,1-1.622-4.322,3.391,3.391,0,0,1,.491-2.753c.444.279.536.776.722,1.194a60.5,60.5,0,0,1,2.448,7.312c.38,1.267.772,2.531,1.146,3.8a12.765,12.765,0,0,0,2.362,4.452,7.288,7.288,0,0,1,1.63,2.723,1.275,1.275,0,0,0,1.247.925,7.781,7.781,0,0,0,1.761-.1c.364-.051.729-.1,1.1-.119.243-.01.563-.093.7.176.171.34-.029.642-.258.892a2.708,2.708,0,0,1-1.27.629c-.33.105-.452-.168-.571-.393-.273-.514-.622-.586-1.058-.2-.27.24-.656.342-.868.744.3.247.777.127,1.012.469-1.106.986-1.865,1.053-2.708.239.116-.362.558-.261.824-.612-.738-.045-1.2-.751-2.2-.542.645.257.459.964,1.057,1.118a.172.172,0,0,1,.014.328c-.7.337-.412.6.042.889.109.068.166.217.244.326a1.89,1.89,0,0,1-.895.48.879.879,0,0,1-1.16-.337,2.466,2.466,0,0,0-.518-.562c-.35-.267-.548-.182-.547.305,0,.425-.2.489-.526.519a2.223,2.223,0,0,1-1.627-.557c-.139-.11-.3-.265-.466-.064s.035.319.14.456.407.193.356.382c-.272,1.007.484.929,1.063,1.051a.468.468,0,0,1,.368.211,7.411,7.411,0,0,1-4.038,1.555c-.778-.039-.848-.111-.986-.872-.151-.832-.32-1.66-.482-2.488a5.219,5.219,0,0,0-.306-1.273c-.819-3.648-1.9-7.239-2.448-10.948a.763.763,0,0,0-1.008-.693,20.436,20.436,0,0,1-5.485-.022c-2.076-.16-4.186-.454-6.136.651Z" transform="translate(-55.949 -90.136)" fill="#010101"/>
      <path id="Tracé_229" data-name="Tracé 229" d="M116.234,140.517a3.436,3.436,0,0,1,.569,1.63,1.635,1.635,0,0,1-.657,1.529c-.631.49-.887.491-1.534-.025a12.011,12.011,0,0,0-2.12-1.134l.031.03c.169-.062.22-.185.129-.333q-.318-.516-.658-1.019a17.78,17.78,0,0,1-3.244-11.331,41.52,41.52,0,0,1,1.777-10.621,10.609,10.609,0,0,1,1.943-3.753,8.01,8.01,0,0,1-.059,2.166c-.308,2.449-1.006,4.815-1.54,7.216a24.448,24.448,0,0,0-.626,4.247,11.081,11.081,0,0,0,1.039,5.356c.824,1.722,1.691,3.425,2.588,5.111a4.9,4.9,0,0,0,1.9,2.163c.014-1.351-1.281-2.231-1.218-3.675.609.414.8,1.019,1.17,1.467Z" transform="translate(-75.189 -95.595)" fill="#010101"/>
      <path id="Tracé_230" data-name="Tracé 230" d="M108.63,84.429c.124-.433.3-.779.855-.548.147.244.148.617.573.684a1.393,1.393,0,0,0-.325-1.02c.046-.4.307-.832-.191-1.166a.385.385,0,0,1-.068-.5c.064-.116.161-.27.331-.112s.03,1.01.644.32a.9.9,0,0,1,.129.282,27,27,0,0,1,.191,5.788,4.371,4.371,0,0,1-.438,1.452c-.087.067-.174.138-.262.21.056-.471-.4-.53-.653-.78.081-.085.148-.167.225-.236.6-.536.6-.534-.175-.808-.135-.048-.262-.121-.408-.19a2.738,2.738,0,0,1-.064.35c-.109.337.369.6.132.931s-.617.123-.931.162c-.159.02-.325.084-.339.229-.058.62-.368.2-.6.172-.31-.041-.614-.743-.943-.017-.084.185-.169.029-.237-.03a1.268,1.268,0,0,1-.134-.174c-.56-.7-.56-.7-1.3-.225a6.188,6.188,0,0,1-.757-3.5c.02-.212-.029-.555.211-.571.792-.052.835-.862,1.413-1.314a5.144,5.144,0,0,0,.947,1.443c.121.136.248.293.141.491-.1.18-.166.351.115.384.214.024.556-.014.512-.263-.153-.868.325-1.9-.709-2.559-.466-.294-.44-.422-.34-1.366.357-.1.344.477.755.363.236-.395-.056-.907.207-1.416a1.965,1.965,0,0,0,1.542.185c-.3.458-.046,1.114-.792.768-.122-.057-.272.049-.251.109.193.555-.324,1.2.277,1.726a2.972,2.972,0,0,1,.489.959c.119.255.179.582.576.519a.224.224,0,0,0,.153-.139C109.191,84.633,108.768,84.651,108.63,84.429Zm-.087,1.663c-.4-.057-.765-.025-.6.519a2.037,2.037,0,0,0,.462,1.029,1.7,1.7,0,0,0,.926-.779c.427-.667.423-.66-.318-1.1C108.565,85.491,108.551,85.778,108.542,86.092Z" transform="translate(-72.967 -79.783)" fill="#010101"/>
      <path id="Tracé_231" data-name="Tracé 231" d="M82.993,130.727a2.075,2.075,0,0,0-1.2,1.221.868.868,0,0,1-1.007.735,5.13,5.13,0,0,0-1.686.219c-.321-.288-.008-.629-.208-.882-.055.005-.139-.011-.169.021a1.15,1.15,0,0,1-1.492.307c-.508-.276-.517.113-.722.528-.163-.9-.454-1.608.389-2.26.471-.364.32-1.1.412-1.655a1.305,1.305,0,0,1,1.027-1.126,5.148,5.148,0,0,1,2.938.115c.735.174,1.462.546,1.806-.547.533.49.388,1.167.845,1.538a.2.2,0,0,1,0,.291,2.631,2.631,0,0,0-.227,1.918c.074,1.237-.207,1.5-1.567,1.485.034-.767.855-.969,1.11-1.558.127-.175.231-.384.034-.541C83.13,130.419,83.06,130.615,82.993,130.727Z" transform="translate(-60.385 -101.04)" fill="#010101"/>
      <path id="Tracé_232" data-name="Tracé 232" d="M88.136,108.868c-.087-.235-.223-.241-.4-.1a5.374,5.374,0,0,0-1.593,1.927c-.43.934-.724,1.915-1.079,2.874a5.984,5.984,0,0,1-1.073,2.022,3.179,3.179,0,0,1,.111-1.34,15.756,15.756,0,0,1,1.253-3.62c.1-.208.357-.392.182-.68l-.019.011c.121.054.187,0,.249-.105a33.5,33.5,0,0,1,5.078-6.329c.057-.057.184-.111.087-.323a5.962,5.962,0,0,0-.659,1.306c.179.3.324-.049.535.106a3.545,3.545,0,0,0,.337,3.46,3.49,3.49,0,0,1-.221,3.931,12.131,12.131,0,0,0-1.451,3.55,3.186,3.186,0,0,1-1.481,2.114,4.2,4.2,0,0,1,.029-3.165,13.361,13.361,0,0,1,1.311-2.663,5.839,5.839,0,0,0,.838-4.834,10.584,10.584,0,0,1-.2-1.581,2.39,2.39,0,0,0-.71,1.057A16.537,16.537,0,0,1,88.1,108.37c-.127.168-.313.352.016.511Z" transform="translate(-63.871 -89.984)" fill="#010101"/>
      <path id="Tracé_233" data-name="Tracé 233" d="M78.912,109.274c-.257-.281-.374-.037-.467.146-.45.881-.889,1.769-1.328,2.656-.405.82-.8,1.644-1.212,2.478a4.56,4.56,0,0,1,.738-2.826c.43-.871.909-1.717,1.3-2.616a1.883,1.883,0,0,0-.732.845,52.315,52.315,0,0,0-2.658,5.18c-.178.37-.059,1.174-.913.991-.029-.006-.109.17-.147.269-1.009,2.59-2.186,5.108-3.33,7.639l.031.046c-.35.06-.36.407-.526.623l-.209-.224c1-1.885,1.717-3.888,2.54-5.848a15.017,15.017,0,0,1,1.767-3.653c1.17-1.473,1.8-3.236,2.867-4.757,1.073-1.537,2.242-3,3.37-4.492.237-.313.572-.573.642-1-1.417-.4-1.417-.4-2.089-1.115a4.517,4.517,0,0,0,1.369-1.55c.161-.345.407-.364.719-.341a8.021,8.021,0,0,1,3.077.78,4.124,4.124,0,0,1-.978.91,19.449,19.449,0,0,0-3.97,5.377c-.1.184-.249.4.113.493Z" transform="translate(-57.25 -89.302)" fill="#010101"/>
      <path id="Tracé_234" data-name="Tracé 234" d="M104.944,131.749a6.726,6.726,0,0,1-1.449-2.822,15.39,15.39,0,0,1-.4-5.682c.157-1.863.446-3.715.685-5.571a.612.612,0,0,1,.294-.528C105.223,121.912,105.031,126.709,104.944,131.749Z" transform="translate(-72.58 -96.352)" fill="#010101"/>
      <path id="Tracé_235" data-name="Tracé 235" d="M73.478,140.9a7.144,7.144,0,0,1,2.806-.488,8.966,8.966,0,0,0,4.117-.548c.287-.141.42.017.5.235a2.117,2.117,0,0,1-.3,1.99.891.891,0,0,1-.778.318,5.932,5.932,0,0,1-1.96-.275,4.785,4.785,0,0,0-3.127.241,3.034,3.034,0,0,1-2.113.407c-.358-.112-.579.257-.842.441s-.534.392-.793.6c-.132.1-.318.141-.395.034-.122-.167.011-.339.137-.477l1.277-2c.075-.159.369-.267.12-.5l.05.016c.377.09.445-.287.66-.439.446.548-.353.758-.32,1.241Z" transform="translate(-57.744 -106.71)" fill="#010101"/>
      <path id="Tracé_236" data-name="Tracé 236" d="M147.61,108.72c-.225-.05-.491-.094-.334-.48.082-.2.122-.422.2-.627a16.763,16.763,0,0,1,4.714-6.661c.442-.388.677-.2.981.129a.378.378,0,0,1,.024.571c-.206.258-.4.524-.6.785-.307.4-.728.734-.662,1.33.013.119-.109.267-.2.38q-1.58,2.044-3.171,4.08A.983.983,0,0,1,147.61,108.72Z" transform="translate(-92.79 -88.852)" fill="#010101"/>
      <path id="Tracé_237" data-name="Tracé 237" d="M164.5,108.189c-1.721,1.962-3.408,3.861-5.062,5.787-.576.67-1.107.182-1.637.116-.131-.286.043-.428.142-.553a46.9,46.9,0,0,1,3.226-4.383c.258-.26.437-.593.875-.584.283.006.449-.218.643-.387C163.423,107.539,163.474,107.54,164.5,108.189Z" transform="translate(-97.6 -92.036)" fill="#010101"/>
      <path id="Tracé_238" data-name="Tracé 238" d="M121.217,84.47c.809-.085,1.5-.086,1.993.636.113.166.447.182.71.279a68.293,68.293,0,0,0-2.434,6.9,4.221,4.221,0,0,1-.642-2.814C120.93,87.831,121.085,86.192,121.217,84.47Z" transform="translate(-80.725 -81.401)" fill="#010101"/>
      <path id="Tracé_239" data-name="Tracé 239" d="M99.1,79.055a1.384,1.384,0,0,0,.779,1.152c.378.237.249.613-.015.64-.483.048-.457.364-.511.642a20.764,20.764,0,0,1-1.36,3.465c-.13.334-.4.381-.542.041-.206-.5-.449-.287-.743-.135-.384.2-.257.451-.126.73.1.208.4.392.141.661a2.341,2.341,0,0,1-.458.291c-.2-.44-.931-.219-1-.805-.05-.408-.437-.911.325-1.108.12-.031.236-.292.256-.457a.671.671,0,0,1,.586-.666c.571-.135.753-.669.941-1.137.273-.678.477-1.382.729-2.069A1.886,1.886,0,0,1,99.1,79.055Z" transform="translate(-68.974 -78.944)" fill="#010101"/>
      <path id="Tracé_240" data-name="Tracé 240" d="M193.807,127.929a1.522,1.522,0,0,0,1.666.767,30.72,30.72,0,0,1-2.958,4.409c-.574.621-.71.589-1.323.029-.915-.836-.914-.835-.2-1.891.431-.64.9-1.26,1.271-1.932A2.966,2.966,0,0,1,193.807,127.929Z" transform="translate(-112.555 -101.28)" fill="#010101"/>
      <path id="Tracé_241" data-name="Tracé 241" d="M98.371,93.648c.724-.14.991-1.154,1.834-1.517a8.041,8.041,0,0,0,.681,2.485c.191.409.427.823.913.857.974.067.385.863.62,1.274.264.463-.278.35-.483.472-.77.462-.911,1.135-.473,2.313.061.164.222.322.018.473a.543.543,0,0,1-.311.048c-.247-.005-.28-.186-.279-.378a2.564,2.564,0,0,0-.668-1.919c-.145-.149-.11-.289-.053-.485a2.269,2.269,0,0,0-.786-2.361A14.466,14.466,0,0,1,98.371,93.648Z" transform="translate(-70.461 -84.92)" fill="#010101"/>
      <path id="Tracé_242" data-name="Tracé 242" d="M96,96.807a1.039,1.039,0,0,1-1.606.418,4.428,4.428,0,0,0-2.722-.249,11.305,11.305,0,0,0-.065-3.257c.245-.345.633-.015.92-.194,0-.244-.279-.4-.175-.694.124-.351.293-.388.627-.142.363.267-.045.143-.077.213-.156.33-.424.572,0,1.04a4.208,4.208,0,0,0,1.382,1.079A3.473,3.473,0,0,1,96,96.807Z" transform="translate(-67.37 -85.103)" fill="#010101"/>
      <path id="Tracé_243" data-name="Tracé 243" d="M204.184,135.125a1.608,1.608,0,0,1-.335,2.126,5.947,5.947,0,0,0-.519.71,6.092,6.092,0,0,1-3.231,2.685c-.283.086-.419.67-.79.31-.4-.386.084-.661.263-.927a20.569,20.569,0,0,1,2.092-2.549A29.807,29.807,0,0,1,204.184,135.125Z" transform="translate(-116.522 -104.569)" fill="#010101"/>
      <path id="Tracé_244" data-name="Tracé 244" d="M62.691,173.417a2.143,2.143,0,0,1,.569-1c.318-.44.6-.873.09-1.359a.185.185,0,0,1-.013-.282.192.192,0,0,1,.288-.041c.592.747,1.53.608,2.293.911.443.176.881.363,1.325.536.628.245,1.26.506,1.778-.2.263.362.194.536-.124.659a32.916,32.916,0,0,1-4.1,1.27c-.259.062-.426.068-.506-.329-.165-.818-.476-.9-1.224-.464C62.985,173.173,62.909,173.247,62.691,173.417Z" transform="translate(-54.155 -120.822)" fill="#010101"/>
      <path id="Tracé_245" data-name="Tracé 245" d="M175.646,115.317a9.974,9.974,0,0,1-1.416,2.563,18.659,18.659,0,0,1-1.673,1.925,1.019,1.019,0,0,1-1.514.2,4.174,4.174,0,0,0-.5-.251l2.573-3.168C174.146,116.571,174.507,115.205,175.646,115.317Z" transform="translate(-103.444 -95.513)" fill="#010101"/>
      <path id="Tracé_246" data-name="Tracé 246" d="M89.423,112.8c.692-.037.639-.907,1.191-1.013-1.073,3.963-2.243,6.891-3.813,7.544a11.042,11.042,0,0,1,.966-3.248,16.89,16.89,0,0,1,1.553-2.781c.094-.142.386-.277.119-.517Z" transform="translate(-65.173 -93.905)" fill="#010101"/>
      <path id="Tracé_247" data-name="Tracé 247" d="M180.971,125.509c1.04-1.605,2.616-2.587,3.79-4.044a2.742,2.742,0,0,1-1.008,2.428c-.525.508-.994,1.072-1.49,1.61C181.721,126.089,181.72,126.088,180.971,125.509Z" transform="translate(-108.21 -98.326)" fill="#010101"/>
      <path id="Tracé_248" data-name="Tracé 248" d="M85.848,144.968a5.51,5.51,0,0,1,.438,1.683,18.63,18.63,0,0,0-6.9-.691A2.43,2.43,0,0,1,82,145.769a7.366,7.366,0,0,0,2.817.037C85.2,145.8,85.4,145.291,85.848,144.968Z" transform="translate(-61.786 -109.067)" fill="#010101"/>
      <path id="Tracé_249" data-name="Tracé 249" d="M108.064,119.185a6.784,6.784,0,0,1,.075,5.681C107.9,123.045,108.465,121.215,108.064,119.185Z" transform="translate(-74.891 -97.284)" fill="#010101"/>
      <path id="Tracé_250" data-name="Tracé 250" d="M105.517,113.155c-.939-1.271-2.61-2.251-1.595-4.506A37.463,37.463,0,0,0,105.517,113.155Z" transform="translate(-72.853 -92.469)" fill="#010101"/>
      <path id="Tracé_251" data-name="Tracé 251" d="M108.164,100.277c.138-.661-.228-1.079-.366-1.559-.041-.141-.06-.315.081-.4.312-.184.212.161.285.261a.325.325,0,0,0,.372.144c.194-.059.1-.222.071-.353-.053-.26,0-.435.321-.372.228.044.586-.029.489.381C109.244,99.109,109.15,99.9,108.164,100.277Z" transform="translate(-74.756 -87.597)" fill="#010101"/>
      <path id="Tracé_252" data-name="Tracé 252" d="M106.409,104.114c.333-.363.243-.855.785-.929.051.541-.211,1.11.116,1.659-.557-.329-1.278-.351-1.5-1.076-.041-.136-.114-.313.063-.383.265-.1.262.13.317.295A3.8,3.8,0,0,0,106.409,104.114Z" transform="translate(-73.839 -89.972)" fill="#010101"/>
      <path id="Tracé_253" data-name="Tracé 253" d="M110.8,102.342c.321-.569.838-1,.974-1.655a.3.3,0,0,1,.249-.159c.089.014.171.129.236.214.168.22.055.4-.081.592A2.764,2.764,0,0,1,110.8,102.342Z" transform="translate(-76.143 -88.757)" fill="#010101"/>
      <path id="Tracé_254" data-name="Tracé 254" d="M115,165.081c.18.569.864.879.813,1.556a5.561,5.561,0,0,1-1.606-1.67c.344-.34.525.279.824.144Z" transform="translate(-77.699 -118.16)" fill="#010101"/>
      <path id="Tracé_255" data-name="Tracé 255" d="M65.879,150.77l.015,0c.229-.094.362-.357.711-.371-.7,1.1-1.743,1.834-2.483,2.83a.252.252,0,0,0-.136-.149c.351-.553.912-.961,1.118-1.614l.011-.012C65.5,151.367,65.657,151.033,65.879,150.77Z" transform="translate(-54.747 -111.548)" fill="#010101"/>
      <path id="Tracé_256" data-name="Tracé 256" d="M106.418,108.13c.277.07.42.1.556.142.467.154.218.546.262.835.026.169-.1.266-.274.244-.344-.044-.332-.34-.391-.582C106.528,108.6,106.488,108.422,106.418,108.13Z" transform="translate(-74.139 -92.232)" fill="#010101"/>
      <path id="Tracé_257" data-name="Tracé 257" d="M106.861,81.177c.156-.192.3-.393.472-.572a.316.316,0,0,1,.377-.116c.179.1.19.291.2.466.022.27-.178.259-.357.258a.62.62,0,0,0-.482.184A.284.284,0,0,0,106.861,81.177Z" transform="translate(-74.341 -79.587)" fill="#010101"/>
      <path id="Tracé_258" data-name="Tracé 258" d="M114.983,97.151c.087-.071.174-.142.262-.21.063.472-.262.75-.634,1.282C114.673,97.676,114.691,97.372,114.983,97.151Z" transform="translate(-77.883 -87.118)" fill="#010101"/>
      <path id="Tracé_259" data-name="Tracé 259" d="M130.306,175.412a.164.164,0,0,1,.217-.1,3.487,3.487,0,0,1,.4,1.064C130.6,175.994,130.352,175.774,130.306,175.412Z" transform="translate(-85.056 -122.932)" fill="#010101"/>
      <path id="Tracé_260" data-name="Tracé 260" d="M100.544,130.426c-.574-.339-.418-.58.009-.8A.978.978,0,0,1,100.544,130.426Z" transform="translate(-71.283 -102.054)" fill="#010101"/>
      <path id="Tracé_261" data-name="Tracé 261" d="M106.775,81.78a.284.284,0,0,1,.215.22c.061.168-.065.341-.159.3C106.6,82.188,106.652,81.971,106.775,81.78Z" transform="translate(-74.255 -80.19)" fill="#010101"/>
      <path id="Tracé_262" data-name="Tracé 262" d="M63.773,155.482c.053.087.05.23.21.212l-.063.011c-.357-.166-.366.409-.7.321a.841.841,0,0,1,.414-.693A.252.252,0,0,1,63.773,155.482Z" transform="translate(-54.398 -113.804)" fill="#010101"/>
      <path id="Tracé_263" data-name="Tracé 263" d="M116.3,99.36q-.055.356-.11.711C115.805,99.769,116.159,99.581,116.3,99.36Z" transform="translate(-78.525 -88.224)" fill="#010101"/>
      <path id="Tracé_264" data-name="Tracé 264" d="M52.721,195.533c.359.2.154.395,0,.588C52.719,195.923,52.72,195.728,52.721,195.533Z" transform="translate(-49.596 -132.176)" fill="#010101"/>
      <path id="Tracé_265" data-name="Tracé 265" d="M134.748,180.706a.146.146,0,0,1,.211-.065c.082.091.079.233.005.268C134.788,180.99,134.77,180.83,134.748,180.706Z" transform="translate(-87.086 -125.361)" fill="#010101"/>
      <path id="Tracé_266" data-name="Tracé 266" d="M191.962,142.8a14.753,14.753,0,0,0,1.444-1.082c.142.934-.67,1.732-.093,2.613-4.52,2.076-7.463,5.687-9.857,9.836a76.6,76.6,0,0,0-5.088,11.361,17.677,17.677,0,0,1-1.072,2.416,11.5,11.5,0,0,0-1.362,4.169,11.841,11.841,0,0,1-1.46,4.364c-.818,1.438-1.689,2.851-2.433,4.327a39.381,39.381,0,0,1-3.3,5.807,12.153,12.153,0,0,0-2.071,6.547,16.324,16.324,0,0,0-.093,1.984,1.568,1.568,0,0,1-.97,1.6c-.419-1.679-1.517-3.062-1.754-4.786a6.471,6.471,0,0,1,.717-4.26c1.552-2.716,3.231-5.354,4.859-8.023a59.259,59.259,0,0,0,5.671-12.041A70.946,70.946,0,0,1,187.621,145.2a14.433,14.433,0,0,1,2.63-2.121c.153-.117.364-.188.246-.377-.31-.5,0-.441.238-.249.426.341.552.152.656-.251.05-.19.18-.367.384-.2.16.133,0,.338-.011.511-.181.184-.415.346-.292.676A1.023,1.023,0,0,0,191.962,142.8Z" transform="translate(-100.35 -107.58)" fill="#010101"/>
      <path id="Tracé_267" data-name="Tracé 267" d="M129.83,98.343c.382-.774.709-1.507,1.1-2.207A35.877,35.877,0,0,1,133.845,92a4.648,4.648,0,0,0,.747-1.315.56.56,0,0,0-.092-.65,1.261,1.261,0,0,0-2.176.209c-.207.43-.393.868-.6,1.3s-.688.654-.833,1.145a41.535,41.535,0,0,0-1.282,4.66C129.559,97.646,129.381,97.991,129.83,98.343Z" transform="translate(-84.702 -83.722)" fill="#010101"/>
      <path id="Tracé_268" data-name="Tracé 268" d="M68.351,146.79l-.086.067c-.021-.03-.061-.063-.058-.089s.052-.046.081-.068Z" transform="translate(-56.676 -109.859)" fill="#010101"/>
      <path id="Tracé_269" data-name="Tracé 269" d="M67.576,147.576c.077-.09.142-.276.287-.11.124.142-.052.227-.127.324Z" transform="translate(-56.387 -110.179)" fill="#010101"/>
      <path id="Tracé_270" data-name="Tracé 270" d="M67.193,147.963a.281.281,0,0,1,.208-.238l.16.213-.179.177Z" transform="translate(-56.212 -110.327)" fill="#010101"/>
      <path id="Tracé_271" data-name="Tracé 271" d="M215.247,143.474a1.023,1.023,0,0,1-.49.4c-.123-.33.111-.492.292-.676Z" transform="translate(-123.635 -108.259)" fill="#010101"/>
      <path id="Tracé_272" data-name="Tracé 272" d="M145.821,93.483l.449-.437a.5.5,0,0,1-.191.666C145.784,93.948,145.883,93.594,145.821,93.483Z" transform="translate(-92.146 -85.338)" fill="#010101"/>
      <path id="Tracé_273" data-name="Tracé 273" d="M129.83,98.343c-.449-.352-.271-.7-.22-.993a41.535,41.535,0,0,1,1.282-4.66c.146-.491.626-.715.833-1.145s.393-.868.6-1.3a1.261,1.261,0,0,1,2.176-.209.56.56,0,0,1,.092.65A4.648,4.648,0,0,1,133.845,92a35.877,35.877,0,0,0-2.919,4.132C130.539,96.836,130.212,97.569,129.83,98.343Z" transform="translate(-84.702 -83.722)" fill="#010101"/>
      <path id="Tracé_274" data-name="Tracé 274" d="M82.664,156c.828,0,1.657.035,2.481-.012.54-.031.631.264.613.661a3.022,3.022,0,0,1-.523,1.413A13.909,13.909,0,0,0,82.664,156Z" transform="translate(-63.283 -114.102)" fill="#010101"/>
      <path id="Tracé_275" data-name="Tracé 275" d="M112.41,90.395l.628.648C112.543,91.1,112.314,90.906,112.41,90.395Z" transform="translate(-76.867 -84.127)" fill="#010101"/>
    </g>
  </g>
</svg>
