<svg xmlns="http://www.w3.org/2000/svg" width="236.82" height="59.984" viewBox="0 0 236.82 59.984">
  <g id="Groupe_297" data-name="Groupe 297" transform="translate(-418 -4938.101)" opacity="0.339">
    <g id="Groupe_249" data-name="Groupe 249" transform="translate(418 4938.101)">
      <g id="Groupe_211" data-name="Groupe 211" transform="translate(74.736 14.01)">
        <path id="Tracé_197" data-name="Tracé 197" d="M348.238,124.131l.317-.391a5.308,5.308,0,0,1,5.713-1.71,4.3,4.3,0,0,1,2.348,1.716,7.841,7.841,0,0,1,1.3,3.194,15.852,15.852,0,0,1-.271,7.169c-.055.2-.134.395-.2.591-1.41,3.97-6.086,4.209-8.464,2.158a7.089,7.089,0,0,1-.892-.968,10,10,0,0,0-.253,1.657c-.037.264-.117.353-.384.35q-1.655-.018-3.31,0c-.259,0-.4-.05-.361-.342a2.539,2.539,0,0,0,0-.342V117.879c0-.676,0-.676.7-.676,1.085,0,2.169,0,3.253,0,.4,0,.4.009.405.408q0,2.966,0,5.932v.558Zm-.18,5.927c.03.49.051,1.156.118,1.817a4.748,4.748,0,0,0,.442,1.7,2.22,2.22,0,0,0,1.426,1.219,2.545,2.545,0,0,0,3.363-2.074,16.823,16.823,0,0,0,.165-4.372,6.408,6.408,0,0,0-.308-1.791,2.406,2.406,0,0,0-2.4-1.665,2.315,2.315,0,0,0-2.361,1.62,4.97,4.97,0,0,0-.229.82A17.158,17.158,0,0,0,348.057,130.058Z" transform="translate(-310.08 -117.202)" fill="#979ca8"/>
        <path id="Tracé_198" data-name="Tracé 198" d="M434.558,136.337c0-.693.006-1.357,0-2.022a1.608,1.608,0,0,0-1.095-1.576,3.354,3.354,0,0,0-1.051-.239,9.516,9.516,0,0,0-4.777.815c-.068.032-.14.054-.248.1-.123-.746-.233-1.472-.366-2.194-.049-.266.118-.326.3-.394a14.98,14.98,0,0,1,3.807-.929,11.971,11.971,0,0,1,3.578.083,4.724,4.724,0,0,1,4.064,4.6,11.364,11.364,0,0,1,.04,1.139q0,4.79,0,9.58a2.24,2.24,0,0,0,0,.285c.034.266-.105.31-.335.308-1.084-.008-2.168-.014-3.252,0-.283,0-.353-.108-.38-.357-.054-.51-.134-1.016-.2-1.523a.111.111,0,0,0-.148.032,4.688,4.688,0,0,1-3.014,1.893,6.767,6.767,0,0,1-3.495-.139A4.141,4.141,0,0,1,425,142.33a7.189,7.189,0,0,1,.008-3.113,5.09,5.09,0,0,1,3.83-3.826,7.127,7.127,0,0,1,3.389-.136,4.623,4.623,0,0,1,2.048.946A.356.356,0,0,0,434.558,136.337Zm-5.289,4.048c.011.228.011.456.036.683a2.263,2.263,0,0,0,2.26,2.2,4.566,4.566,0,0,0,.911-.017,2.129,2.129,0,0,0,1.956-1.713,5,5,0,0,0-.028-2.482,2.163,2.163,0,0,0-1.843-1.714,3.629,3.629,0,0,0-1.471.051,2.142,2.142,0,0,0-1.555,1.372A4.231,4.231,0,0,0,429.269,140.385Z" transform="translate(-361.528 -125.197)" fill="#979ca8"/>
        <path id="Tracé_199" data-name="Tracé 199" d="M306.108,142.3c.19.666.352,1.31.563,1.938.1.31,0,.438-.259.57a12.416,12.416,0,0,1-6.008,1.3,9.592,9.592,0,0,1-2.312-.3,6.319,6.319,0,0,1-4.581-4.216,10.9,10.9,0,0,1,.1-7.594,6.512,6.512,0,0,1,5.989-4.37,9.783,9.783,0,0,1,2.951.166,5.971,5.971,0,0,1,4.737,4.83,16.308,16.308,0,0,1,.268,3.8c0,.213-.07.321-.3.3-.132-.01-.266,0-.4,0h-8.9c-.133,0-.266.006-.4,0-.173-.008-.23.075-.228.239a5.115,5.115,0,0,0,.758,2.878,3.509,3.509,0,0,0,2.878,1.486,10.289,10.289,0,0,0,4.555-.846A1.3,1.3,0,0,1,306.108,142.3Zm-5.69-5.849h.228q1.255,0,2.511,0c.168,0,.368.033.339-.243a6.972,6.972,0,0,0-.725-2.79,2.346,2.346,0,0,0-1.562-1.237,2.71,2.71,0,0,0-3.3,1.566,7,7,0,0,0-.536,2.319c-.034.37-.019.382.361.384C298.63,136.459,299.524,136.455,300.418,136.455Z" transform="translate(-277.781 -125.063)" fill="#979ca8"/>
        <path id="Tracé_200" data-name="Tracé 200" d="M259.569,133.492H257.9q-2.882,0-5.764,0c-.466,0-.47-.005-.473-.464,0-.646-.005-1.293,0-1.939,0-.389.011-.4.418-.4q3.995,0,7.989,0c1.274,0,2.549,0,3.823,0,.4,0,.407.007.409.4,0,.875-.011,1.75.008,2.623a1.11,1.11,0,0,1-.318.811q-3.749,4.26-7.482,8.536c-.132.151-.259.308-.426.507a1.688,1.688,0,0,0,.666.062q3.6,0,7.19,0c.114,0,.228,0,.343,0,.422.01.426.011.429.448,0,.665-.016,1.331.008,2,.012.317-.11.407-.394.375a1.99,1.99,0,0,0-.228,0q-5.991,0-11.984,0c-.625,0-.553.076-.555-.537,0-.818.016-1.636-.008-2.452a1.265,1.265,0,0,1,.339-.921q3.629-4.251,7.238-8.519C259.249,133.883,259.364,133.739,259.569,133.492Z" transform="translate(-251.551 -125.763)" fill="#979ca8"/>
        <path id="Tracé_201" data-name="Tracé 201" d="M397.7,130.932a5.152,5.152,0,0,1,1.346-2.071,3.609,3.609,0,0,1,2.8-1.049c.533.035.539.045.541.559,0,1.065-.007,2.129.006,3.194,0,.288-.078.414-.381.412a3.823,3.823,0,0,0-1.5.3,4.333,4.333,0,0,0-2.758,3.682,10.266,10.266,0,0,0-.065,1.309c-.007,2.053,0,4.107,0,6.16,0,.46-.006.464-.465.465-.87,0-1.74,0-2.61,0a1.09,1.09,0,0,0,.134.585,6.292,6.292,0,0,1,.346,1.495.776.776,0,0,1-.7.936c-.376.066-.669-.145-.821-.623a2.342,2.342,0,0,1-.132-.668c-.009-.814-.113-1.625-.116-2.434-.021-4.448-.01-8.9-.011-13.346a15.738,15.738,0,0,0-.138-2.787c-.022-.121-.156-.314.086-.374s.393.045.437.3c.035.205.094.407.14.61.121.539.12.54.693.54.818,0,1.636,0,2.454,0,.608,0,.593-.113.593.567v2.218Z" transform="translate(-341.403 -123.206)" fill="#979ca8"/>
      </g>
      <g id="Groupe_212" data-name="Groupe 212" transform="translate(157.97 13.955)">
        <path id="Tracé_202" data-name="Tracé 202" d="M553.311,143.781c-1.843,2.149-4.112,2.491-6.627,1.824a3.886,3.886,0,0,1-2.825-2.8,7.233,7.233,0,0,1-.168-3.773,4.916,4.916,0,0,1,3.185-3.609,7.067,7.067,0,0,1,4.476-.242,4.757,4.757,0,0,1,1.786.969c.185-.08.1-.235.106-.35q.014-.8,0-1.6a1.661,1.661,0,0,0-1.293-1.727,5.7,5.7,0,0,0-1.976-.207,9.757,9.757,0,0,0-3.641.846,1.12,1.12,0,0,1-.247.049c-.191-.711-.232-1.434-.375-2.137-.052-.251.113-.324.3-.4a14.484,14.484,0,0,1,3.469-.891,12.632,12.632,0,0,1,3.525-.023,4.706,4.706,0,0,1,4.056,2.977,6.089,6.089,0,0,1,.4,1.888c.022.417.021.836.021,1.254q0,4.564,0,9.128c0,.076,0,.152,0,.228-.007.5-.007.509-.491.511-.8,0-1.6.011-2.4,0-.333-.007-.745.154-.98-.1-.2-.218-.135-.615-.172-.936C553.419,144.389,553.365,144.114,553.311,143.781Zm-.07-3.588c0-.133.008-.266,0-.4-.115-1.67-.889-2.812-2.93-2.672a2.284,2.284,0,0,0-2.191,1.751,5.2,5.2,0,0,0-.094,2.2,2.156,2.156,0,0,0,1.805,1.945,4,4,0,0,0,1.584,0,2.1,2.1,0,0,0,1.7-1.645A3.455,3.455,0,0,0,553.241,140.192Z" transform="translate(-520.091 -125.016)" fill="#979ca8"/>
        <path id="Tracé_203" data-name="Tracé 203" d="M643.632,138.517h-4.393c-.133,0-.267.005-.4,0-.242-.01-.356.1-.332.342a6.9,6.9,0,0,0,.481,2.272,3.311,3.311,0,0,0,2.523,1.923,8.282,8.282,0,0,0,3.882-.305,10.906,10.906,0,0,0,1.554-.555c.254-.115.375-.062.444.217.139.552.283,1.105.47,1.642.109.312,0,.44-.258.57a11.776,11.776,0,0,1-3.337,1.114,12.055,12.055,0,0,1-4.424.012,6.438,6.438,0,0,1-5.294-4.832,10.938,10.938,0,0,1,.281-7.159,6.528,6.528,0,0,1,5.8-4.3,9.5,9.5,0,0,1,3.5.256,5.748,5.748,0,0,1,4.076,3.8,12.909,12.909,0,0,1,.547,4.725c0,.189-.083.28-.273.277-.133,0-.266,0-.4,0Zm-2.033-2.275c.892,0,1.785.005,2.677,0,.382,0,.4-.016.377-.387a6.239,6.239,0,0,0-.607-2.467,2.5,2.5,0,0,0-2.372-1.483,2.578,2.578,0,0,0-2.434,1.4,5.96,5.96,0,0,0-.651,2.454c-.035.475-.02.484.445.487C639.89,136.246,640.745,136.242,641.6,136.242Z" transform="translate(-577.572 -124.885)" fill="#979ca8"/>
        <path id="Tracé_204" data-name="Tracé 204" d="M587.029,130.593a.732.732,0,0,1,.443-.056q1.827-.005,3.654,0c.538,0,.541,0,.725.492q1.72,4.59,3.438,9.181c.066.176.139.351.224.565A2.352,2.352,0,0,0,595.9,140q1.854-4.476,3.7-8.957c.211-.511.214-.511.783-.512h2.805a.9.9,0,0,1-.154.606q-3.165,7.357-6.331,14.714a.615.615,0,0,1-.676.445c-.741-.027-1.484-.007-2.226-.009-.5,0-.5,0-.694-.472q-2.013-4.966-4.023-9.932c-.635-1.568-1.273-3.134-1.9-4.7C587.109,131,586.973,130.817,587.029,130.593Z" transform="translate(-547.7 -125.605)" fill="#979ca8"/>
        <path id="Tracé_205" data-name="Tracé 205" d="M485.846,118.165v3.508c0,.171,0,.343,0,.514.006.494.007.5.5.5.8,0,1.6.011,2.4,0,.294-.005.4.091.393.391q-.026,1,0,2c.008.306-.116.393-.4.389-.8-.012-1.6-.008-2.4,0-.481,0-.492.01-.493.47q0,3.822.005,7.645a5.114,5.114,0,0,0,.1.9,1.516,1.516,0,0,0,1.484,1.332,4.415,4.415,0,0,0,1.587-.087c.277-.083.413-.013.481.289.1.462.266.911.392,1.369s.1.487-.355.671a7.2,7.2,0,0,1-1.935.458,9.13,9.13,0,0,1-2.391.006,4.093,4.093,0,0,1-3.38-2.87,6.562,6.562,0,0,1-.369-2.295c.006-2.4,0-4.792,0-7.189,0-.133,0-.266,0-.4.007-.219-.108-.306-.314-.305-.457,0-.914-.007-1.37,0-.245,0-.4-.047-.39-.343.013-.7.011-1.407,0-2.111,0-.259.117-.323.349-.318.476.009.951,0,1.427,0,.22,0,.3-.089.3-.305-.007-.456,0-.913,0-1.369a.468.468,0,0,1,.228-.476c1.326-.783,2.646-1.576,3.97-2.362C485.693,118.16,485.736,118.171,485.846,118.165Z" transform="translate(-479.394 -117.758)" fill="#979ca8"/>
        <path id="Tracé_206" data-name="Tracé 206" d="M518.428,132.823a1.355,1.355,0,0,0,.312-.567,4.422,4.422,0,0,1,3.094-2.629,2.372,2.372,0,0,1,.281-.044c1.085-.093,1.114-.066,1.114,1.016,0,.912-.008,1.825,0,2.737,0,.263-.081.362-.349.392a6.9,6.9,0,0,0-.955.149,4.341,4.341,0,0,0-3.285,3.615,9.267,9.267,0,0,0-.106,1.419c.007,2.015,0,4.029,0,6.044,0,.133-.006.266,0,.4.01.2-.055.306-.285.322-.271.019-.637-.152-.788.115-.11.2,0,.516.011.78.04,1.234.083,2.468.114,3.7a2.009,2.009,0,0,0,.181.712,3.506,3.506,0,0,1,.21,1.568.6.6,0,0,1-.537.629.559.559,0,0,1-.66-.41,2.8,2.8,0,0,1-.208-1.109c0-1.749,0-3.5-.007-5.246,0-.133-.012-.267,0-.4.023-.248-.1-.346-.328-.346l-1.484,0c-.57,0-.574,0-.574-.542q0-7.355,0-14.71c0-.5.005-.5.5-.5q1.654,0,3.309,0c.426,0,.432.01.435.448C518.431,131.159,518.428,131.957,518.428,132.823Z" transform="translate(-501.476 -124.983)" fill="#979ca8"/>
        <path id="Tracé_207" data-name="Tracé 207" d="M687.641,127.4v9.582c0,.152-.007.3,0,.456.011.22-.088.3-.3.3q-1.883-.008-3.767,0c-.22,0-.311-.089-.3-.3.008-.133,0-.266,0-.4q0-9.64,0-19.279c0-.776-.083-.7.7-.7q1.57-.005,3.139,0c.521,0,.526.005.526.536Q687.642,122.494,687.641,127.4Z" transform="translate(-608.792 -117.05)" fill="#979ca8"/>
      </g>
      <g id="Groupe_213" data-name="Groupe 213" transform="translate(75.271 38.893)">
        <path id="Tracé_208" data-name="Tracé 208" d="M356.1,194.956c-.864.316-1.135-.206-1.314-.811-.179-.048-.226.079-.3.157a2.314,2.314,0,0,1-2.676.734,2.54,2.54,0,0,1-1.7-2.294,3.292,3.292,0,0,1,1.3-3.059q.154-.127.312-.25c.36-.282.36-.282.175-.725a3.279,3.279,0,0,1-.345-1.708,1.842,1.842,0,0,1,2.06-1.678.774.774,0,0,1,.113.01c.913.214.883.081.778,1.055-.2-.073-.389-.156-.588-.213a1.121,1.121,0,0,0-1.537,1.19,2.284,2.284,0,0,0,.259.983c.638,1.252,1.291,2.5,1.939,3.742.025.048.058.1.176.066a8.35,8.35,0,0,0,.256-2.463c.058-.034.09-.068.122-.069.893-.022.715-.095.694.7a7.305,7.305,0,0,1-.5,2.5.8.8,0,0,0,.054.747C355.633,194.023,355.857,194.482,356.1,194.956Zm-3.655-5.151a2.677,2.677,0,0,0-1.388,3.075,1.676,1.676,0,0,0,1.911,1.462,1.977,1.977,0,0,0,1.18-.738.382.382,0,0,0,.053-.5C353.617,192.015,353.041,190.925,352.445,189.8Z" transform="translate(-314.63 -185.315)" fill="#979ca8"/>
        <path id="Tracé_209" data-name="Tracé 209" d="M408.363,199.454c-.221.085-.285.232-.392.332a1.74,1.74,0,0,1-2.508-.013,3.226,3.226,0,0,1-.933-1.854,4.547,4.547,0,0,1,.269-2.629,3.21,3.21,0,0,1,.91-1.224,1.828,1.828,0,0,1,2.4.026c.072.06.141.124.2.18.183-.047.165-.209.216-.321.122-.271.358-.166.548-.162.237,0,.17.211.17.348,0,2.225.005,4.451,0,6.676a3.456,3.456,0,0,1-.117.846,2.408,2.408,0,0,1-3.159,1.707,1.925,1.925,0,0,1-.318-.125c-.809-.438-.833-.252-.712-1.33.139-.026.186.106.275.163.208.133.4.29.62.4a1.582,1.582,0,0,0,2.456-1.1,1.738,1.738,0,0,0,.069-.391C408.368,200.5,408.363,200,408.363,199.454Zm0-2.84h.007c0-.38,0-.76,0-1.14a.545.545,0,0,0-.076-.381,1.434,1.434,0,0,0-2.152-.254,2.12,2.12,0,0,0-.571.907,4.139,4.139,0,0,0-.015,2.577,2.39,2.39,0,0,0,.334.656,1.215,1.215,0,0,0,2.062,0,2.173,2.173,0,0,0,.408-1.225C408.378,197.374,408.367,196.993,408.367,196.613Z" transform="translate(-349.131 -190.592)" fill="#979ca8"/>
        <path id="Tracé_210" data-name="Tracé 210" d="M312.155,194.5c.861-1.111,2.238-1.264,2.994.1.1-.14.195-.277.3-.4a1.566,1.566,0,0,1,1.7-.509,1.406,1.406,0,0,1,1.041,1.231,3.861,3.861,0,0,1,.063.68q.009,2.111,0,4.222c0,.153.109.39-.112.447a2.094,2.094,0,0,1-.678.007c-.072-.006-.084-.112-.082-.191,0-.114,0-.228,0-.342v-3.879c0-.114,0-.228,0-.342-.01-.576-.216-.938-.6-1.057a1.082,1.082,0,0,0-1.224.516,1.963,1.963,0,0,0-.356,1.179q.008,1.825,0,3.651c0,.157.1.4-.1.457a2,2,0,0,1-.676.01c-.086,0-.1-.1-.1-.175,0-.133,0-.266,0-.4q0-2.139,0-4.279c0-.4-.072-.77-.5-.936a1.115,1.115,0,0,0-1.191.345,2.146,2.146,0,0,0-.484,1.482c0,1.179,0,2.358,0,3.537,0,.144.081.367-.078.414a2.075,2.075,0,0,1-.673.01c-.027,0-.063-.088-.07-.138a2.173,2.173,0,0,1-.007-.285q0-2.824,0-5.648c0-.141-.081-.351.091-.407a1.478,1.478,0,0,1,.564,0c.081.007.105.1.116.176C312.11,194.12,312.126,194.268,312.155,194.5Z" transform="translate(-290.007 -190.587)" fill="#979ca8"/>
        <path id="Tracé_211" data-name="Tracé 211" d="M393.583,199.656c.027.719-.236.922-.91.779-.458-.1-.562-.461-.69-.883-.139.138-.25.248-.359.358a1.675,1.675,0,0,1-1.879.441,1.771,1.771,0,0,1-1.181-1.544,1.859,1.859,0,0,1,1.319-2.124,7.742,7.742,0,0,1,1.836-.372c.218-.023.294-.1.288-.314a1.885,1.885,0,0,0-.161-.941,1.321,1.321,0,0,0-1.6-.532,3.922,3.922,0,0,0-.621.278c-.182.094-.353.211-.494.3-.092.007-.1-.017-.106-.068-.026-.88-.028-.883.775-1.185a3.125,3.125,0,0,1,.6-.172,1.966,1.966,0,0,1,2.475,2.078c.029.967.007,1.936.008,2.9,0,.133,0,.266,0,.4C392.895,199.645,392.934,199.68,393.583,199.656ZM392,196.983a5.634,5.634,0,0,0-1.894.4,1.231,1.231,0,0,0-.549,1.657,1.149,1.149,0,0,0,1.56.507,1.54,1.54,0,0,0,.768-.947A5.553,5.553,0,0,0,392,196.983Z" transform="translate(-339.034 -190.595)" fill="#979ca8"/>
        <path id="Tracé_212" data-name="Tracé 212" d="M425.02,198.7c.049.074.065.087.066.1.043.882,0,.957-.792,1.355a2.425,2.425,0,0,1-3.528-1.29,4.556,4.556,0,0,1,.04-3.659,2.385,2.385,0,0,1,2.364-1.557A2.174,2.174,0,0,1,425.2,195.5a9.114,9.114,0,0,1,.1.963c.028.252-.083.327-.326.325-.989-.01-1.978,0-2.967,0-.7,0-.7,0-.66.717a2.831,2.831,0,0,0,.353,1.307,1.629,1.629,0,0,0,2.2.713A4.435,4.435,0,0,0,425.02,198.7Zm-.7-2.661c-.019-1.013-.522-1.606-1.3-1.6a1.625,1.625,0,0,0-1.513,1.6Z" transform="translate(-359.254 -190.605)" fill="#979ca8"/>
        <path id="Tracé_213" data-name="Tracé 213" d="M338.773,197.056a4.866,4.866,0,0,1-.452,2.034,2.319,2.319,0,0,1-2.58,1.331,2.077,2.077,0,0,1-1.349-.875,3.869,3.869,0,0,1-.7-2.077,4.413,4.413,0,0,1,.549-2.634,2.246,2.246,0,0,1,3.935-.07A4.3,4.3,0,0,1,338.773,197.056Zm-.906-.041a3.336,3.336,0,0,0-.572-2.041,1.361,1.361,0,0,0-2.161.022,2.258,2.258,0,0,0-.336.654,4.709,4.709,0,0,0-.085,2.582,2.408,2.408,0,0,0,.434.919,1.322,1.322,0,0,0,1.961.171,1.933,1.933,0,0,0,.547-.852A4.322,4.322,0,0,0,337.868,197.015Z" transform="translate(-304.214 -190.597)" fill="#979ca8"/>
        <path id="Tracé_214" data-name="Tracé 214" d="M268.194,194.024a1,1,0,0,1,.055.517q0,2.71,0,5.42c0,.631.088.561-.585.566-.073,0-.146-.01-.27-.019v-.774c-.213.2-.342.322-.473.442a1.8,1.8,0,0,1-1.854.419,1.627,1.627,0,0,1-1.11-1.4,3.279,3.279,0,0,1-.068-.564q-.009-2.111,0-4.222c0-.134-.09-.34.117-.388a1.133,1.133,0,0,1,.675.016c.134.054.075.239.075.367q0,1.911,0,3.823c0,.19,0,.38.007.57a1.006,1.006,0,0,0,.555.986,1.263,1.263,0,0,0,1.3-.144,1.762,1.762,0,0,0,.667-1.032,3.465,3.465,0,0,0,.11-.9c-.007-1.065,0-2.13,0-3.195,0-.578-.057-.5.524-.509C268.013,194,268.107,194.018,268.194,194.024Z" transform="translate(-259.906 -190.816)" fill="#979ca8"/>
        <path id="Tracé_215" data-name="Tracé 215" d="M437.845,194.638c.2-.216.315-.342.434-.462a1.829,1.829,0,0,1,1.894-.47,1.634,1.634,0,0,1,1.135,1.376,2.422,2.422,0,0,1,.05.509q.007,2.167,0,4.333c0,.374-.009.374-.432.373s-.434,0-.435-.38c0-1.292,0-2.585,0-3.877a5,5,0,0,0-.02-.569,1.1,1.1,0,0,0-1.811-.8,1.862,1.862,0,0,0-.741,1.176,4.8,4.8,0,0,0-.064,1.022c0,1.027,0,2.053,0,3.079,0,.351-.012.338-.462.351-.271.008-.4-.035-.4-.363.017-1.938.009-3.877.007-5.816,0-.2,0-.359.288-.357.455,0,.487,0,.52.309C437.824,194.222,437.828,194.369,437.845,194.638Z" transform="translate(-369.784 -190.586)" fill="#979ca8"/>
        <path id="Tracé_216" data-name="Tracé 216" d="M456.066,195.04c-.206-.014-.326-.182-.485-.274a2.245,2.245,0,0,0-1.478-.3,1.226,1.226,0,0,0-.82.468.789.789,0,0,0,.194,1.229,3.246,3.246,0,0,0,.888.378,5.3,5.3,0,0,1,1.164.455,1.672,1.672,0,0,1,.306,2.814,2.672,2.672,0,0,1-2.615.544,2.774,2.774,0,0,1-.324-.108c-.77-.3-.791-.342-.664-1.265.2.123.386.245.579.353a2.3,2.3,0,0,0,1.7.292,1.446,1.446,0,0,0,.817-.485.9.9,0,0,0-.239-1.416,4.077,4.077,0,0,0-.95-.378,7.542,7.542,0,0,1-1.108-.442,1.6,1.6,0,0,1-.4-2.557,2.446,2.446,0,0,1,2.423-.614,1.437,1.437,0,0,1,.273.081C456.219,194.2,456.154,194.024,456.066,195.04Z" transform="translate(-379.412 -190.605)" fill="#979ca8"/>
        <path id="Tracé_217" data-name="Tracé 217" d="M296.491,198.956a3.727,3.727,0,0,0,1.547.708,1.819,1.819,0,0,0,1.352-.309.94.94,0,0,0-.148-1.693c-.278-.12-.563-.226-.85-.321a7.736,7.736,0,0,1-1.1-.45,1.586,1.586,0,0,1-.391-2.518,2.442,2.442,0,0,1,2.411-.651,1.877,1.877,0,0,1,.217.069c.893.286.893.286.854,1.229-.2.067-.3-.123-.427-.2a2.3,2.3,0,0,0-1.52-.356,1.306,1.306,0,0,0-.673.28.836.836,0,0,0,.11,1.486,4.816,4.816,0,0,0,1.061.4,3.863,3.863,0,0,1,1.035.461,1.624,1.624,0,0,1,.349,2.515,2.629,2.629,0,0,1-2.754.77,1.5,1.5,0,0,1-.271-.087C296.267,199.847,296.439,199.959,296.491,198.956Z" transform="translate(-280.58 -190.606)" fill="#979ca8"/>
        <path id="Tracé_218" data-name="Tracé 218" d="M372.244,194.091c-.282.91-.568,1.829-.852,2.75-.352,1.141-.712,2.279-1.046,3.425-.091.313-.3.285-.526.282s-.418.033-.516-.29c-.615-2.031-1.26-4.053-1.893-6.079a.373.373,0,0,1,0-.109.464.464,0,0,1,.111-.038c.781-.05.78-.049.991.7q.578,2.052,1.155,4.1a1.22,1.22,0,0,0,.166.423.824.824,0,0,0,.188-.456q.585-2.139,1.172-4.277c.14-.509.142-.51.686-.5A.571.571,0,0,1,372.244,194.091Z" transform="translate(-325.618 -190.836)" fill="#979ca8"/>
        <path id="Tracé_219" data-name="Tracé 219" d="M255.965,196.416c.092.9.128.854-.767.93-.792.068-1.262-.408-1.275-1.252-.019-1.2-.005-2.391-.006-3.587,0-.114.006-.228,0-.342-.015-.225.088-.487-.049-.665s-.39-.063-.59-.07c-.3-.009-.251-.214-.259-.4-.01-.206,0-.355.285-.367.611-.025.611-.042.644-.635.024-.415.044-.83.067-1.249a.737.737,0,0,1,.171-.047c.717-.006.593-.038.6.608,0,.323.021.647,0,.967s.113.4.394.366a3.507,3.507,0,0,1,.456,0c.377.01.378.012.374.38s-.007.358-.389.377c-.26.013-.586-.113-.763.067s-.062.506-.063.766c-.007,1.158-.006,2.315,0,3.473,0,.8.247.962,1.031.71C255.853,196.434,255.889,196.431,255.965,196.416Z" transform="translate(-253.016 -187.483)" fill="#979ca8"/>
        <path id="Tracé_220" data-name="Tracé 220" d="M281.134,194.644c.177-.214.287-.36.411-.5a1.414,1.414,0,0,1,1.218-.494c.491.042.544.091.544.575,0,.093-.008.187-.009.217-.035.109-.061.119-.1.11a1.6,1.6,0,0,0-2.057,1.627c-.034.415-.015.834-.015,1.252,0,.854-.008,1.708,0,2.562,0,.25-.084.321-.325.324-.531.007-.535.019-.535-.513q0-2.79,0-5.579c0-.393.288-.573.661-.429a.179.179,0,0,1,.117.17C281.069,194.158,281.094,194.346,281.134,194.644Z" transform="translate(-270.309 -190.604)" fill="#979ca8"/>
        <path id="Tracé_221" data-name="Tracé 221" d="M291.739,197.286c0,.967-.018,1.935.01,2.9.01.356-.165.351-.413.349-.455-.005-.468,0-.468-.348q-.007-2.9,0-5.8c0-.136-.069-.343.155-.363a1.078,1.078,0,0,1,.662.043c.1.062.052.211.052.32C291.74,195.352,291.739,196.319,291.739,197.286Z" transform="translate(-277.034 -190.821)" fill="#979ca8"/>
        <path id="Tracé_222" data-name="Tracé 222" d="M382.937,197.257c0-.948,0-1.9,0-2.845,0-.132-.093-.34.126-.378a1.433,1.433,0,0,1,.675.021c.033.011.055.095.061.148a2.457,2.457,0,0,1,.007.284c0,1.859,0,3.717,0,5.576,0,.153.106.389-.11.447a1.632,1.632,0,0,1-.674.005c-.127-.021-.083-.191-.083-.3,0-.8,0-1.593,0-2.389Z" transform="translate(-335.466 -190.83)" fill="#979ca8"/>
        <path id="Tracé_223" data-name="Tracé 223" d="M383.763,186.982a2.57,2.57,0,0,1-.079.447.431.431,0,0,1-.44.3.424.424,0,0,1-.432-.3,1.359,1.359,0,0,1-.036-.836c.094-.325.23-.441.506-.427s.407.16.457.483C383.754,186.737,383.753,186.833,383.763,186.982Z" transform="translate(-335.341 -185.851)" fill="#979ca8"/>
      </g>
      <g id="Groupe_214" data-name="Groupe 214" transform="translate(0 0)">
        <path id="Tracé_224" data-name="Tracé 224" d="M182.738,137.007l-.133-.185c.007-.117.115-.255.008-.344-.138-.114-.225,0-.259.133-.07.271-.155.4-.441.169-.162-.13-.369-.166-.16.167.079.127-.063.175-.165.253a9.708,9.708,0,0,0-1.769,1.427,47.732,47.732,0,0,0-8.423,15.086,39.868,39.868,0,0,1-3.815,8.1c-1.1,1.8-2.224,3.571-3.269,5.4a4.354,4.354,0,0,0-.482,2.866c.16,1.16.9,2.091,1.18,3.22a1.055,1.055,0,0,0,.653-1.077,10.974,10.974,0,0,1,.063-1.335,8.176,8.176,0,0,1,1.394-4.4,26.5,26.5,0,0,0,2.217-3.907c.5-.993,1.087-1.943,1.637-2.911a7.966,7.966,0,0,0,.982-2.936,7.735,7.735,0,0,1,.917-2.8,11.9,11.9,0,0,0,.721-1.626,51.53,51.53,0,0,1,3.423-7.643,15.024,15.024,0,0,1,6.632-6.617c-.388-.593.158-1.13.063-1.758A9.925,9.925,0,0,1,182.738,137.007Zm-1.191-3.7c.043-.088.023-.163-.018-.154a.3.3,0,0,0-.16.125c-.035.05-.052.146.045.141C181.469,133.414,181.52,133.329,181.546,133.306Z" transform="translate(-121.102 -113.315)" fill="#979ca8"/>
        <path id="Tracé_225" data-name="Tracé 225" d="M115.776,114.158a12.643,12.643,0,0,1-1.456-4.643c-.341-2.18-.425-4.386-.611-6.581a1.451,1.451,0,0,1,.223-.908,24.405,24.405,0,0,0,2.66-6.422.974.974,0,0,1,.422-.737c.2-.112.145-.4.193-.618.068-.308-.173-.384-.375-.458-.235-.087-.247-.337-.446-.544a1.081,1.081,0,0,1-.3.916,2.742,2.742,0,0,0-.423.779,19.438,19.438,0,0,0-1.55,5.245,1.649,1.649,0,0,1-.8,1.5,3.752,3.752,0,0,1-.177-1.159,19.3,19.3,0,0,1,.5-4.194c.162-.825.33-1.65.473-2.479a1.43,1.43,0,0,0-.295-1.445c-.225-.213.072-.251.2-.324a.385.385,0,0,0,.419.366.632.632,0,0,0-.154-.59l-.269.234-.218-.468a13.909,13.909,0,0,0-1.123,3.731,27.716,27.716,0,0,0-.082,6.737,55.606,55.606,0,0,0,1.487,7.788,8.437,8.437,0,0,1,.248,2.338c-.441-.209-.5-.611-.593-.964a9.45,9.45,0,0,1-.2-1.692c-.03-.343-.137-.634-.588-.479a.847.847,0,0,0-.183-.732c-.384-.823-.757-1.652-1.152-2.469a10.869,10.869,0,0,1-.978-5.925c.184-1.871.353-3.743.564-5.611.139-1.228.342-2.449.514-3.674.031-.219.048-.44.075-.7-.4.118-.5.7-1,.564-.042-.012-.154.173-.209.28-.136.263-.251.537-.385.8-.16.317-.248.728-.788.462-.172-.084-.353.14-.481.289-.257.3-.5.607-.8.975a11.225,11.225,0,0,0-.613-1.7c-.166-.386-.095-.464.309-.515.53-.067.552-.09.564-.637a3.694,3.694,0,0,0-.014-.445,1.084,1.084,0,0,1,.674-1.241,3.72,3.72,0,0,0,1.7-1.793.979.979,0,0,0,.274-.576c.047-.328-.171-.042-.259-.076.129-.828.387-1.628.476-2.468.145-1.38.221-2.762.282-4.147a.756.756,0,0,1,.414-.766c.215-.113.427-.142.513-.015.133.2.11.61-.083.656-.735.174-.521.72-.553,1.178-.074,1.036-.151,2.073-.219,3.11a5.225,5.225,0,0,0,.3,2.48.866.866,0,0,1-.039.784.389.389,0,0,0,.219.6c.2.092.386.228.594.3.435.148.54.072.623-.4a29.938,29.938,0,0,1,1.995-6.036l.112.424a.769.769,0,0,0,.269-.72c0-.271.073-.635-.069-.787-.125-.134-.435-.158-.658-.3-.351-.225-.259.329-.5.362-.165-.125-.038-.283-.046-.428a.39.39,0,0,0-.591-.353,1.6,1.6,0,0,1-.6.264c-.019,0-.039-.019-.058-.03a1.483,1.483,0,0,1,.48-1.212c.193.091.136.511.479.411a1.93,1.93,0,0,1,.735.049,1.666,1.666,0,0,0,.7-.172c.193.184-.009.459.224.661.158-.517.767.064.975-.555.054.4-.079.665.006.928.117.028.161-.065.221-.132.374-.416.362-.392.882-.132.171.086.344.342.636.115.18-.14.345.112.5.225.175.129.3.364.533.369.218,0,.263-.279.448-.353a.467.467,0,0,1,.15,0c.028.242-.193.381-.252.583-.224.2-.136.679-.6.674-.16.1-.2.351-.433.351-.124-.163.062-.388-.136-.571-.245.169-.289.524-.581.632,0-.294-.067-.5-.425-.344a1.923,1.923,0,0,0-.854.893,11.16,11.16,0,0,1-.625,1.242l-.2-.289c-.354,1.316-.858,2.54-1.106,3.841-.088.46-.142.926-.207,1.391-.02.145-.074.339.068.415a5.646,5.646,0,0,0,1.146.668c.281.075.4-.065.476-.315a8.591,8.591,0,0,1,1.179-2.46c.461-.671.949-1.325,1.444-1.972.178-.233.272-.582.678-.57a.142.142,0,0,0,.093-.226c-.3-.295-.01-.416.149-.576a2.822,2.822,0,0,0,.793-.954c-.423.062-.32-.437-.595-.523-.144.017-.16.138-.235.192s-.093.321-.225.1c-.08-.132-.391-.073-.275-.335a4.263,4.263,0,0,1,.216-.383c.179.03.339-.1.258-.217-.215-.32.122-.4.194-.595.155-.073.306-.155.465-.218.26-.1.279.084.3.261-.113.254-.446.4-.406.832a1.665,1.665,0,0,0,.537-.653c.176-.074.293.179.484.08.118-.061.189.007.136.133-.117.278.033.293.24.255a.762.762,0,0,1,.682.208c.212.194.387.458.736.2.135-.1.2.074.268.166a1.606,1.606,0,0,1,.341.935c.338-.1.577-.366.932-.338.162.111-.019.2-.031.3-.029.223.037.34.279.293.13-.025.3-.141.271.143a2.287,2.287,0,0,0-.227.28c-.039.069.038.159.1.119.143-.095.342-.207.1-.409a4.844,4.844,0,0,1,1.294.2c.088.029.126.057.11.134-.036.171-.046.291.2.235.19-.044.4-.1.421.227.008.144.152.109.222.068.314-.186.344.183.518.267.134.066.11.115-.141.515.177.129.233-.126.352-.115.23.022-.005.255.128.329.107.059.246.178.325.148.253-.094.486.024.724.031.131,0-.02.338.327.408.312.064.59.367,1.013.465.092.255-.159.426-.205.659a2.19,2.19,0,0,0,.959-.181c.155.159-.034.316-.006.461.047.107.131.085.195.065.271-.087.746-.083.75.05.012.522.637.377.72.77.02.1.133.12.237.05s.236-.243.368-.053c.074.106-.009.234-.066.345a3.266,3.266,0,0,0-.15.339.2.2,0,0,0,.079.258c.136.088.141-.079.213-.114s.209-.2.2-.056c-.018.488.346.117.513.263a1.807,1.807,0,0,0-.215.985c.453,0,.519-.528.894-.59.171.259-.065.54.083.82.266-.071.194-.521.532-.5.108.17-.071.266-.1.4-.037.156-.005.242.179.155.037-.018.111-.023.129,0,.157.186.6.51.721.459.523-.23.753.332,1.174.422.535.114.452.676.469,1.105.248.03.351-.33.613-.183-.328.553-.468.655-1.292.947-.1-.177.134-.317.029-.536a2.857,2.857,0,0,0-1.01.274c-.061.02-.157.119-.149.133.356.641-.235.514-.512.624a.306.306,0,0,0-.218.256,1.626,1.626,0,0,1-.639.877,15.659,15.659,0,0,0-3.094,3.872,52.61,52.61,0,0,0-2.456,4.826,36.614,36.614,0,0,1-3.813,6.524,20.038,20.038,0,0,0-2.319,3.879,8.328,8.328,0,0,1-1.239,1.844c-.358.443-.724.88-1.066,1.334a4.861,4.861,0,0,0-1.047,2.881c0,.1-.006.2-.015.3,0,.014-.035.026-.131.091a14.19,14.19,0,0,1-1.7-2.808,3.861,3.861,0,0,1,.414-3.359,25.219,25.219,0,0,0,2.623-6.115c.03-.095.062-.188.089-.283a2.373,2.373,0,0,1,1.3-1.578,9.705,9.705,0,0,0,3.27-2.976,15.885,15.885,0,0,0,1.577-2.512,8.57,8.57,0,0,1,1.58-2.139c1.187-1.234,2.491-2.339,3.78-3.462a3.213,3.213,0,0,0,.733-.948c.2-.371.5-.71.685-1.118.226-.5.329-1.1.988-1.292.151-.043.09-.15-.024-.256s.05-.273.03-.419a.672.672,0,0,0,.092-.108c.043-.078.134-.173.052-.249s-.148.057-.224.09a.622.622,0,0,0-.115.084c-.2-.041-.316-.309-.613-.141-.423.239-1,.142-1.283.628-.3-.258.164-.448-.08-.669-.175.274-.339.549-.519.812s-.332.541-.73.546c-.238,0-.359.243-.5.414a63.921,63.921,0,0,0-6.821,9.8c-.262.476-.548.941-.853,1.391a3.614,3.614,0,0,1-1.176,1.118c-.15.087-.325.314-.513.08-.141-.175-.417-.282-.3-.614.122-.349.178-.72.279-1.076a20.631,20.631,0,0,1,3.383-6.643c1.14-1.533,2.423-2.945,3.681-4.379.6-.689,1.193-1.391,1.792-2.085a1.7,1.7,0,0,0,.425-1.156.432.432,0,0,0-.176-.333c-.323-.313-.465-.051-.639.147-.138-.248.111-.386.1-.648-.2.108-.366.192-.526.279-.207.113-.389.221-.528-.109-.112-.269-.331-.187-.473-.026-.21.239-.384.51-.6.81-.065-.227.157-.441-.06-.6-.216.02-.237.227-.334.358-.251.337-.467.7-.744,1.019a24.969,24.969,0,0,0-4.474,7.7,29.172,29.172,0,0,1-1.576,3.6,8.3,8.3,0,0,0-.758,3.008,18.326,18.326,0,0,1-1.49,5.185,20.141,20.141,0,0,0-1.445,4.045,5.881,5.881,0,0,0-.122,2.573.1.1,0,0,0-.142.044,8.921,8.921,0,0,1-1.085-5.652,34.544,34.544,0,0,1,1.924-7.909c.4-1.2.807-2.389,1.192-3.588a6.23,6.23,0,0,1,.7-1.387,9.824,9.824,0,0,0,1.745-3.572c.015-.092.024-.212.163-.192.248.035.285-.138.321-.31.062-.292-.214-.086-.247-.158a.2.2,0,0,1,.2-.3c.591.152.876-.269,1.161-.617.832-1.014,1.629-2.056,2.439-3.088.06-.905.9-1.363,1.219-2.122a1.738,1.738,0,0,0,.254-.984c-.258.03-.25.377-.538.376-.027-.208.217-.466-.079-.637-.239.029-.121.365-.4.418a1.283,1.283,0,0,0-.213-.891c-2.335.956-5.047,4.9-5.126,7.5.2.1.4-.2.636.021a.637.637,0,0,0-.216.776c.067.243.037.445-.307.424a1.957,1.957,0,0,0-1.793,1.111,6.549,6.549,0,0,0-.7,1.469,69.827,69.827,0,0,0-2.613,8.808,22.879,22.879,0,0,0-.533,6.561,6.673,6.673,0,0,0,.428,1.946A.11.11,0,0,0,115.776,114.158Zm5.6-29.913c-.26.158-.2.727-.723.558-.018-.006-.084.11-.116.174-.54,1.089-1.263,2.069-1.85,3.13a9.107,9.107,0,0,0-.923,2.417c-.07.309-.083.582.278.742.176.079.312.246.486.336.418.216.594.163.83-.26a15.425,15.425,0,0,1,2.209-2.974c.894-.962,1.805-1.906,2.709-2.859.284-.3.283-.3.228-.82a.456.456,0,0,0-.612-.39,4.646,4.646,0,0,0-.557.363c-.232.156-.448.359-.806.274a6.071,6.071,0,0,0,.426-.562c.072-.121.136-.311-.008-.406s-.245-.313-.5-.164a3.857,3.857,0,0,1-.693.248C121.526,83.921,121.447,84.076,121.375,84.245Z" transform="translate(-85.332 -78.851)" fill="#979ca8"/>
        <path id="Tracé_226" data-name="Tracé 226" d="M153.28,139.511c-2.447,2.878-3.583,6.322-4.292,10.075-.882-1.3-1.908-2.369-2.229-3.85a3.906,3.906,0,0,1,1.214-4.1,15.4,15.4,0,0,0,3.1-3.967c1.111-1.9,2.292-3.762,3.454-5.633a34.383,34.383,0,0,0,3.172-6.2,13.585,13.585,0,0,1,2.687-4.245c.574-.649,1.163-1.286,1.748-1.926a.758.758,0,0,0,.295-.638c-.038-.343.219-.588.415-.842a4.954,4.954,0,0,0,.958-1.487c.1-.323.436-.46.722-.6s.278.281.565.313.436.2.667.134a.7.7,0,0,1,.065.433c-.009.214.062.3.3.3a.43.43,0,0,1,.46.472.466.466,0,0,1-.5.513,1.2,1.2,0,0,0-.973.585,3.225,3.225,0,0,1-1.366,1.219c-.13.046-.176.169-.242.27-.705,1.077-1.414,2.151-2.11,3.233a12.594,12.594,0,0,0-1.591,3.579,51.214,51.214,0,0,1-2.223,6.055,36.7,36.7,0,0,0-1.764,5.271,15.5,15.5,0,0,1-1.687,3.945c-.643,1.143-1.306,2.275-1.928,3.43a11.47,11.47,0,0,0-1.314,3.61,7.027,7.027,0,0,0,.005,2.369c.241-.039.194-.216.222-.333a19.363,19.363,0,0,1,2.015-5.01c.9-1.6,1.829-3.172,2.752-4.755a26.585,26.585,0,0,0,2.28-4.9,20.32,20.32,0,0,1,1.677-3.795,13.64,13.64,0,0,0,1.8-5.3c.03-.244.11-.482.157-.724a2.063,2.063,0,0,1,1.348-1.645,4.9,4.9,0,0,0,2.442-2.184,20.809,20.809,0,0,0,1.126-1.833,9.017,9.017,0,0,0,.741-1.851c-.374.263-.5.686-.949.915.087-.433.451-.658.528-1.074-.378.176-.581.524-1.086.621a4.683,4.683,0,0,0,.713-1.44,1.934,1.934,0,0,1,.966-1.079c.1-.05.225-.128.338-.011.079.083.047.186.027.28a2.4,2.4,0,0,1-.1.358c-.09.233-.049.316.218.246.248-.065.1.512.46.306.239.36.634.288.97.321.037.172-.128.227-.151.4a4.107,4.107,0,0,1,.946-.009c.281.059.624.037.539.492.564.512.162.881-.178,1.273a2.586,2.586,0,0,1-.941.875c-.124-.226.13-.276.11-.426-.036-.04-.073-.033-.123.006a24.064,24.064,0,0,0-3.983,3.879,11.579,11.579,0,0,0-1.456,2.322c-.732,1.571-1.525,3.111-2.4,4.607a51.521,51.521,0,0,0-2.881,6.1,138.522,138.522,0,0,1-7.473,15.333,1.175,1.175,0,0,0-.043,1.313,1.773,1.773,0,0,1,.246.924c0,.374-.185.521-.575.5-.479-.031-.693-.225-.656-.6a.4.4,0,0,1,.027-.145,2.881,2.881,0,0,0-.171-2.483c-.093-.271-.235-.559.012-.84.117-.134.012-.286-.018-.423a10.526,10.526,0,0,1,.553-5.907c.442-1.21.991-2.373,1.482-3.561A9.936,9.936,0,0,0,153.28,139.511Zm9.712-21.089a2.543,2.543,0,0,0,1.151-1.29A3.117,3.117,0,0,0,162.992,118.422Zm5.414.154c-.365.085-.378.305-.679.455C168.161,119.025,168.256,118.862,168.406,118.575Z" transform="translate(-110.217 -102.475)" fill="#979ca8"/>
        <path id="Tracé_227" data-name="Tracé 227" d="M49.072,168c-.5.149-.532.145-.49-.222a1.683,1.683,0,0,0-.224-.993,6.047,6.047,0,0,1-.312-.672c-.216-.593-.127-.687.57-.62.021,0,.024.064.081.008a3.224,3.224,0,0,0,.245-2.689,2.955,2.955,0,0,1,.02,1.222,2.159,2.159,0,0,1-.445.847c-.273.288-.607.681-.989.517-.362-.156-.21-.648-.185-1.007a5.929,5.929,0,0,1,.265-1.154,2.4,2.4,0,0,0,.318-.85,1.379,1.379,0,0,0-.477.641c-.149.182-.19.45-.476.576a9.962,9.962,0,0,1,.779-3.234,15.91,15.91,0,0,1,1.424-2.593c.607-.93,1.246-1.841,1.78-2.817.109-.2.19-.4.5-.264.223.1.28-.144.378-.269.594-.756,1.182-1.516,1.771-2.274l.174,0a11.577,11.577,0,0,0-1.617,2.456c.243-.035.216-.34.452-.306.09.275-.187.5-.087.814.319-.5.625-.97.924-1.447.01-.016-.043-.073-.068-.111l.042-.008c.374-.052.436-.472.728-.62l.117.2a5.35,5.35,0,0,0-1.684,2.8c-.083.319-.5.652-.061,1.012-.413.359-.064.89-.292,1.289a.379.379,0,0,1-.186.207c-.558.232-.606.347-.463,1.04.1-.095.194-.17.275-.256a11.362,11.362,0,0,0,1.025-1.451c.869-1.291,1.554-1.57,3.019-1.117a15.049,15.049,0,0,1,5.386,3.026,2.933,2.933,0,0,1,.9,1.243c.09.275.018.585.176.848.01.542,0,1.086.039,1.625a1.411,1.411,0,0,0,.674,1.179,18.149,18.149,0,0,1-.574-2.851l-.123-.794a9.617,9.617,0,0,0-1.352-3.659,2.635,2.635,0,0,0-1.7-1.213c-.265-.06-.534-.1-.8-.155a6.923,6.923,0,0,1-2.227-.51,1.937,1.937,0,0,0-1.713-.093,3.858,3.858,0,0,0-1.553,1.108,1.2,1.2,0,0,1-.572.464,16.489,16.489,0,0,0,.928-2.073,1.1,1.1,0,0,1,.816-.668,9.222,9.222,0,0,1,4.483.009,4.57,4.57,0,0,1,3.141,2.28c.328.609.681,1.2,1,1.817a16.337,16.337,0,0,0,1.4,2.353c.23.242.03.553.132.815.032.319.071.638.094.959a2.388,2.388,0,0,1-.094,1.387c-.2.354-.152.565.337.737-.762.277-1.4.533-2.054.739-.518.164-.585.114-.9-.373a13.45,13.45,0,0,1-1.016-2.142,11.408,11.408,0,0,0-1.236-2.444,1.76,1.76,0,0,0-1.049-.753,9.18,9.18,0,0,1-1.891-.849,8.284,8.284,0,0,0-1.785-.715,1.827,1.827,0,0,0-1.6.363,5.657,5.657,0,0,0-1.313,1.545c.613.228.447.8.61,1.309a.81.81,0,0,1,1.077.541c.072.209.255.2.435.18a2.328,2.328,0,0,0,.909-.3c.413-.225.82-.46,1.238-.674a2.481,2.481,0,0,1,2.788.27,5.038,5.038,0,0,1,1.249,1.459,27.9,27.9,0,0,1,1.435,2.93c.066.141.14.307-.046.38-.4.155-.7.472-1.085.638-.427.183-.537.138-.737-.3-.257-.562-.495-1.133-.755-1.694a5.342,5.342,0,0,0-.871-1.375,2.273,2.273,0,0,0-2.165-.795,8.549,8.549,0,0,1-.964.04,1.3,1.3,0,0,0-1.009.4c.256.192.5.1.736.094a1.706,1.706,0,0,1,1.008.119c.278.161.617-.029.926-.053a1.109,1.109,0,0,1,1.024.445,6.091,6.091,0,0,1,1.327,2.378,1.353,1.353,0,0,1-.781,1.882c-.144.085-.24.155-.177.339.046.134.025.288.271.2.163-.058.168.1.131.235a2.392,2.392,0,0,1-1.2,1.532,9.132,9.132,0,0,1-1.46.532c-.284.1-.725-.03-.8.457,0,.024-.093.064-.124.052-.309-.127-.581-.132-.769.2-.556-.2-1.008.134-1.489.3-.2.069-.359.136-.517-.084a5.124,5.124,0,0,0-1.314-1.076c-.171-.122-.615-.214-.179-.557.051-.04.044-.107-.01-.117-.641-.129-.154-.6-.245-.936-.372.158-.308.5-.426.743-.076.155-.185.4-.344.294s-.458-.245-.3-.571.264-.641.431-.943c.216-.39-.056-.5-.3-.707-.121.368.058.669-.079.949-.049.1-.146.165-.225.089-.048-.046-.014-.178-.017-.27C49.175,168.27,49.313,168.139,49.072,168Zm4.025-6.18a.232.232,0,0,0-.229-.227c-.171-.016-.423-.148-.439.194-.005.11-.043.282.151.254S52.989,162.06,53.1,161.825Zm.622,1.006-.533-.137c-.072-.019-.147-.036-.185.05a.2.2,0,0,0,.081.253C53.287,163.121,53.49,163.133,53.72,162.832Z" transform="translate(-46.97 -125.379)" fill="#979ca8"/>
        <path id="Tracé_228" data-name="Tracé 228" d="M66.618,122.086c.332-.5.793-.88,1.167-1.341a.771.771,0,0,1,.518-.259,19.082,19.082,0,0,1,5.323-.332c2.033.259,1.86.1,2.723,1.979a28.889,28.889,0,0,1,1.352,4.546,12.657,12.657,0,0,0,1.085,2.911,1.565,1.565,0,0,0,.571.719c.209-.17.055-.275-.023-.387-.157-.222-.324-.437-.475-.663-.111-.167-.178-.3.148-.293.27,0,.168-.255.17-.4a11.9,11.9,0,0,0-.35-2.793,39.164,39.164,0,0,0-1.479-4.508,20.231,20.231,0,0,1-1.2-4.429,8.349,8.349,0,0,1,.019-2.294c.084-.543.138-1.052.731-1.349a1.338,1.338,0,0,0,.538-.945,5.109,5.109,0,0,1,1.2-2.27,1.934,1.934,0,0,0,.441-2c-.157-.494-.316-.989-.488-1.477a7.06,7.06,0,0,1-.356-1.285,1.989,1.989,0,0,1,.441-1.669,1.253,1.253,0,0,1,.485,1.2,12.243,12.243,0,0,0,.378,3.53,4.531,4.531,0,0,1-1.274,4.493,13.143,13.143,0,0,0-1.033,1.168,2.559,2.559,0,0,0-.506,2.5c.379,1.257.865,2.473,1.364,3.685a62.978,62.978,0,0,1,2.353,6.086c.091.308.176.618.262.928.091.33.147.665.5.862.193.108.256.357.351.558.1.22.157.475.463.613a1.527,1.527,0,0,0-.09-1.422,8.648,8.648,0,0,1-.92-3.115,18.663,18.663,0,0,0-1.847-5.69,10.527,10.527,0,0,1-1.091-2.908,2.281,2.281,0,0,1,.331-1.852c.3.188.361.522.485.8a40.7,40.7,0,0,1,1.647,4.92c.255.853.519,1.7.771,2.557a8.588,8.588,0,0,0,1.589,3,4.9,4.9,0,0,1,1.1,1.832.858.858,0,0,0,.839.622,5.234,5.234,0,0,0,1.185-.067c.245-.034.491-.07.737-.08.164-.007.378-.063.469.119.115.229-.019.432-.174.6a1.822,1.822,0,0,1-.854.423c-.222.071-.3-.113-.384-.264-.184-.346-.419-.395-.712-.134-.182.161-.442.23-.584.5.2.166.523.085.681.316-.744.663-1.255.708-1.822.161.078-.244.376-.175.555-.412-.5-.03-.808-.505-1.479-.365.434.173.309.649.711.752a.115.115,0,0,1,.009.221c-.469.227-.277.406.028.6.073.046.111.146.164.22a1.272,1.272,0,0,1-.6.323.592.592,0,0,1-.78-.226,1.661,1.661,0,0,0-.349-.378c-.236-.18-.369-.122-.368.205,0,.286-.136.329-.354.349a1.5,1.5,0,0,1-1.094-.374c-.094-.074-.2-.178-.314-.043s.023.215.094.307.274.13.239.257c-.183.677.326.625.715.707a.315.315,0,0,1,.248.142,4.986,4.986,0,0,1-2.717,1.046c-.523-.026-.57-.075-.663-.587-.1-.56-.216-1.117-.324-1.674a3.512,3.512,0,0,0-.206-.856c-.551-2.455-1.275-4.87-1.647-7.365a.513.513,0,0,0-.678-.466,13.749,13.749,0,0,1-3.69-.015c-1.4-.107-2.817-.306-4.128.438Z" transform="translate(-59.44 -94.523)" fill="#979ca8"/>
        <path id="Tracé_229" data-name="Tracé 229" d="M113.775,132.328a2.311,2.311,0,0,1,.383,1.1,1.1,1.1,0,0,1-.442,1.029c-.425.33-.6.33-1.032-.017a8.082,8.082,0,0,0-1.426-.763l.021.02c.114-.042.148-.124.087-.224q-.214-.347-.442-.685a11.962,11.962,0,0,1-2.183-7.623,27.934,27.934,0,0,1,1.2-7.145,7.138,7.138,0,0,1,1.307-2.525,5.389,5.389,0,0,1-.039,1.457c-.207,1.648-.677,3.24-1.036,4.855a16.446,16.446,0,0,0-.421,2.857,7.455,7.455,0,0,0,.7,3.6c.555,1.158,1.138,2.3,1.741,3.438a3.294,3.294,0,0,0,1.281,1.455c.009-.909-.862-1.5-.819-2.473.41.279.536.686.787.987Z" transform="translate(-86.16 -102.105)" fill="#979ca8"/>
        <path id="Tracé_230" data-name="Tracé 230" d="M107.068,83.271c.084-.291.2-.524.575-.369.1.164.1.415.385.46a.937.937,0,0,0-.219-.686c.031-.272.207-.56-.128-.784a.259.259,0,0,1-.046-.339c.043-.078.108-.182.222-.075s.02.68.433.216a.609.609,0,0,1,.087.19,18.167,18.167,0,0,1,.129,3.894,2.94,2.94,0,0,1-.294.977c-.059.045-.117.093-.176.141.038-.317-.267-.357-.439-.525.054-.057.1-.112.152-.159.4-.361.4-.359-.118-.544-.091-.032-.176-.081-.275-.128a1.839,1.839,0,0,1-.043.236c-.073.227.248.407.089.626s-.415.083-.627.109c-.107.013-.219.057-.228.154-.039.417-.247.136-.4.115-.209-.027-.413-.5-.635-.012-.056.125-.114.019-.159-.02a.852.852,0,0,1-.09-.117c-.377-.473-.377-.473-.876-.151a4.163,4.163,0,0,1-.51-2.355c.013-.142-.019-.374.142-.384.533-.035.562-.58.951-.884a3.461,3.461,0,0,0,.637.971c.081.091.167.2.1.331s-.112.236.077.258c.144.016.374-.01.344-.177-.1-.584.218-1.282-.477-1.721-.313-.2-.3-.284-.229-.919.24-.068.231.321.508.244.159-.266-.038-.61.139-.953a1.322,1.322,0,0,0,1.037.124c-.2.308-.031.749-.533.517-.082-.038-.183.033-.169.073.13.373-.218.808.187,1.161a2,2,0,0,1,.329.645c.08.172.12.391.387.349a.151.151,0,0,0,.1-.094C107.445,83.409,107.16,83.42,107.068,83.271Zm-.059,1.119c-.27-.038-.514-.017-.407.349a1.37,1.37,0,0,0,.311.692,1.14,1.14,0,0,0,.623-.524c.287-.449.285-.444-.214-.743C107.024,83.986,107.015,84.179,107.009,84.39Z" transform="translate(-83.075 -80.146)" fill="#979ca8"/>
        <path id="Tracé_231" data-name="Tracé 231" d="M80.811,129.639a1.4,1.4,0,0,0-.809.822.584.584,0,0,1-.678.495,3.452,3.452,0,0,0-1.134.147c-.216-.194-.005-.423-.14-.593-.037,0-.094-.008-.114.014a.774.774,0,0,1-1,.206c-.342-.186-.348.076-.486.355-.11-.608-.305-1.082.262-1.52.317-.245.215-.74.277-1.113a.878.878,0,0,1,.691-.757,3.464,3.464,0,0,1,1.976.077c.494.117.983.367,1.215-.368.359.329.261.785.569,1.035a.138.138,0,0,1,0,.2,1.77,1.77,0,0,0-.153,1.29c.05.832-.14,1.011-1.054,1,.023-.516.575-.652.747-1.048.085-.118.156-.259.023-.364C80.9,129.432,80.856,129.564,80.811,129.639Z" transform="translate(-65.601 -109.666)" fill="#979ca8"/>
        <path id="Tracé_232" data-name="Tracé 232" d="M86.767,107.017c-.058-.158-.15-.162-.272-.064a3.615,3.615,0,0,0-1.072,1.3c-.289.628-.487,1.288-.726,1.934a4.025,4.025,0,0,1-.722,1.36,2.139,2.139,0,0,1,.075-.9,10.6,10.6,0,0,1,.843-2.435c.067-.14.24-.264.123-.457l-.013.008c.081.037.126,0,.167-.071a22.536,22.536,0,0,1,3.416-4.258c.038-.038.123-.075.059-.217a4.011,4.011,0,0,0-.443.879c.121.2.218-.033.36.072a2.385,2.385,0,0,0,.227,2.328,2.348,2.348,0,0,1-.149,2.645,8.162,8.162,0,0,0-.976,2.388,2.144,2.144,0,0,1-1,1.423,2.825,2.825,0,0,1,.019-2.129,8.99,8.99,0,0,1,.882-1.791,3.928,3.928,0,0,0,.564-3.252,7.121,7.121,0,0,1-.137-1.064,1.608,1.608,0,0,0-.477.711,11.133,11.133,0,0,1-.772,1.263c-.085.113-.211.237.011.344Z" transform="translate(-70.441 -94.312)" fill="#979ca8"/>
        <path id="Tracé_233" data-name="Tracé 233" d="M75.82,106.8c-.173-.189-.251-.025-.314.1-.3.593-.6,1.19-.893,1.787-.273.552-.541,1.106-.815,1.667a3.068,3.068,0,0,1,.5-1.9c.289-.586.612-1.155.877-1.76a1.267,1.267,0,0,0-.493.569,35.2,35.2,0,0,0-1.789,3.485c-.119.249-.039.79-.614.667-.02,0-.073.115-.1.181-.679,1.743-1.47,3.437-2.24,5.139l.021.031c-.235.041-.242.274-.354.419l-.141-.15c.67-1.268,1.155-2.616,1.709-3.934a10.1,10.1,0,0,1,1.189-2.457c.787-.991,1.214-2.177,1.929-3.2s1.508-2.017,2.268-3.022c.159-.21.385-.386.432-.671-.953-.272-.953-.272-1.405-.75a3.038,3.038,0,0,0,.921-1.043c.108-.232.274-.245.484-.229a5.4,5.4,0,0,1,2.07.525,2.775,2.775,0,0,1-.658.612,13.085,13.085,0,0,0-2.671,3.618c-.066.124-.168.271.076.332Z" transform="translate(-61.247 -93.365)" fill="#979ca8"/>
        <path id="Tracé_234" data-name="Tracé 234" d="M104.311,126.97a4.525,4.525,0,0,1-.975-1.9,10.354,10.354,0,0,1-.267-3.823c.106-1.253.3-2.5.461-3.748a.412.412,0,0,1,.2-.355A38.639,38.639,0,0,1,104.311,126.97Z" transform="translate(-82.536 -103.156)" fill="#979ca8"/>
        <path id="Tracé_235" data-name="Tracé 235" d="M72.518,140.543a4.806,4.806,0,0,1,1.888-.328,6.032,6.032,0,0,0,2.77-.369c.193-.095.282.011.333.158a1.424,1.424,0,0,1-.2,1.339.6.6,0,0,1-.523.214,3.991,3.991,0,0,1-1.319-.185,3.219,3.219,0,0,0-2.1.162,2.042,2.042,0,0,1-1.421.274c-.241-.075-.389.173-.566.3s-.359.264-.534.4c-.089.07-.214.095-.266.023-.082-.113.007-.228.092-.321l.859-1.348c.051-.107.248-.179.081-.338l.034.011c.254.06.3-.193.444-.3.3.369-.237.51-.216.835Z" transform="translate(-61.933 -117.541)" fill="#979ca8"/>
        <path id="Tracé_236" data-name="Tracé 236" d="M147.485,106.107c-.151-.034-.33-.064-.225-.323.055-.136.082-.284.135-.422a11.279,11.279,0,0,1,3.172-4.482c.3-.261.456-.138.66.087a.254.254,0,0,1,.016.384c-.138.174-.27.352-.405.528-.207.269-.489.494-.446.9.009.08-.073.179-.132.256q-1.063,1.375-2.133,2.745A.662.662,0,0,1,147.485,106.107Z" transform="translate(-110.603 -92.74)" fill="#979ca8"/>
        <path id="Tracé_237" data-name="Tracé 237" d="M162.293,108.029c-1.158,1.32-2.293,2.6-3.406,3.893-.387.451-.745.122-1.1.078-.088-.193.029-.288.1-.372a31.558,31.558,0,0,1,2.171-2.949c.174-.175.294-.4.589-.393.191,0,.3-.146.433-.26C161.568,107.592,161.6,107.593,162.293,108.029Z" transform="translate(-117.283 -97.162)" fill="#979ca8"/>
        <path id="Tracé_238" data-name="Tracé 238" d="M121.09,84.457c.544-.057,1.01-.058,1.341.428.076.112.3.123.478.188a45.961,45.961,0,0,0-1.638,4.645,2.84,2.84,0,0,1-.432-1.893C120.9,86.719,121,85.616,121.09,84.457Z" transform="translate(-93.848 -82.393)" fill="#979ca8"/>
        <path id="Tracé_239" data-name="Tracé 239" d="M97.8,79.055a.931.931,0,0,0,.524.775c.255.159.167.412-.01.43-.325.033-.308.245-.344.432a13.97,13.97,0,0,1-.915,2.331c-.088.225-.271.256-.365.027-.138-.338-.3-.193-.5-.091-.258.133-.173.3-.085.491.066.14.272.264.095.445a1.575,1.575,0,0,1-.308.2c-.133-.3-.627-.148-.675-.542-.034-.274-.294-.613.219-.746.081-.021.159-.2.172-.308A.452.452,0,0,1,96,82.049c.384-.091.507-.45.633-.765.183-.456.321-.93.49-1.392A1.269,1.269,0,0,1,97.8,79.055Z" transform="translate(-77.529 -78.98)" fill="#979ca8"/>
        <path id="Tracé_240" data-name="Tracé 240" d="M192.718,127.929a1.024,1.024,0,0,0,1.121.516,20.669,20.669,0,0,1-1.99,2.966c-.387.418-.477.4-.89.019-.616-.562-.615-.562-.136-1.272.29-.43.6-.848.855-1.3A2,2,0,0,1,192.718,127.929Z" transform="translate(-138.053 -110)" fill="#979ca8"/>
        <path id="Tracé_241" data-name="Tracé 241" d="M98.371,93.152c.487-.094.667-.776,1.234-1.021a5.41,5.41,0,0,0,.458,1.672c.129.275.287.554.614.576.655.045.259.58.417.857.178.312-.187.235-.325.318-.518.311-.613.764-.319,1.556.041.11.149.217.012.319a.365.365,0,0,1-.209.032c-.166,0-.188-.125-.187-.254a1.725,1.725,0,0,0-.449-1.291c-.1-.1-.074-.194-.035-.326A1.527,1.527,0,0,0,99.052,94,9.738,9.738,0,0,1,98.371,93.152Z" transform="translate(-79.594 -87.28)" fill="#979ca8"/>
        <path id="Tracé_242" data-name="Tracé 242" d="M94.564,95.408a.7.7,0,0,1-1.081.281,2.979,2.979,0,0,0-1.831-.168,7.606,7.606,0,0,0-.044-2.192c.165-.232.426-.01.619-.13,0-.164-.187-.272-.118-.467.084-.236.2-.261.422-.1.244.18-.03.1-.052.143-.1.222-.285.385,0,.7a2.831,2.831,0,0,0,.93.726A2.337,2.337,0,0,1,94.564,95.408Z" transform="translate(-75.301 -87.533)" fill="#979ca8"/>
        <path id="Tracé_243" data-name="Tracé 243" d="M202.539,135.125a1.082,1.082,0,0,1-.225,1.431,4,4,0,0,0-.349.478,4.1,4.1,0,0,1-2.174,1.806c-.191.058-.282.451-.532.209-.266-.259.057-.445.177-.624a13.844,13.844,0,0,1,1.408-1.715A20.053,20.053,0,0,1,202.539,135.125Z" transform="translate(-143.561 -114.567)" fill="#979ca8"/>
        <path id="Tracé_244" data-name="Tracé 244" d="M62.691,172.524a1.442,1.442,0,0,1,.383-.671c.214-.3.4-.587.06-.914a.125.125,0,0,1-.009-.19.129.129,0,0,1,.194-.028c.4.5,1.029.409,1.543.613.3.118.593.244.892.361.422.165.848.34,1.2-.134.177.243.131.361-.083.444a22.147,22.147,0,0,1-2.755.854c-.174.042-.286.046-.34-.221-.111-.55-.32-.607-.823-.312C62.889,172.36,62.837,172.41,62.691,172.524Z" transform="translate(-56.948 -137.139)" fill="#979ca8"/>
        <path id="Tracé_245" data-name="Tracé 245" d="M173.976,115.314a6.712,6.712,0,0,1-.953,1.724,12.557,12.557,0,0,1-1.126,1.3.685.685,0,0,1-1.018.132,2.808,2.808,0,0,0-.336-.169l1.731-2.132C172.967,116.159,173.21,115.24,173.976,115.314Z" transform="translate(-125.4 -101.991)" fill="#979ca8"/>
        <path id="Tracé_246" data-name="Tracé 246" d="M88.565,112.471c.465-.025.43-.61.8-.681-.722,2.666-1.509,4.636-2.566,5.076a7.429,7.429,0,0,1,.65-2.185A11.367,11.367,0,0,1,88.5,112.81c.064-.1.259-.187.08-.348Z" transform="translate(-72.25 -99.757)" fill="#979ca8"/>
        <path id="Tracé_247" data-name="Tracé 247" d="M180.971,124.186a34.669,34.669,0,0,1,2.55-2.72,1.845,1.845,0,0,1-.678,1.634c-.353.342-.669.721-1,1.083C181.476,124.576,181.475,124.575,180.971,124.186Z" transform="translate(-132.019 -105.898)" fill="#979ca8"/>
        <path id="Tracé_248" data-name="Tracé 248" d="M83.734,144.968a3.707,3.707,0,0,1,.294,1.132,12.534,12.534,0,0,0-4.64-.465,1.635,1.635,0,0,1,1.754-.129,4.956,4.956,0,0,0,1.9.025C83.3,145.526,83.435,145.185,83.734,144.968Z" transform="translate(-67.546 -120.815)" fill="#979ca8"/>
        <path id="Tracé_249" data-name="Tracé 249" d="M108.064,119.185a4.564,4.564,0,0,1,.051,3.822C107.95,121.782,108.334,120.551,108.064,119.185Z" transform="translate(-85.746 -104.45)" fill="#979ca8"/>
        <path id="Tracé_250" data-name="Tracé 250" d="M104.892,111.68c-.632-.855-1.756-1.515-1.073-3.031A25.209,25.209,0,0,0,104.892,111.68Z" transform="translate(-82.916 -97.763)" fill="#979ca8"/>
        <path id="Tracé_251" data-name="Tracé 251" d="M108.034,99.528c.093-.445-.153-.726-.246-1.049-.027-.095-.041-.212.054-.267.21-.123.142.108.191.176a.219.219,0,0,0,.25.1c.13-.04.065-.149.048-.237-.035-.175,0-.293.216-.251.153.03.394-.02.329.256C108.761,98.742,108.7,99.275,108.034,99.528Z" transform="translate(-85.558 -90.997)" fill="#979ca8"/>
        <path id="Tracé_252" data-name="Tracé 252" d="M106.2,103.81c.224-.244.163-.575.528-.625.034.364-.142.747.078,1.116-.374-.221-.86-.236-1.006-.724-.027-.092-.077-.211.042-.258.178-.07.176.087.213.2A2.549,2.549,0,0,0,106.2,103.81Z" transform="translate(-84.286 -94.295)" fill="#979ca8"/>
        <path id="Tracé_253" data-name="Tracé 253" d="M110.8,101.748c.216-.382.564-.672.655-1.113a.2.2,0,0,1,.167-.107c.06.009.115.087.159.144.113.148.037.271-.054.4A1.86,1.86,0,0,1,110.8,101.748Z" transform="translate(-87.485 -92.609)" fill="#979ca8"/>
        <path id="Tracé_254" data-name="Tracé 254" d="M114.742,165.01c.121.383.582.591.547,1.047a3.742,3.742,0,0,1-1.08-1.123c.231-.229.353.188.555.1Z" transform="translate(-89.646 -133.442)" fill="#979ca8"/>
        <path id="Tracé_255" data-name="Tracé 255" d="M65.26,150.648l.01,0c.154-.064.243-.24.478-.25-.471.738-1.173,1.234-1.671,1.9a.169.169,0,0,0-.092-.1c.236-.372.613-.647.752-1.086l.008-.008C65,151.05,65.11,150.824,65.26,150.648Z" transform="translate(-57.77 -124.26)" fill="#979ca8"/>
        <path id="Tracé_256" data-name="Tracé 256" d="M106.418,108.13c.186.047.282.065.374.1.314.1.146.368.176.561.018.114-.07.179-.184.164-.231-.03-.224-.229-.263-.392C106.492,108.443,106.465,108.327,106.418,108.13Z" transform="translate(-84.701 -97.434)" fill="#979ca8"/>
        <path id="Tracé_257" data-name="Tracé 257" d="M106.861,80.942c.1-.129.2-.264.317-.385a.213.213,0,0,1,.254-.078c.12.064.128.2.138.314.015.182-.12.174-.24.174a.417.417,0,0,0-.324.123A.191.191,0,0,0,106.861,80.942Z" transform="translate(-84.982 -79.872)" fill="#979ca8"/>
        <path id="Tracé_258" data-name="Tracé 258" d="M114.862,97.082c.059-.048.117-.1.176-.141.042.318-.176.5-.427.863C114.653,97.436,114.665,97.231,114.862,97.082Z" transform="translate(-89.901 -90.332)" fill="#979ca8"/>
        <path id="Tracé_259" data-name="Tracé 259" d="M130.306,175.377a.11.11,0,0,1,.146-.064,2.348,2.348,0,0,1,.27.716C130.5,175.769,130.337,175.621,130.306,175.377Z" transform="translate(-99.862 -140.069)" fill="#979ca8"/>
        <path id="Tracé_260" data-name="Tracé 260" d="M100.421,130.163c-.387-.228-.281-.39.006-.541A.658.658,0,0,1,100.421,130.163Z" transform="translate(-80.736 -111.075)" fill="#979ca8"/>
        <path id="Tracé_261" data-name="Tracé 261" d="M106.741,81.78a.191.191,0,0,1,.145.148c.041.113-.043.229-.107.2C106.627,82.054,106.658,81.908,106.741,81.78Z" transform="translate(-84.862 -80.71)" fill="#979ca8"/>
        <path id="Tracé_262" data-name="Tracé 262" d="M63.593,155.433c.036.058.034.155.141.142l-.042.008c-.24-.111-.246.275-.469.216a.566.566,0,0,1,.278-.466A.169.169,0,0,1,63.593,155.433Z" transform="translate(-57.285 -127.393)" fill="#979ca8"/>
        <path id="Tracé_263" data-name="Tracé 263" d="M116.207,99.36q-.037.239-.074.478C115.874,99.635,116.112,99.509,116.207,99.36Z" transform="translate(-90.793 -91.868)" fill="#979ca8"/>
        <path id="Tracé_264" data-name="Tracé 264" d="M52.72,195.533c.241.134.1.266,0,.4C52.718,195.8,52.719,195.664,52.72,195.533Z" transform="translate(-50.618 -152.908)" fill="#979ca8"/>
        <path id="Tracé_265" data-name="Tracé 265" d="M134.748,180.677a.1.1,0,0,1,.142-.044c.055.061.053.157,0,.18C134.775,180.869,134.763,180.761,134.748,180.677Z" transform="translate(-102.682 -143.442)" fill="#979ca8"/>
        <path id="Tracé_266" data-name="Tracé 266" d="M182.738,142.442a9.924,9.924,0,0,0,.972-.728c.1.628-.451,1.165-.062,1.758a15.025,15.025,0,0,0-6.632,6.617,51.526,51.526,0,0,0-3.423,7.643,11.9,11.9,0,0,1-.721,1.626,7.735,7.735,0,0,0-.917,2.8,7.966,7.966,0,0,1-.982,2.936c-.55.968-1.136,1.918-1.637,2.911a26.5,26.5,0,0,1-2.217,3.907,8.176,8.176,0,0,0-1.394,4.4,10.973,10.973,0,0,0-.063,1.335,1.055,1.055,0,0,1-.653,1.077c-.282-1.13-1.02-2.06-1.18-3.22a4.354,4.354,0,0,1,.482-2.866c1.044-1.827,2.174-3.6,3.269-5.4a39.871,39.871,0,0,0,3.815-8.1,47.731,47.731,0,0,1,8.423-15.086,9.71,9.71,0,0,1,1.769-1.427c.1-.079.245-.127.165-.254-.209-.333,0-.3.16-.167.286.229.371.1.441-.169.034-.128.121-.247.259-.133.108.089,0,.227-.008.344-.122.124-.279.233-.2.455A.688.688,0,0,0,182.738,142.442Z" transform="translate(-121.102 -118.749)" fill="#979ca8"/>
        <path id="Tracé_267" data-name="Tracé 267" d="M129.733,95.453c.257-.521.477-1.014.738-1.485a24.139,24.139,0,0,1,1.964-2.78,3.127,3.127,0,0,0,.5-.885.377.377,0,0,0-.062-.438.849.849,0,0,0-1.464.14c-.139.289-.264.584-.4.873s-.463.44-.561.77a27.946,27.946,0,0,0-.862,3.135C129.55,94.984,129.43,95.216,129.733,95.453Z" transform="translate(-99.371 -85.616)" fill="#979ca8"/>
        <path id="Tracé_268" data-name="Tracé 268" d="M68.3,146.761l-.058.045c-.014-.02-.041-.042-.039-.06s.035-.031.054-.046Z" transform="translate(-60.449 -121.914)" fill="#979ca8"/>
        <path id="Tracé_269" data-name="Tracé 269" d="M67.576,147.519c.052-.061.1-.186.193-.074.083.1-.035.153-.085.218Z" transform="translate(-60.048 -122.358)" fill="#979ca8"/>
        <path id="Tracé_270" data-name="Tracé 270" d="M67.193,147.885a.189.189,0,0,1,.14-.16l.108.144-.121.119Z" transform="translate(-59.805 -122.564)" fill="#979ca8"/>
        <path id="Tracé_271" data-name="Tracé 271" d="M215.076,143.384a.688.688,0,0,1-.33.27c-.083-.222.075-.331.2-.455Z" transform="translate(-153.441 -119.692)" fill="#979ca8"/>
        <path id="Tracé_272" data-name="Tracé 272" d="M145.821,93.34l.3-.294a.335.335,0,0,1-.128.448C145.8,93.653,145.863,93.415,145.821,93.34Z" transform="translate(-109.71 -87.86)" fill="#979ca8"/>
        <path id="Tracé_273" data-name="Tracé 273" d="M129.733,95.453c-.3-.237-.183-.469-.148-.668a27.946,27.946,0,0,1,.862-3.135c.1-.331.421-.481.561-.77s.264-.584.4-.873a.849.849,0,0,1,1.464-.14.377.377,0,0,1,.062.438,3.127,3.127,0,0,1-.5.885,24.139,24.139,0,0,0-1.964,2.78C130.209,94.439,129.989,94.932,129.733,95.453Z" transform="translate(-99.371 -85.616)" fill="#979ca8"/>
        <path id="Tracé_274" data-name="Tracé 274" d="M82.664,155.994c.557,0,1.115.024,1.669-.008.363-.021.425.178.412.445a2.033,2.033,0,0,1-.352.951A9.361,9.361,0,0,0,82.664,155.994Z" transform="translate(-69.625 -127.806)" fill="#979ca8"/>
        <path id="Tracé_275" data-name="Tracé 275" d="M112.4,90.4l.423.436C112.493,90.871,112.339,90.739,112.4,90.4Z" transform="translate(-88.49 -86.178)" fill="#979ca8"/>
      </g>
    </g>
  </g>
</svg>
